{"glyphs":{"0":{"ha":1031,"x_min":28,"x_max":985,"o":"m 985 383 q 983 369 985 379 q 982 358 982 358 l 660 -15 l 389 -15 l 386 -15 l 351 -15 l 29 358 q 28 369 29 358 q 28 383 28 379 l 28 389 q 45 451 28 424 q 83 505 63 479 q 120 555 103 531 q 138 606 138 579 q 137 635 138 618 q 144 688 136 653 q 156 703 156 696 q 147 723 156 710 q 139 775 139 736 l 139 790 q 153 826 144 804 q 164 851 161 849 l 175 851 q 278 858 231 851 q 381 871 325 865 q 389 876 385 875 l 454 876 l 474 876 l 538 876 q 622 872 585 876 q 694 864 660 868 q 763 856 729 860 q 838 851 797 851 l 847 851 q 858 826 850 849 q 872 790 867 804 l 872 775 q 864 723 872 736 q 856 703 856 710 q 867 688 856 696 q 874 635 875 653 q 874 606 874 618 q 891 555 874 579 q 929 505 908 531 q 967 451 950 479 q 985 389 985 424 l 985 383 m 517 675 l 389 676 q 332 647 354 675 q 297 579 310 618 q 278 499 283 540 q 272 432 272 458 q 273 413 272 425 q 274 401 274 401 l 500 147 l 515 147 l 743 401 q 744 413 743 401 q 746 432 746 425 q 740 499 746 458 q 721 579 735 540 q 684 647 707 618 q 628 676 661 675 l 517 676 l 517 675 "},"1":{"ha":486,"x_min":-58,"x_max":525,"o":"m 99 356 q 102 303 99 326 q 112 261 106 281 q 125 224 118 242 q 140 189 132 207 q 49 76 154 153 q 182 -28 -58 -1 q 383 -19 243 -28 q 440 51 525 -11 q 361 169 356 115 q 366 224 364 197 q 368 278 368 251 q 363 312 368 300 q 352 336 358 324 q 341 367 346 349 q 336 422 336 386 q 351 513 336 471 q 385 593 367 554 q 401 683 404 633 q 400 729 400 708 q 400 767 400 750 q 388 838 394 814 q 358 869 381 861 q 300 881 336 879 q 229 883 264 883 l 179 883 q 124 880 153 883 q 69 868 94 876 q 38 847 44 860 q 28 803 31 833 q 44 757 31 778 q 86 710 57 736 q 140 654 115 685 q 164 583 164 624 q 153 524 164 551 q 131 469 143 496 q 109 414 119 442 q 99 356 99 386 "},"2":{"ha":842,"x_min":28,"x_max":806,"o":"m 121 749 q 122 758 121 751 q 124 764 124 764 q 139 782 126 768 q 167 811 151 796 q 197 840 183 826 q 217 856 211 853 q 238 857 221 856 q 276 859 256 858 q 316 861 297 860 q 339 863 335 863 q 444 849 394 863 q 579 783 500 836 q 654 696 656 731 q 652 662 653 678 q 651 631 651 646 q 638 551 651 581 q 602 505 625 521 q 549 484 579 489 q 485 479 518 479 q 421 476 453 478 q 360 468 389 475 q 310 444 332 461 q 278 393 289 426 q 290 375 278 388 q 308 363 303 363 l 343 363 l 433 308 l 543 263 q 562 227 553 246 q 581 189 571 208 q 697 167 678 174 q 722 157 708 163 q 753 144 736 151 q 806 25 786 125 l 247 22 q 224 17 242 21 q 185 8 206 13 q 146 -2 164 3 q 124 -8 128 -7 l 106 -8 q 49 21 71 -8 q 28 85 28 50 q 48 142 28 118 q 97 180 68 165 q 159 201 126 194 q 217 208 192 208 q 138 292 151 254 q 121 390 121 329 q 135 474 121 440 q 174 531 150 508 q 228 566 197 553 q 292 586 260 579 q 334 597 314 592 q 374 608 354 603 q 467 629 411 621 q 528 686 522 639 q 475 736 501 721 q 432 732 439 732 l 419 732 q 394 734 411 732 q 363 736 376 736 l 339 736 q 285 731 304 736 q 251 717 265 725 q 224 704 238 710 q 185 699 210 699 q 141 710 161 699 q 121 749 121 721 "},"3":{"ha":1028,"x_min":19,"x_max":968,"o":"m 160 71 q 189 40 160 53 q 263 19 218 28 q 365 6 308 11 q 474 -1 421 1 q 570 -5 526 -4 q 636 -6 614 -6 q 703 20 675 -6 q 751 86 731 46 q 784 175 771 126 q 805 270 797 224 q 816 355 813 317 q 821 411 819 393 l 915 414 q 915 422 915 414 q 913 444 914 429 q 904 490 910 474 q 890 508 900 497 q 872 521 879 518 q 847 540 857 529 q 821 550 836 550 q 792 601 796 578 q 788 657 788 624 q 836 738 788 721 q 944 754 883 751 q 953 756 960 754 q 935 758 946 757 q 915 762 924 760 q 919 765 907 764 q 968 814 968 772 q 967 824 968 818 q 965 831 965 831 q 947 838 957 833 q 919 849 936 842 q 872 861 882 861 l 81 858 q 35 783 19 796 q 60 768 44 778 q 93 747 75 758 q 131 724 111 735 q 172 704 151 713 q 231 700 203 700 q 358 704 258 700 l 654 704 q 629 594 654 640 q 563 522 604 549 q 467 486 521 494 q 353 489 413 478 q 244 463 293 503 q 221 449 232 453 q 201 443 210 446 q 189 437 193 440 q 189 424 185 433 q 228 363 204 386 q 288 339 251 339 q 368 347 329 339 q 445 365 407 356 q 522 383 483 375 q 604 392 561 392 l 604 179 q 560 182 594 182 q 479 178 525 182 q 382 171 433 175 q 286 160 331 167 q 212 149 242 154 q 178 138 182 143 q 160 71 160 107 "},"4":{"ha":951,"x_min":25,"x_max":921,"o":"m 631 -42 q 617 46 631 6 q 600 119 603 86 q 665 121 617 125 l 703 121 q 761 122 729 121 q 819 124 793 124 l 857 124 q 915 139 904 118 q 921 183 921 160 l 921 188 q 920 205 921 197 q 917 215 919 213 q 831 260 865 240 q 781 313 797 281 q 715 378 764 344 q 631 394 667 411 q 661 292 594 378 q 580 289 610 290 q 540 285 550 288 q 521 281 531 282 q 500 279 511 281 q 460 280 479 278 q 438 282 442 282 q 320 302 351 282 q 289 375 289 322 l 289 389 l 289 397 q 290 407 289 406 q 294 431 293 429 q 349 467 297 442 q 376 482 363 474 q 406 497 390 490 q 458 533 421 506 q 558 608 496 561 q 596 639 564 618 q 665 687 640 665 q 703 724 689 708 q 726 752 717 740 q 750 772 735 764 q 797 791 768 783 q 889 806 826 799 l 889 817 q 874 844 889 835 q 840 856 860 853 q 799 858 819 858 q 765 857 778 857 l 706 857 q 635 844 667 857 q 561 806 603 832 q 448 731 492 765 q 367 666 404 697 q 286 606 329 635 q 176 550 243 578 q 161 542 169 547 q 140 529 153 536 q 118 508 118 515 l 118 276 q 76 258 93 265 q 47 242 58 250 q 31 222 36 233 q 25 194 25 211 q 31 167 25 181 q 58 149 36 154 q 213 151 138 153 q 361 139 289 149 l 425 128 l 461 14 q 470 -12 467 0 q 475 -36 474 -25 l 631 -42 "},"5":{"ha":792,"x_min":28,"x_max":769,"o":"m 121 117 q 141 156 121 144 q 185 167 161 167 q 224 161 210 167 q 251 148 238 156 q 285 135 265 140 q 339 129 304 129 l 363 129 q 394 131 376 129 q 419 133 411 133 l 432 133 q 451 145 439 133 q 463 164 463 157 q 438 224 463 204 q 374 256 413 244 q 292 278 336 268 q 209 310 247 289 q 146 369 171 331 q 121 475 121 407 q 138 574 121 536 l 136 675 q 81 699 103 688 q 48 724 60 711 q 32 750 36 736 q 28 781 28 764 q 49 844 28 815 q 106 874 71 874 l 124 874 q 146 868 128 872 q 185 858 164 864 q 224 849 206 853 q 247 843 242 844 l 753 844 q 728 714 769 758 q 692 699 708 708 q 639 672 675 690 q 517 633 564 638 q 333 633 425 639 l 311 569 q 290 490 303 503 q 278 472 278 478 q 310 422 289 439 q 360 397 332 404 q 421 389 389 390 q 485 386 453 388 q 549 381 518 386 q 602 360 579 376 q 638 315 625 344 q 651 235 651 285 q 622 129 651 174 q 546 57 592 85 q 445 16 500 29 q 339 3 390 3 q 316 4 335 3 q 276 6 297 6 q 238 8 256 7 q 217 10 221 10 q 197 26 211 13 q 167 54 183 39 q 139 83 151 69 q 124 101 126 97 q 122 108 124 101 q 121 117 121 114 "},"6":{"ha":693,"x_min":17,"x_max":640,"o":"m 186 60 q 241 27 214 40 q 292 7 268 14 l 372 3 q 501 50 450 11 q 583 135 556 92 q 626 224 611 176 q 640 331 640 271 q 561 539 640 449 q 365 626 483 626 q 317 625 340 626 q 274 621 294 624 q 178 556 232 614 q 176 606 178 594 q 175 624 175 618 q 203 681 175 667 q 274 697 232 696 q 366 691 317 697 q 458 687 415 685 q 528 706 500 689 q 557 771 557 724 q 554 795 557 776 q 547 819 551 814 q 363 850 454 844 q 188 838 271 856 q 17 686 106 818 q 19 600 18 640 q 24 525 21 560 q 24 485 24 511 q 25 421 25 458 q 26 344 25 386 q 26 261 26 303 q 92 162 53 213 q 186 60 132 111 m 400 485 q 439 464 424 479 q 462 433 446 457 q 504 369 478 410 q 476 268 508 328 q 306 160 435 157 q 236 226 247 199 q 227 264 232 242 q 217 318 222 286 q 276 449 217 403 q 400 485 336 496 "},"7":{"ha":914,"x_min":22,"x_max":853,"o":"m 717 485 q 709 441 717 456 q 688 417 701 426 q 659 399 675 408 q 626 371 643 390 q 582 299 592 332 q 574 238 572 267 q 583 184 576 210 q 588 132 590 158 q 567 76 585 106 q 500 13 549 47 l 472 13 q 426 24 458 13 q 361 53 394 36 q 302 91 328 71 q 276 129 276 111 q 299 174 276 144 q 356 246 322 203 q 431 344 390 289 q 510 467 472 400 l 510 481 q 521 528 510 503 q 542 577 532 553 q 553 624 551 601 q 533 663 554 646 q 497 659 525 661 q 435 656 468 657 q 369 653 401 654 q 321 651 338 651 q 220 656 272 651 q 124 674 168 660 q 51 716 79 689 q 22 788 22 743 l 22 800 q 31 811 24 804 q 47 826 38 818 q 64 840 56 833 q 78 849 72 846 l 126 849 l 275 849 l 324 849 l 386 849 l 538 849 l 568 849 q 589 845 571 849 q 627 837 607 842 q 664 828 647 832 q 682 825 681 825 q 694 828 686 825 q 712 835 703 831 q 728 843 721 839 q 740 849 736 847 l 756 849 l 768 849 l 853 833 q 783 658 813 663 q 727 644 754 654 q 682 608 700 633 q 715 578 707 592 q 724 549 724 564 q 721 519 725 535 q 717 485 717 504 "},"8":{"ha":761,"x_min":24,"x_max":735,"o":"m 735 524 q 693 691 735 632 q 582 783 651 750 q 512 812 549 796 q 437 840 475 828 q 360 860 399 853 q 288 861 322 867 q 236 847 254 856 q 208 824 218 839 q 195 786 199 810 q 186 725 192 763 q 176 615 181 671 q 176 488 172 558 q 176 388 169 433 q 155 349 167 368 q 132 304 143 329 q 81 258 104 279 q 47 222 57 236 q 29 154 36 204 q 54 61 24 103 q 115 3 88 21 l 172 3 l 306 3 q 484 13 397 3 q 638 49 571 24 q 704 125 704 71 q 693 167 704 151 q 669 194 682 182 q 644 220 656 207 q 633 254 633 233 q 649 325 633 294 q 684 385 665 356 q 719 447 703 415 q 735 524 735 479 m 474 275 q 428 168 474 231 q 381 139 403 140 q 326 143 361 135 l 292 150 q 270 184 275 175 q 265 199 265 193 l 265 207 q 265 225 261 218 q 269 250 269 232 q 279 306 269 285 q 333 336 289 336 q 369 329 346 336 q 416 312 393 322 q 456 291 439 301 q 474 275 474 281 m 540 615 q 496 494 540 564 q 449 461 468 463 q 396 465 432 458 l 361 474 q 340 512 344 501 q 335 529 335 522 l 335 539 q 335 558 331 550 q 339 586 339 567 q 349 649 339 625 q 403 683 358 683 q 439 675 415 683 q 485 656 463 667 q 524 633 507 644 q 540 615 540 621 "},"9":{"ha":763,"x_min":19,"x_max":728,"o":"m 236 724 l 236 436 q 319 442 279 436 q 391 465 360 449 q 440 511 422 482 q 458 588 458 540 q 456 665 458 638 q 440 707 453 693 q 401 724 428 721 q 329 726 375 726 l 311 726 q 281 725 299 726 q 251 724 264 724 l 236 724 m 458 78 l 464 126 l 464 308 q 314 282 383 308 q 171 256 244 256 q 122 288 142 256 q 90 361 103 319 q 72 442 78 403 q 63 497 65 482 q 55 539 60 507 q 44 608 50 571 q 35 677 39 644 q 32 722 32 710 l 19 858 l 728 858 l 711 722 q 677 709 690 722 q 657 677 664 696 q 648 639 650 658 q 646 606 646 619 q 696 525 646 542 l 656 346 l 588 13 q 581 7 588 11 q 565 -1 574 3 q 544 -10 556 -6 q 525 -15 533 -14 l 510 -15 q 458 78 489 -15 "}," ":{"ha":458,"x_min":0,"x_max":0,"o":""},"!":{"ha":458,"x_min":19,"x_max":410,"o":"m 138 549 q 140 501 138 519 q 147 470 143 482 q 157 451 151 458 q 168 435 163 443 q 183 409 176 426 q 194 360 190 392 q 217 311 200 329 q 306 317 271 300 q 354 351 342 333 q 367 397 368 369 q 367 471 367 424 q 361 504 367 493 q 349 528 356 515 q 338 558 343 540 q 332 613 332 576 q 344 687 332 660 q 370 736 356 714 q 397 783 385 758 q 410 853 410 808 q 397 923 410 899 q 363 959 385 947 q 312 973 342 971 q 247 975 282 975 l 196 975 q 138 972 168 975 q 81 961 107 969 q 37 938 54 953 q 19 897 19 922 q 44 853 19 875 q 100 806 69 831 q 156 751 131 781 q 181 682 181 721 q 174 638 181 651 q 159 614 167 624 q 144 591 151 604 q 138 549 138 578 m 183 186 l 163 17 l 236 3 q 240 7 236 7 l 328 7 q 329 3 329 7 q 332 5 329 1 q 347 29 335 8 l 361 92 l 376 124 l 376 126 q 363 157 376 140 q 349 185 349 174 l 183 186 "},"\"":{"ha":607,"x_min":19,"x_max":522,"o":"m 24 914 l 206 914 q 210 902 206 910 q 220 885 215 894 q 230 867 225 876 q 235 853 235 858 q 233 850 235 851 l 218 815 l 204 738 q 201 690 204 717 q 195 640 199 664 q 188 600 192 617 q 183 583 185 583 q 171 606 176 583 q 160 655 165 628 q 149 705 154 682 q 139 728 144 728 l 119 728 l 108 728 l 103 728 l 85 603 l 19 738 l 24 914 m 311 914 l 493 914 q 498 902 493 910 q 508 885 503 894 q 517 867 513 876 q 522 853 522 858 q 521 850 522 851 l 506 815 l 492 738 q 489 690 492 717 q 483 640 486 664 q 476 600 479 617 q 471 583 472 583 q 458 606 464 583 q 447 655 453 628 q 437 705 442 682 q 426 728 432 728 l 407 728 l 396 728 l 390 728 l 372 603 l 307 738 l 311 914 "},"#":{"ha":1058,"x_min":17,"x_max":1006,"o":"m 961 199 l 819 196 q 823 114 822 153 q 813 45 824 75 q 778 -3 803 15 q 704 -21 753 -21 q 701 53 704 21 q 692 110 697 85 q 678 155 686 135 q 664 193 671 175 l 408 189 q 411 108 411 147 q 401 40 411 69 q 365 -8 390 10 q 293 -26 340 -26 q 289 53 293 19 q 278 115 285 88 q 263 162 271 142 q 246 201 254 182 q 211 203 228 201 q 178 204 194 204 q 122 207 150 204 q 72 219 94 210 q 34 249 49 229 q 19 301 19 268 q 18 306 19 307 q 17 313 17 306 q 121 335 75 332 q 210 335 167 339 l 210 357 q 216 404 210 382 q 232 448 222 426 q 251 490 242 469 q 267 535 260 511 q 229 536 247 535 q 192 538 211 538 q 136 540 164 538 q 85 553 108 543 q 48 582 63 563 q 33 635 33 601 q 32 640 33 640 q 31 646 31 639 q 103 664 69 658 q 168 670 138 669 q 228 667 199 671 q 286 660 257 664 q 284 685 288 674 q 268 708 281 697 q 226 756 239 735 q 210 801 213 776 q 219 845 213 832 q 251 867 226 858 q 306 878 276 875 q 361 882 335 882 l 340 885 q 399 883 375 885 q 440 868 424 881 q 463 831 456 856 q 469 760 469 806 q 463 706 469 732 q 447 656 457 679 l 501 664 q 581 663 526 664 q 697 658 635 661 q 697 687 700 674 q 679 714 694 700 q 637 761 650 740 q 621 807 624 782 q 631 851 624 838 q 663 872 638 864 q 717 884 688 881 q 772 888 746 888 l 751 890 q 810 888 786 890 q 851 874 835 886 q 874 836 867 861 q 881 765 881 811 q 874 708 881 735 q 856 654 867 681 q 881 653 869 653 q 899 654 892 654 l 969 654 q 991 642 976 647 q 1006 626 1006 638 q 993 578 1006 617 q 982 549 986 560 q 975 532 978 538 l 801 528 q 788 480 793 504 q 783 428 783 456 q 786 386 783 403 q 792 358 789 369 q 800 339 796 347 q 808 322 804 331 q 853 321 833 321 q 885 321 872 321 l 956 321 q 977 309 963 314 q 992 293 992 304 q 979 244 992 283 q 968 215 972 226 q 961 199 964 204 m 621 363 q 640 446 621 407 q 675 526 660 485 l 390 521 q 377 473 382 497 q 372 422 372 449 q 375 381 372 397 q 381 353 378 364 q 389 333 385 342 q 397 317 393 325 l 400 317 l 488 331 q 542 330 507 331 q 622 328 578 329 q 621 343 621 335 q 621 363 621 353 "},"$":{"ha":688,"x_min":18,"x_max":644,"o":"m 293 254 q 297 303 293 272 q 306 369 300 333 q 317 445 311 406 q 331 524 324 485 q 315 526 324 525 q 299 526 307 526 q 282 525 286 526 q 269 522 276 524 q 251 515 261 519 q 223 512 242 513 q 175 514 204 511 q 125 553 143 526 q 98 612 107 579 q 86 678 89 644 q 83 738 83 711 l 185 851 q 242 897 218 888 q 296 907 265 907 q 294 918 294 914 q 294 931 294 924 q 310 1003 294 981 q 381 1025 326 1025 l 417 982 q 463 982 447 982 q 485 975 479 982 q 491 951 492 968 q 489 903 490 935 l 576 903 q 610 874 586 894 q 626 855 619 863 q 639 842 633 847 q 640 835 639 842 q 642 825 642 829 q 640 817 642 822 q 639 811 639 811 q 624 790 632 801 q 606 767 617 779 q 576 738 582 738 l 471 738 q 462 690 467 714 q 451 640 457 665 q 525 602 490 624 q 586 553 560 581 q 628 495 613 526 q 644 426 644 464 q 583 276 644 363 q 440 110 515 182 q 460 22 449 65 q 470 -54 471 -21 q 450 -108 469 -87 q 379 -129 431 -129 q 373 -33 379 -72 q 356 35 367 6 q 313 3 333 18 q 269 -28 292 -12 q 129 -87 181 -87 q 98 -81 117 -87 q 62 -63 79 -74 q 31 -39 44 -53 q 18 -10 18 -25 q 19 1 18 -3 q 21 4 21 4 q 33 13 24 8 q 52 21 42 17 q 72 29 63 25 q 83 36 81 33 q 103 51 89 38 q 125 71 113 60 q 148 92 138 82 q 166 112 158 103 q 175 125 174 121 q 177 131 175 125 q 179 140 179 138 q 232 189 203 164 q 293 239 261 214 l 293 254 m 421 489 q 419 490 419 489 q 418 490 418 490 q 403 404 408 444 q 397 333 397 364 l 397 321 q 440 353 419 338 q 478 381 460 368 q 421 489 478 453 m 238 692 q 290 685 261 690 q 350 674 319 681 l 350 682 q 349 710 350 697 q 344 738 347 724 l 238 738 l 238 692 "},"%":{"ha":1238,"x_min":35,"x_max":1175,"o":"m 781 482 q 785 507 781 496 q 797 527 790 518 q 808 545 803 536 q 814 563 814 554 q 825 597 814 571 q 854 638 836 622 q 885 657 868 651 q 917 671 903 663 q 942 697 932 679 q 950 756 951 715 l 950 803 l 774 851 l 746 851 q 738 842 742 850 q 729 824 733 833 q 721 808 725 815 q 713 801 717 801 l 711 801 q 633 685 643 725 q 622 644 628 665 q 608 604 615 624 q 515 482 593 561 l 515 469 q 447 384 490 424 q 351 310 403 344 q 246 249 299 276 q 149 199 193 221 q 78 160 106 176 q 51 133 51 144 q 83 94 51 115 q 155 56 114 74 q 234 25 196 38 q 286 13 272 13 l 314 13 q 395 76 363 47 q 451 133 428 106 q 492 188 475 161 q 529 242 510 214 q 572 303 549 271 q 631 375 596 336 q 672 401 646 393 q 722 418 699 410 q 781 482 747 426 m 513 669 q 512 677 513 672 q 511 682 511 682 l 350 868 l 215 868 l 214 868 l 196 868 l 35 682 l 35 669 l 35 667 q 43 635 35 650 q 62 608 51 621 q 81 583 72 596 q 89 558 89 571 l 89 543 q 93 517 89 535 q 99 510 99 511 q 94 499 99 506 q 90 474 90 493 l 90 465 q 97 448 93 458 q 103 435 100 438 l 108 435 q 160 431 136 435 q 211 425 183 428 l 213 424 q 215 422 214 424 l 247 422 l 257 422 l 289 422 q 331 424 313 422 q 367 428 350 426 q 402 433 385 431 q 439 435 419 435 l 444 435 q 450 448 446 438 q 457 465 454 458 l 457 474 q 453 499 457 493 q 449 510 449 506 q 454 517 449 513 q 458 543 458 535 q 457 558 457 551 q 465 583 457 571 q 484 608 474 596 q 503 635 494 621 q 513 667 513 650 l 513 669 m 279 524 l 215 522 q 187 538 199 524 q 169 572 175 553 q 160 610 163 590 q 157 644 157 631 l 157 660 l 271 788 l 278 788 l 392 660 q 392 654 392 660 q 393 644 393 649 q 390 610 393 631 q 381 572 388 590 q 363 538 374 553 q 335 522 351 524 l 279 522 l 279 524 m 1175 257 q 1174 265 1175 260 q 1174 269 1174 269 l 1013 456 l 878 456 l 876 456 l 858 456 l 697 269 l 697 257 l 697 254 q 706 223 697 238 q 724 196 714 208 q 743 171 735 183 q 751 146 751 158 l 751 131 q 756 104 751 122 q 761 97 761 99 q 757 87 761 93 q 753 61 753 81 l 753 53 q 759 35 756 46 q 765 22 763 25 l 771 22 q 822 19 799 22 q 874 13 846 15 l 875 11 q 878 10 876 11 l 910 10 l 919 10 l 951 10 q 994 12 975 10 q 1030 16 1013 14 q 1065 20 1047 18 q 1101 22 1082 22 l 1107 22 q 1113 35 1108 25 q 1119 53 1117 46 l 1119 61 q 1115 87 1119 81 q 1111 97 1111 93 q 1117 104 1111 100 q 1120 131 1121 122 q 1119 146 1119 139 q 1128 171 1119 158 q 1147 196 1136 183 q 1166 223 1157 208 q 1175 254 1175 238 l 1175 257 m 942 111 l 878 110 q 849 126 861 111 q 831 159 838 140 q 822 198 825 178 q 819 232 819 218 l 819 247 l 933 375 l 940 375 l 1054 247 q 1055 242 1054 247 q 1056 232 1056 236 q 1053 198 1056 218 q 1043 159 1050 178 q 1025 126 1036 140 q 997 110 1014 111 l 942 110 l 942 111 "},"&":{"ha":889,"x_min":24,"x_max":856,"o":"m 113 718 q 108 695 110 711 q 106 665 106 679 l 106 649 q 116 604 106 621 q 139 575 126 588 q 162 550 151 563 q 172 519 172 538 q 158 488 172 500 q 126 464 143 475 q 95 439 110 453 q 81 403 81 425 q 85 365 81 383 q 99 332 89 347 q 125 306 108 317 q 168 292 142 296 q 138 294 161 296 q 89 284 114 292 q 44 264 64 276 q 24 233 24 251 q 47 199 24 210 q 99 180 69 188 q 158 167 129 172 q 199 151 186 161 q 239 81 233 117 q 263 18 246 43 q 324 -22 274 -7 q 489 -35 367 -35 q 483 14 489 -4 q 466 42 476 32 q 442 54 456 51 q 413 57 428 57 l 385 57 q 351 65 365 57 q 336 106 336 74 q 347 143 336 125 q 396 161 358 161 l 856 161 q 811 256 856 219 q 697 292 767 292 l 679 292 l 510 272 l 493 272 l 482 272 q 460 283 476 272 q 426 306 444 293 q 390 330 407 319 q 368 340 374 340 q 333 346 358 342 q 281 354 308 350 q 230 362 254 358 q 199 365 206 365 l 199 386 q 331 410 275 392 q 428 456 388 428 q 497 518 468 483 q 547 590 525 553 q 585 665 565 629 q 629 729 604 701 q 687 774 654 757 q 765 790 719 790 q 706 858 739 843 q 624 872 672 872 q 591 871 613 872 q 565 867 569 869 q 534 844 558 863 q 482 806 510 825 q 453 785 467 794 q 429 764 440 775 q 396 744 403 744 q 379 742 389 743 q 354 742 369 742 q 284 743 322 742 q 213 744 246 744 l 168 744 q 156 741 164 744 q 138 733 147 738 q 122 725 129 729 q 113 718 114 721 m 231 593 q 254 640 231 629 q 272 649 265 646 q 282 653 279 651 q 296 657 285 656 q 310 658 307 658 q 326 557 367 597 q 231 593 289 518 m 263 233 q 206 265 206 233 q 263 304 206 304 q 322 265 322 304 q 263 233 322 233 "},"'":{"ha":281,"x_min":19,"x_max":235,"o":"m 24 914 l 19 738 l 85 603 l 103 728 l 108 728 l 119 728 l 139 728 q 149 705 144 728 q 160 655 154 682 q 171 606 165 628 q 183 583 176 583 q 188 600 185 583 q 195 640 192 617 q 201 690 199 664 q 204 738 204 717 l 218 815 l 233 850 q 235 853 235 851 q 230 868 235 860 q 220 885 225 876 q 210 902 215 894 q 206 914 206 910 l 24 914 "},"(":{"ha":775,"x_min":47,"x_max":646,"o":"m 47 383 q 49 369 47 379 q 51 358 51 358 l 461 -96 l 568 -106 q 601 -96 581 -106 q 629 -78 621 -86 q 638 -57 635 -68 q 646 -33 642 -46 l 646 -29 q 590 6 646 -6 l 526 68 l 329 386 q 327 400 329 386 q 325 422 325 414 q 330 476 325 443 q 344 546 335 508 q 369 622 354 583 q 403 690 383 660 q 447 740 422 721 q 503 761 472 760 l 581 808 q 593 858 581 840 q 606 889 606 875 q 595 906 606 899 q 554 925 585 914 q 510 924 526 925 q 481 922 494 924 q 451 917 467 919 q 408 910 435 914 q 268 840 301 894 q 232 742 236 781 q 227 715 231 731 q 219 683 224 699 q 212 655 215 667 q 208 642 208 643 q 183 573 208 603 q 128 515 158 543 q 72 456 97 486 q 47 383 47 425 "},")":{"ha":775,"x_min":46,"x_max":644,"o":"m 644 383 q 642 369 644 379 q 640 358 640 358 l 231 -96 l 124 -106 q 91 -96 111 -106 q 63 -78 71 -86 q 53 -57 57 -68 q 46 -33 50 -46 l 46 -29 q 101 6 46 -6 l 165 68 l 363 386 q 365 400 363 386 q 367 422 367 414 q 362 476 367 443 q 347 546 357 508 q 323 622 338 583 q 289 690 308 660 q 244 740 269 721 q 189 761 219 760 l 111 808 q 99 858 111 840 q 86 889 86 875 q 97 906 86 899 q 138 925 107 914 q 181 924 165 925 q 211 922 197 924 q 241 917 225 919 q 283 910 257 914 q 424 840 390 894 q 460 742 456 781 q 465 715 461 731 q 472 683 468 699 q 480 655 476 667 q 483 642 483 643 q 508 573 483 603 q 564 515 533 543 q 619 456 594 486 q 644 383 644 425 "},"*":{"ha":406,"x_min":21,"x_max":369,"o":"m 193 926 l 243 808 q 299 826 269 819 q 347 833 328 833 q 369 825 369 833 q 336 799 369 817 l 243 749 l 261 725 q 262 685 261 706 q 264 647 263 665 q 266 616 265 629 q 267 599 267 603 l 267 597 q 247 617 260 597 q 219 661 233 638 q 192 703 204 685 q 178 717 181 721 l 147 676 l 54 582 l 135 744 l 21 838 l 139 818 l 193 926 "},"+":{"ha":846,"x_min":28,"x_max":800,"o":"m 769 356 l 519 342 l 492 114 q 336 108 399 83 l 317 339 q 247 353 290 328 q 206 354 226 353 q 167 356 186 356 q 114 360 139 356 q 70 378 89 365 q 40 412 51 390 q 28 467 28 433 q 29 489 28 472 q 31 513 31 506 q 69 524 50 519 q 107 535 88 529 q 336 536 142 544 l 342 742 q 514 761 436 811 l 511 519 q 551 508 536 513 q 576 501 567 504 q 590 498 585 499 q 599 497 594 497 q 616 499 604 497 q 642 505 628 501 q 671 510 656 508 q 699 513 686 513 l 769 513 q 778 500 774 508 q 788 483 783 492 q 797 465 793 474 q 800 450 800 456 q 788 401 800 440 q 776 372 781 383 q 769 356 772 361 "},",":{"ha":281,"x_min":0,"x_max":228,"o":"m 18 192 l 15 15 l 0 -219 l 107 -15 l 133 6 l 135 6 l 135 3 q 131 -35 135 -7 q 128 -85 128 -62 q 129 -103 128 -96 q 135 -110 131 -110 q 147 -98 136 -110 q 168 -67 157 -86 q 189 -27 179 -49 q 199 15 199 -6 l 213 93 l 228 128 l 228 131 q 214 163 228 144 q 200 192 200 182 l 18 192 "},"-":{"ha":846,"x_min":28,"x_max":800,"o":"m 769 356 l 250 338 q 249 344 250 339 q 247 353 247 349 q 206 354 226 353 q 167 356 186 356 q 114 360 139 356 q 70 378 89 365 q 40 412 51 390 q 28 467 28 433 q 29 489 28 472 q 31 513 31 506 q 136 535 89 532 q 226 535 183 539 q 315 524 269 531 q 414 517 360 517 l 482 517 q 591 515 533 517 q 699 513 649 513 l 769 513 q 778 500 774 508 q 788 483 783 492 q 797 465 793 474 q 800 450 800 456 q 788 401 800 440 q 776 372 781 383 q 769 356 772 361 "},".":{"ha":292,"x_min":21,"x_max":235,"o":"m 25 193 l 207 193 q 211 180 207 188 q 221 164 215 172 q 231 147 226 156 q 235 132 235 139 l 235 129 l 219 94 l 206 29 q 190 3 193 7 q 188 1 188 0 q 186 6 188 6 l 99 6 q 94 1 94 6 l 21 15 l 25 193 "},"/":{"ha":994,"x_min":51,"x_max":951,"o":"m 781 482 q 722 418 747 426 q 672 401 699 410 q 631 375 646 393 q 572 303 596 336 q 529 242 549 271 q 492 188 510 214 q 451 133 475 161 q 395 76 428 106 q 314 13 363 47 l 286 13 q 234 25 272 13 q 155 56 196 38 q 83 94 114 74 q 51 133 51 115 q 78 160 51 144 q 149 199 106 176 q 246 249 193 221 q 351 310 299 276 q 447 384 403 344 q 515 469 490 424 l 515 482 q 608 604 593 561 q 622 644 615 624 q 633 685 628 665 q 711 801 643 724 l 713 801 q 721 808 717 801 q 729 824 725 815 q 738 842 733 833 q 746 851 742 850 l 774 851 l 950 803 l 950 756 q 942 697 951 715 q 917 670 932 679 q 885 656 901 661 q 854 638 868 651 q 825 597 836 622 q 814 563 814 571 q 808 545 814 554 q 797 527 803 536 q 785 507 790 518 q 781 482 781 496 "},":":{"ha":292,"x_min":21,"x_max":246,"o":"m 25 193 l 21 15 l 94 1 q 99 6 94 6 l 186 6 q 188 1 188 6 q 190 3 188 0 q 206 29 193 7 l 219 94 l 235 129 l 235 132 q 231 147 235 139 q 221 164 226 156 q 211 180 215 172 q 207 193 207 188 l 25 193 m 36 599 l 32 421 l 106 407 q 110 411 106 411 l 197 411 q 199 407 199 411 q 201 409 199 406 q 217 435 204 413 l 231 500 l 246 535 l 246 538 q 242 553 246 544 q 232 569 238 561 q 222 585 226 578 q 218 599 218 593 l 36 599 "},";":{"ha":292,"x_min":11,"x_max":246,"o":"m 36 599 l 32 421 l 106 407 q 110 411 106 411 l 197 411 q 199 407 199 411 q 201 409 199 406 q 217 435 204 413 l 231 500 l 246 535 l 246 538 q 242 553 246 544 q 232 569 238 561 q 222 585 226 578 q 218 599 218 593 l 36 599 m 29 192 l 211 192 q 225 163 211 182 q 239 131 239 144 l 239 128 l 224 93 l 210 15 q 200 -27 210 -6 q 179 -67 190 -49 q 158 -98 168 -86 q 146 -110 147 -110 q 139 -85 139 -110 q 142 -35 139 -62 q 146 3 146 -7 l 146 6 l 144 6 l 118 -15 l 11 -219 l 26 15 l 29 192 "},"<":{"ha":958,"x_min":51,"x_max":888,"o":"m 640 92 l 414 101 q 336 122 396 118 q 315 149 324 138 q 301 168 307 161 q 260 224 278 199 q 225 269 242 249 q 192 308 208 290 q 156 342 175 325 l 143 342 q 81 365 110 342 q 51 422 51 388 l 51 426 l 51 431 q 53 433 51 432 q 53 437 53 436 q 54 438 54 438 q 63 443 57 440 q 101 478 85 468 q 143 511 119 490 l 156 511 q 192 545 175 528 q 224 583 208 563 q 259 628 240 604 q 301 685 278 653 q 315 703 307 692 q 336 731 324 715 q 363 761 358 761 l 640 761 q 696 850 665 824 q 779 876 726 876 q 864 826 840 876 q 888 725 888 768 l 888 654 q 736 604 783 606 q 671 622 690 603 q 656 624 667 622 q 633 626 644 625 q 610 628 621 626 q 594 629 599 629 q 506 624 518 629 q 428 538 449 558 q 406 512 417 525 q 385 485 396 499 q 358 454 371 469 q 331 425 344 439 q 352 395 342 411 q 372 360 363 379 q 415 311 392 338 q 469 268 439 285 q 594 224 526 224 q 610 225 599 224 q 633 227 621 226 q 656 229 644 228 q 671 231 667 231 q 768 258 690 251 q 888 199 847 264 l 888 128 q 864 26 888 85 q 779 -24 840 -24 q 742 43 772 18 q 640 92 711 68 "},"=":{"ha":767,"x_min":29,"x_max":717,"o":"m 686 201 q 693 218 689 207 q 704 247 697 229 q 717 296 717 286 q 713 310 717 301 q 705 328 710 319 q 695 346 700 338 q 686 358 690 354 l 615 358 q 508 360 565 358 q 399 363 450 363 l 415 363 q 316 369 361 363 q 228 381 271 376 q 138 381 185 385 q 32 358 90 378 q 31 335 32 351 q 29 313 29 318 q 41 258 29 279 q 72 224 53 236 q 115 206 90 211 q 168 201 140 201 q 208 200 188 201 q 249 199 228 199 q 250 190 249 194 q 251 183 251 185 l 686 201 m 686 493 q 693 510 689 499 q 704 539 697 521 q 717 588 717 578 q 713 602 717 593 q 705 620 710 611 q 695 638 700 629 q 686 650 690 646 l 615 650 q 508 652 565 650 q 399 654 450 654 l 415 654 q 316 661 361 654 q 228 672 271 668 q 138 673 185 676 q 32 650 90 669 q 31 626 32 643 q 29 604 29 610 q 41 549 29 571 q 72 515 53 528 q 115 498 90 503 q 168 493 140 493 q 208 492 188 493 q 249 490 228 490 q 250 481 249 486 q 251 475 251 476 l 686 493 "},">":{"ha":958,"x_min":51,"x_max":888,"o":"m 299 92 l 525 101 q 603 122 543 118 q 624 149 615 138 q 638 168 632 161 q 679 224 661 199 q 714 269 697 249 q 747 308 731 290 q 783 342 764 325 l 796 342 q 858 365 829 342 q 888 422 888 388 l 888 426 l 888 431 q 886 433 888 432 q 885 437 886 436 q 885 438 885 438 q 876 443 882 440 q 838 478 854 468 q 796 511 818 490 l 783 511 q 747 545 764 528 q 715 583 731 563 q 680 628 699 604 q 638 685 661 653 q 624 703 632 692 q 603 731 615 715 q 576 761 581 761 l 299 761 q 243 850 274 824 q 160 876 213 876 q 75 826 97 876 q 51 725 51 768 l 51 654 q 203 604 156 606 q 268 622 249 603 q 283 624 272 622 q 306 626 294 625 q 329 628 318 626 q 344 629 340 629 q 433 624 421 629 q 511 538 489 558 q 533 512 522 525 q 554 485 543 499 q 581 454 568 469 q 608 425 594 439 q 587 395 597 411 q 567 360 576 379 q 524 311 547 338 q 469 268 500 285 q 344 224 413 224 q 329 225 340 224 q 306 227 318 226 q 283 229 294 228 q 268 231 272 231 q 171 258 249 251 q 51 199 92 264 l 51 128 q 75 26 51 85 q 160 -24 97 -24 q 197 43 167 18 q 299 92 228 68 "},"?":{"ha":615,"x_min":17,"x_max":578,"o":"m 363 535 q 240 497 296 535 q 183 389 183 461 q 132 336 174 360 q 54 335 93 314 q 17 435 17 357 q 60 547 17 499 q 165 628 103 594 q 299 679 229 661 q 433 689 369 697 l 389 772 l 85 746 q 56 775 78 746 q 37 799 44 788 q 22 819 29 810 q 21 825 22 819 q 19 833 19 831 q 21 844 19 838 q 22 850 22 850 q 35 863 28 856 q 51 882 42 871 q 85 911 74 903 l 269 911 q 327 913 303 911 q 371 915 351 915 q 422 905 399 915 q 476 860 444 894 l 578 746 q 575 686 578 719 q 563 620 572 653 q 535 561 554 588 q 486 522 517 535 q 463 520 474 521 q 444 519 453 519 q 399 525 410 519 q 379 533 389 531 q 363 535 376 535 m 38 179 l 206 179 q 218 153 206 171 q 231 125 231 136 l 231 122 l 217 92 l 204 32 q 190 9 193 13 q 188 7 188 6 q 186 11 188 11 l 106 11 q 101 7 101 11 l 35 19 l 38 179 "},"@":{"ha":939,"x_min":39,"x_max":894,"o":"m 39 478 q 41 492 39 482 q 43 503 43 503 l 444 876 l 783 876 q 816 867 796 876 q 844 849 836 857 q 853 828 850 839 q 861 804 857 817 l 861 800 q 852 670 861 788 q 825 328 843 553 l 639 264 q 443 322 503 261 q 486 494 383 382 q 644 483 567 561 l 700 772 l 629 778 l 321 475 q 319 461 321 475 q 317 439 317 447 q 324 358 317 407 q 351 264 332 310 q 399 184 369 218 q 475 149 429 150 l 894 149 q 862 53 894 96 q 783 -15 829 10 l 599 -15 q 492 -11 539 -15 q 401 -3 444 -7 q 316 6 358 1 q 224 10 274 10 l 211 10 q 206 18 210 11 q 198 35 203 25 q 188 54 193 44 q 181 71 183 64 l 181 86 q 183 118 181 106 q 190 138 186 131 q 197 150 194 146 q 200 158 200 154 q 186 174 200 165 q 176 226 175 208 q 178 256 178 243 q 156 306 178 282 q 108 356 135 331 q 60 410 82 382 q 39 472 39 438 l 39 478 "},"A":{"ha":951,"x_min":26,"x_max":922,"o":"m 829 158 q 872 135 854 144 q 900 116 889 126 q 917 93 911 106 q 922 60 922 81 q 917 27 922 43 q 889 4 911 11 q 734 7 810 10 q 586 -7 658 4 q 436 -23 510 -17 q 282 -29 363 -29 l 244 -29 q 186 -28 218 -29 q 128 -26 154 -26 l 90 -26 q 32 -7 42 -33 q 28 20 29 7 q 26 46 26 33 l 26 51 q 27 72 26 63 q 31 85 28 81 q 112 147 82 115 q 163 210 142 179 q 201 270 183 240 q 246 326 218 300 q 307 397 272 353 q 369 493 342 442 q 389 557 397 546 q 351 593 382 571 q 283 652 307 626 q 244 697 258 678 q 221 731 231 717 q 197 754 211 744 q 150 777 179 768 q 58 794 121 786 l 58 808 q 73 841 58 831 q 108 854 88 851 q 149 856 128 857 q 182 856 169 856 l 242 856 q 313 841 281 856 q 386 794 344 826 q 498 704 454 746 q 580 626 542 663 q 661 555 618 589 q 771 488 704 521 q 786 477 778 483 q 807 461 794 471 q 829 436 829 443 l 829 158 m 481 500 l 469 436 l 442 386 q 420 324 431 347 q 406 271 410 301 q 396 217 401 242 q 386 185 390 192 q 407 160 389 167 q 447 151 425 153 q 487 152 468 150 q 510 154 506 154 q 627 183 596 154 q 658 285 658 213 l 658 306 l 658 317 q 657 329 658 328 q 653 363 654 360 q 599 414 650 379 q 542 457 572 435 q 481 500 511 479 "},"B":{"ha":904,"x_min":17,"x_max":860,"o":"m 406 106 l 406 -8 l 369 -8 q 289 0 306 -10 l 264 25 q 243 53 250 40 q 244 92 243 67 q 244 150 244 117 q 245 220 244 182 q 246 296 246 258 q 245 375 246 336 q 244 447 244 414 q 244 507 244 482 q 243 546 243 532 q 226 660 239 613 q 168 711 214 708 q 72 719 122 715 q 17 814 24 725 l 51 856 q 133 857 89 856 q 218 858 178 858 l 274 858 l 399 858 q 582 853 490 858 q 767 824 674 847 q 774 801 771 818 q 776 778 776 783 q 708 724 776 733 q 644 674 642 714 q 781 558 647 633 q 860 361 860 475 q 845 261 860 306 q 803 176 831 217 q 721 97 775 135 q 592 53 668 58 l 511 56 q 406 106 461 71 m 743 400 q 658 388 685 414 q 588 322 617 356 q 541 259 558 289 q 517 205 524 229 q 517 167 511 181 q 713 296 618 214 q 743 400 747 356 m 639 532 q 490 482 558 532 q 422 347 422 435 q 483 367 446 347 q 554 414 519 386 q 614 474 589 442 q 639 532 639 507 m 561 675 q 493 707 536 708 q 423 693 451 707 q 394 639 394 679 q 395 633 394 636 q 396 622 396 631 q 394 601 396 615 q 389 561 393 586 q 439 599 417 583 q 479 624 461 614 q 585 642 514 642 l 561 675 z "},"C":{"ha":939,"x_min":39,"x_max":894,"o":"m 39 383 q 41 369 39 379 q 43 358 43 358 l 444 -15 l 783 -15 q 816 -6 796 -15 q 844 13 836 4 q 853 33 850 22 q 861 57 857 44 l 861 61 q 806 96 861 86 l 629 83 l 321 386 q 319 400 321 386 q 317 422 317 414 q 324 502 317 453 q 351 597 332 551 q 399 677 369 643 q 475 713 429 711 l 894 713 q 862 808 894 765 q 783 876 829 851 l 599 876 q 492 872 539 876 q 401 864 444 868 q 316 856 358 860 q 224 851 274 851 l 211 851 q 206 843 210 850 q 198 826 203 836 q 188 806 193 817 q 181 790 183 796 l 181 775 q 183 743 181 756 q 190 723 186 731 q 197 711 194 715 q 200 703 200 707 q 186 688 200 696 q 176 635 175 653 q 178 606 178 618 q 156 555 178 579 q 108 505 135 531 q 60 451 82 479 q 39 389 39 424 l 39 383 "},"D":{"ha":988,"x_min":28,"x_max":933,"o":"m 842 168 q 884 144 867 154 q 913 123 901 133 q 928 100 924 113 q 933 67 933 88 q 930 33 933 49 q 901 8 926 17 q 745 11 821 14 q 594 -3 669 8 q 443 -20 518 -14 q 288 -26 368 -26 l 249 -26 q 190 -25 221 -26 q 132 -24 160 -24 l 93 -24 q 36 -3 44 -26 q 28 51 28 24 l 28 61 q 28 78 28 68 q 32 92 29 88 q 113 157 76 119 q 167 222 140 185 q 172 453 189 253 q 159 619 164 553 q 153 721 154 685 q 128 808 150 792 q 85 831 107 825 q 61 839 63 835 q 60 857 60 843 q 75 879 60 868 q 101 891 86 888 q 132 895 117 894 q 162 895 147 896 q 186 894 176 894 l 246 894 q 317 879 285 894 q 392 832 349 864 q 506 738 461 781 q 590 656 551 694 q 672 583 629 618 q 782 511 715 547 q 819 486 796 504 q 842 458 842 465 l 842 168 m 328 511 l 342 347 q 349 253 346 296 q 356 178 353 211 q 414 170 394 178 q 454 163 433 163 q 495 163 476 161 q 518 164 514 164 q 639 178 610 164 q 668 301 672 192 l 668 321 q 667 334 668 328 q 665 347 665 340 q 663 371 664 363 q 663 381 663 379 q 607 435 661 396 q 544 478 575 453 q 482 538 514 503 q 319 683 419 606 l 317 656 l 328 511 "},"E":{"ha":1028,"x_min":29,"x_max":976,"o":"m 838 785 q 819 718 838 749 q 794 709 817 714 q 739 699 772 704 q 665 690 706 694 q 582 681 624 685 q 502 676 540 678 q 438 674 464 674 q 409 674 419 674 q 393 676 399 675 l 393 464 q 475 472 436 464 q 552 490 514 481 q 629 508 590 500 q 710 517 668 517 q 769 493 746 517 q 808 432 793 469 q 809 419 813 422 q 797 413 806 415 q 777 406 789 410 q 753 393 765 403 q 644 367 704 353 q 531 369 585 378 q 435 334 476 361 q 368 261 393 307 q 343 151 343 215 l 639 151 q 767 156 739 156 q 825 151 793 156 q 866 132 846 143 q 904 109 886 121 q 938 88 922 97 q 963 72 953 78 q 917 -3 976 60 l 125 -6 q 78 7 115 -6 q 51 18 61 14 q 32 25 40 22 q 31 31 32 25 q 29 42 29 38 q 78 90 29 83 q 82 94 90 92 q 62 97 74 96 q 44 100 50 99 q 53 101 38 101 q 161 118 113 103 q 210 199 210 135 q 206 255 210 232 q 176 306 201 278 q 151 316 161 306 q 125 335 140 326 q 108 348 118 338 q 93 365 97 358 q 85 411 86 382 q 83 434 83 426 q 82 442 82 442 l 176 444 q 181 501 178 463 q 192 585 185 539 q 213 681 200 632 q 247 769 226 729 q 294 835 267 810 q 361 861 322 861 q 427 860 383 861 q 524 857 471 860 q 633 849 576 854 q 734 836 689 844 q 808 815 779 828 q 838 785 838 803 "},"F":{"ha":1147,"x_min":32,"x_max":1113,"o":"m 631 101 q 497 -6 631 -6 q 431 20 458 -6 q 383 86 403 46 q 349 175 363 126 q 328 270 336 224 q 317 355 321 317 q 313 411 314 393 l 85 411 q 85 419 85 411 q 88 442 86 426 q 96 488 89 471 q 110 505 100 494 q 128 518 121 515 q 163 528 136 522 q 220 538 189 533 q 278 547 251 543 q 313 550 304 550 q 342 601 338 578 q 346 657 346 624 q 297 738 346 721 q 189 754 249 751 q 81 763 128 756 q 32 811 32 769 q 33 822 32 815 q 35 828 35 828 q 53 835 43 831 q 81 846 64 839 q 128 858 118 858 l 1053 858 q 1099 783 1113 796 q 1074 768 1089 778 q 1040 747 1058 758 q 1002 724 1022 735 q 961 704 982 713 q 903 700 929 700 q 775 704 875 700 l 479 704 q 504 594 479 640 q 571 522 529 549 q 667 486 613 494 q 781 489 721 478 q 889 463 840 503 q 921 385 935 424 q 882 324 906 347 q 822 300 858 300 q 746 315 781 300 q 677 346 711 329 q 608 377 643 363 q 529 392 572 392 l 529 179 q 613 168 590 199 q 631 101 631 138 "},"G":{"ha":963,"x_min":28,"x_max":933,"o":"m 119 178 q 77 156 94 165 q 49 135 60 146 q 33 111 38 125 q 28 76 28 97 q 32 43 28 60 q 60 18 36 26 q 216 21 140 24 q 367 8 292 18 q 518 -9 443 -3 q 674 -15 593 -15 l 713 -15 q 772 -14 740 -15 q 831 -12 803 -12 l 868 -12 q 926 8 915 -19 q 933 63 933 40 l 933 72 q 933 88 933 78 q 929 103 932 99 q 848 166 879 133 q 795 231 817 199 q 756 295 774 264 q 710 353 738 326 q 644 403 683 381 q 539 442 604 426 l 539 418 l 539 389 q 542 353 539 379 q 550 296 546 326 q 560 240 554 265 q 569 207 565 214 q 548 181 567 188 q 507 172 529 174 q 465 172 485 169 q 443 174 446 174 q 325 206 356 174 q 294 311 294 238 l 294 331 l 294 344 q 296 356 294 353 q 298 379 297 371 q 299 389 299 388 q 354 443 301 408 q 472 536 406 486 q 603 628 539 586 q 673 690 649 663 q 712 737 697 717 q 735 772 726 757 q 760 796 744 786 q 810 818 779 808 q 899 836 840 828 q 900 844 899 839 q 901 851 901 849 q 886 885 901 874 q 850 899 871 896 q 808 901 829 901 q 776 900 788 900 l 715 900 q 644 885 676 900 q 569 836 613 869 q 456 744 500 786 q 372 663 411 701 q 289 589 332 624 q 179 519 246 554 q 143 493 165 514 q 119 467 119 474 l 119 178 "},"H":{"ha":1031,"x_min":31,"x_max":1000,"o":"m 472 533 q 540 589 508 565 q 597 628 571 613 q 739 661 651 661 q 813 656 803 661 q 833 644 818 653 q 872 621 847 636 q 951 518 922 592 q 976 451 967 482 q 988 393 985 419 q 998 288 996 340 q 1000 189 1000 235 q 994 120 1000 156 q 972 54 988 85 q 930 4 957 24 q 861 -15 903 -15 q 853 63 861 32 q 832 115 844 93 q 806 151 819 136 q 779 183 792 167 q 758 220 767 200 q 750 272 750 240 q 760 313 750 297 q 783 344 771 329 q 805 374 794 358 q 815 411 815 389 q 815 440 815 425 q 813 471 814 454 q 769 521 811 506 q 703 537 728 536 q 654 538 678 538 q 620 519 643 538 q 569 471 597 500 q 513 406 542 442 q 459 338 483 371 q 419 278 435 304 q 404 239 404 251 q 405 217 404 235 q 411 194 406 200 q 485 183 465 189 q 515 164 506 178 q 532 121 526 149 q 536 8 538 92 l 31 11 q 99 129 56 128 q 164 133 142 133 q 206 168 190 143 q 231 229 222 193 q 243 309 240 265 q 246 401 246 353 q 245 483 246 442 q 243 565 244 524 q 243 696 242 649 q 256 767 244 743 l 86 767 l 108 872 q 272 874 210 874 q 364 874 336 874 l 378 874 q 458 870 399 872 q 614 864 517 868 q 603 753 728 858 l 381 753 q 398 665 389 701 q 417 604 407 628 q 472 533 435 560 "},"I":{"ha":494,"x_min":28,"x_max":447,"o":"m 369 500 q 359 442 369 469 q 336 387 349 414 q 313 332 324 360 q 303 272 303 304 q 327 201 303 232 q 381 144 351 171 q 428 99 411 119 q 447 56 444 78 q 433 13 442 31 q 399 -12 425 -4 q 344 -25 374 -22 q 288 -28 314 -28 l 238 -28 q 165 -26 201 -28 q 97 -12 128 -24 q 47 25 67 0 q 28 96 28 50 q 43 182 28 142 q 77 262 58 222 q 112 343 96 301 q 128 433 128 385 q 122 488 128 469 q 110 519 117 507 q 99 544 104 532 q 94 578 94 556 q 101 685 94 631 q 126 784 107 740 q 184 856 146 828 q 285 883 222 883 q 298 749 285 797 q 327 666 311 701 q 356 595 343 631 q 369 500 369 560 "},"J":{"ha":1000,"x_min":28,"x_max":950,"o":"m 781 482 q 764 440 781 453 q 723 418 747 426 q 674 401 699 410 q 632 374 649 393 q 550 271 579 315 q 493 186 521 226 q 426 105 465 146 q 314 13 386 64 l 286 13 q 234 25 272 13 q 155 56 196 38 q 83 94 114 74 q 51 133 51 115 q 78 160 51 144 q 149 199 106 176 q 246 249 193 221 q 351 310 299 276 q 447 384 403 344 q 515 469 490 424 l 515 482 q 492 577 515 528 q 428 661 468 626 q 385 656 411 658 q 326 654 358 654 q 226 658 278 654 q 129 676 174 663 q 56 717 85 690 q 28 790 28 744 l 28 803 q 36 814 29 807 q 52 828 43 821 q 69 842 61 836 q 83 851 78 849 l 132 851 l 281 851 l 329 851 l 392 851 l 543 851 l 574 851 q 594 848 576 851 q 633 840 613 844 q 669 831 653 835 q 688 828 686 828 q 700 831 692 828 q 717 838 708 833 q 735 846 726 842 q 746 851 743 850 l 761 851 l 774 851 l 950 803 l 950 756 q 935 703 950 721 q 898 677 921 685 q 847 667 875 669 q 789 660 818 664 q 733 645 760 656 q 688 611 706 635 q 759 550 738 578 q 781 482 781 522 "},"K":{"ha":735,"x_min":11,"x_max":694,"o":"m 415 575 q 488 654 435 622 q 599 710 540 686 q 674 767 654 735 q 683 861 694 800 q 489 796 606 858 q 428 765 458 781 q 369 732 399 749 q 312 685 342 717 q 250 606 282 653 q 244 701 246 660 q 243 769 242 742 q 149 822 244 825 q 97 778 96 815 q 93 699 99 738 q 90 676 92 694 q 85 631 88 657 q 81 574 83 606 q 75 514 78 543 q 70 455 72 485 q 66 400 68 425 q 63 356 64 375 q 61 329 61 338 q 53 285 58 311 q 44 234 49 258 q 35 192 39 210 q 29 175 31 175 q 13 63 14 125 q 110 4 11 0 q 251 42 211 8 q 254 143 293 78 l 254 390 q 335 285 303 356 q 381 -3 368 215 q 510 19 461 8 q 579 40 560 31 q 593 92 619 61 q 564 126 581 107 q 528 167 547 144 l 515 197 q 490 333 514 222 q 413 468 440 439 q 419 528 389 496 q 415 575 410 557 "},"L":{"ha":914,"x_min":22,"x_max":853,"o":"m 100 381 q 122 314 100 342 q 193 253 143 286 q 148 217 175 228 q 92 203 121 207 q 22 28 61 199 l 107 13 l 119 13 l 135 13 q 147 18 139 14 q 163 26 154 22 q 181 33 172 31 q 193 36 189 36 q 211 33 194 36 q 248 24 228 29 q 286 16 268 19 q 307 13 304 13 l 338 13 l 489 13 l 551 13 l 600 13 l 749 13 l 797 13 q 811 22 803 15 q 828 35 819 28 q 844 50 838 43 q 853 61 851 57 l 853 74 q 824 145 853 118 q 751 187 796 172 q 654 206 707 201 q 554 210 601 210 q 496 208 522 210 q 453 203 469 206 q 389 287 413 238 q 365 381 365 336 l 365 394 q 444 517 403 463 q 519 615 485 572 q 576 688 553 658 q 599 732 599 717 q 573 770 599 750 q 514 808 547 790 q 449 837 481 825 q 403 849 417 849 l 375 849 q 308 785 326 814 q 288 729 290 756 q 292 676 285 703 q 301 622 299 650 q 293 562 303 594 q 249 490 283 529 q 207 463 232 471 q 158 446 182 454 q 117 424 133 438 q 100 381 100 410 "},"M":{"ha":1332,"x_min":13,"x_max":1300,"o":"m 911 697 l 828 704 l 828 179 q 795 107 815 133 q 735 81 775 81 q 692 94 704 81 q 672 149 679 108 q 669 172 671 153 q 665 216 667 190 q 660 273 663 242 q 656 333 658 304 q 651 392 653 363 q 647 447 649 422 q 643 491 644 472 q 642 518 642 510 q 635 563 639 536 q 626 613 631 589 q 617 655 621 638 q 611 672 613 672 l 503 672 l 503 117 q 472 88 503 93 q 426 83 443 83 q 409 85 419 83 q 394 86 399 86 q 374 93 386 89 q 347 103 363 97 q 318 117 318 113 l 318 518 q 269 592 318 560 q 220 622 246 607 q 165 654 194 638 q 110 691 138 671 q 60 736 82 711 q 26 792 39 761 q 13 861 13 822 l 58 858 l 197 858 l 240 858 l 1136 828 q 1165 799 1161 818 q 1169 763 1169 781 q 1153 729 1169 736 q 1117 721 1138 722 q 1090 717 1100 719 q 1072 703 1081 714 l 1069 689 q 1065 660 1067 675 q 1063 625 1063 644 q 1075 508 1063 576 q 1086 470 1085 489 q 1088 424 1088 451 q 1085 403 1088 408 q 1082 386 1082 397 q 1085 378 1082 383 q 1089 367 1088 372 q 1089 356 1090 361 q 1078 350 1088 351 q 1068 322 1071 338 q 1065 290 1065 306 q 1067 259 1065 275 q 1074 232 1069 243 q 1101 182 1079 211 q 1160 138 1122 156 q 1228 99 1197 119 q 1280 51 1260 78 q 1300 -12 1300 24 q 1053 51 1167 -12 q 953 219 994 82 q 913 475 913 357 l 913 486 l 913 557 q 913 632 913 597 q 911 697 913 668 "},"N":{"ha":981,"x_min":25,"x_max":939,"o":"m 319 697 q 319 802 321 756 q 318 876 318 849 l 303 876 q 235 848 258 876 q 199 772 211 819 q 185 662 188 724 q 183 533 183 600 q 185 402 185 467 q 179 282 186 338 q 155 189 172 228 q 125 139 138 150 q 25 14 64 115 l 453 14 q 454 153 464 128 q 403 186 443 181 q 369 192 382 189 q 350 197 356 194 q 344 220 346 203 q 343 242 343 238 q 341 302 343 254 q 338 417 339 350 q 375 560 336 483 q 416 626 394 597 q 460 669 438 654 q 503 685 482 685 q 543 668 524 685 q 600 631 581 633 q 629 635 614 632 q 663 640 644 638 q 710 567 697 646 q 738 463 722 488 q 754 414 754 439 q 744 376 754 392 q 722 347 733 361 q 699 316 710 332 q 689 275 689 300 q 697 223 689 243 q 718 186 706 203 q 744 154 731 169 q 771 117 758 139 q 792 65 783 96 q 800 -12 800 35 q 869 7 842 -12 q 911 57 896 26 q 933 123 926 88 q 939 192 939 158 q 933 343 939 261 q 903 496 928 425 q 858 585 886 544 q 814 713 831 625 q 697 853 797 801 q 612 866 651 861 q 539 872 572 871 q 446 846 513 875 q 319 697 378 817 "},"O":{"ha":1031,"x_min":28,"x_max":985,"o":"m 985 478 l 985 472 q 967 410 985 438 q 929 356 950 382 q 891 306 908 331 q 874 256 874 282 q 874 226 874 243 q 867 174 875 208 q 856 158 856 165 q 864 138 856 151 q 872 86 872 125 l 872 71 q 858 35 867 57 q 847 10 850 13 l 838 10 q 763 6 797 10 q 694 -3 729 1 q 622 -11 660 -7 q 538 -15 585 -15 l 474 -15 l 454 -15 l 389 -15 q 381 -10 385 -14 q 278 3 325 -4 q 175 10 231 10 l 164 10 q 153 35 161 13 q 139 71 144 57 l 139 86 q 147 138 139 125 q 156 158 156 151 q 144 174 156 165 q 137 226 136 208 q 138 256 138 243 q 120 306 138 282 q 83 356 103 331 q 45 410 63 382 q 28 472 28 438 l 28 478 q 28 492 28 482 q 29 503 29 503 l 351 876 l 386 876 l 389 876 l 660 876 l 982 503 q 983 492 982 503 q 985 478 985 482 m 517 186 l 517 185 l 628 185 q 684 215 661 186 q 721 282 707 243 q 740 362 735 321 q 746 429 746 403 q 744 448 746 436 q 743 460 743 460 l 515 714 l 500 714 l 274 460 q 273 448 274 460 q 272 429 272 436 q 278 362 272 403 q 297 282 283 321 q 332 215 310 243 q 389 185 354 186 l 517 186 z "},"P":{"ha":1142,"x_min":31,"x_max":1111,"o":"m 629 101 q 497 -6 629 -6 q 429 20 457 -6 q 381 86 401 46 q 349 175 361 126 q 329 270 336 224 q 318 355 322 317 q 311 411 314 393 l 83 411 q 84 419 83 411 q 86 442 85 426 q 90 469 88 457 q 96 488 93 481 q 110 505 99 494 q 126 518 121 515 q 163 528 136 522 q 220 538 190 533 q 276 547 250 543 q 311 550 303 550 q 341 601 336 578 q 346 657 346 624 q 296 738 346 721 q 188 754 247 753 q 81 763 129 756 q 31 811 31 768 q 32 822 31 815 q 33 828 33 828 q 50 835 39 831 q 81 846 61 839 q 126 858 119 858 l 1053 858 q 1096 788 1111 803 q 1074 770 1089 781 q 1040 746 1060 760 q 960 704 1003 718 q 958 643 958 682 q 953 559 957 604 q 942 468 950 514 q 919 385 935 422 q 881 324 904 347 q 821 300 857 300 q 744 315 779 300 q 676 346 710 329 q 606 377 642 363 q 528 392 571 392 l 528 179 q 608 168 590 199 q 629 101 629 139 m 775 704 l 478 704 q 503 594 478 638 q 569 524 528 550 q 665 486 611 497 q 775 475 718 475 l 775 704 z "},"Q":{"ha":1238,"x_min":21,"x_max":1208,"o":"m 524 89 q 535 122 524 114 q 558 129 546 129 q 590 128 574 129 q 619 126 607 126 l 619 308 q 469 282 540 308 q 326 256 399 256 q 278 288 297 256 q 246 361 258 319 q 227 442 233 403 q 218 497 221 482 q 210 539 215 507 q 200 608 206 571 q 191 677 194 644 q 188 722 188 710 l 21 722 q 22 732 21 722 q 24 764 22 742 q 28 801 25 783 q 33 831 31 818 q 47 847 36 836 q 64 858 58 858 l 1082 858 l 1206 831 q 1207 826 1206 831 q 1208 818 1208 821 q 1207 809 1208 815 q 1206 800 1206 803 q 1199 780 1203 792 q 1189 753 1194 768 q 1175 722 1176 722 l 867 722 q 833 709 846 722 q 813 677 819 696 q 803 639 806 658 q 801 606 801 619 q 851 525 801 542 q 989 347 933 497 l 811 346 l 743 13 q 736 7 743 11 q 720 -1 729 3 q 700 -10 711 -6 q 681 -15 689 -14 l 665 -15 q 625 -6 646 -15 q 585 16 604 3 q 551 44 567 29 q 526 74 536 60 q 525 80 526 74 q 524 89 524 86 m 400 710 l 400 422 q 483 428 443 422 q 555 451 524 435 q 604 497 586 468 q 622 574 622 526 q 619 651 622 624 q 604 693 617 679 q 565 710 592 707 q 493 713 539 713 l 475 713 q 445 711 463 713 q 415 710 428 710 l 400 710 z "},"R":{"ha":1072,"x_min":28,"x_max":1035,"o":"m 532 461 q 679 425 660 422 l 804 681 l 690 683 q 669 676 683 681 q 631 664 654 671 q 551 643 590 651 q 494 635 515 635 l 431 635 q 430 630 431 635 q 429 622 429 625 q 433 601 429 614 q 442 571 438 589 q 532 461 453 532 m 439 394 l 440 -15 q 419 -49 440 -36 q 369 -71 397 -62 q 315 -82 342 -79 q 279 -85 289 -85 l 279 622 q 263 636 279 629 q 235 646 246 643 q 201 653 226 649 q 146 661 175 657 q 91 668 117 665 q 57 671 65 671 q 51 681 56 674 q 41 695 46 688 q 32 710 36 703 q 28 719 28 717 l 28 735 l 28 746 q 31 756 28 749 q 40 770 35 763 q 50 784 46 778 q 57 793 54 790 q 160 799 117 789 q 238 824 204 808 q 301 861 272 840 q 360 899 329 882 q 428 929 390 917 q 515 942 465 942 q 563 941 542 942 q 596 938 583 940 q 678 893 628 926 q 679 886 678 889 q 681 881 681 883 q 679 874 681 878 q 678 869 678 869 q 668 855 675 864 q 650 829 661 846 q 618 793 626 800 l 972 793 q 1003 778 983 793 q 1033 746 1022 763 q 1034 742 1033 746 q 1035 735 1035 738 q 1034 725 1035 731 q 1033 719 1033 719 q 1017 700 1029 714 q 989 672 1004 686 q 962 643 975 657 q 926 608 949 629 l 750 350 q 767 328 758 329 q 817 283 779 315 q 898 215 854 250 q 980 147 942 179 q 1033 106 1018 115 l 1033 32 l 972 32 q 931 69 961 42 q 862 127 900 97 q 782 181 824 157 q 707 208 740 206 q 657 231 701 208 q 583 282 638 242 q 439 394 528 322 z "},"S":{"ha":688,"x_min":18,"x_max":644,"o":"m 299 525 q 421 489 364 525 q 478 389 478 456 q 407 341 444 367 q 328 283 369 315 q 249 222 286 251 q 179 165 211 193 q 177 157 179 163 q 175 151 175 151 q 166 138 174 147 q 148 119 158 129 q 125 100 138 110 q 103 83 113 90 q 83 69 89 69 q 72 63 81 67 q 52 56 63 60 q 33 47 42 51 q 21 39 24 43 q 19 35 21 39 q 18 25 18 32 q 31 -1 18 13 q 62 -24 44 -14 q 98 -42 79 -35 q 129 -49 117 -49 q 269 10 179 -49 q 355 67 313 35 q 440 136 397 99 q 583 292 519 208 q 644 431 644 374 q 601 535 644 490 q 495 612 558 581 q 362 660 432 643 q 238 679 292 676 l 258 742 l 564 736 q 606 747 581 736 q 624 770 617 760 q 639 789 632 781 q 640 794 639 789 q 642 803 642 800 q 640 813 642 807 q 639 818 639 818 q 626 830 633 822 q 610 847 619 838 q 576 876 586 868 l 543 876 l 429 876 l 392 876 q 322 878 350 876 q 272 878 294 879 q 231 866 251 878 q 175 836 211 854 q 110 760 129 793 q 86 701 90 728 q 88 650 82 674 q 97 604 93 626 q 125 549 107 574 q 175 514 143 525 q 223 512 204 511 q 251 515 242 513 q 282 524 268 521 q 299 525 289 525 "},"T":{"ha":988,"x_min":-12,"x_max":960,"o":"m 463 661 l 432 692 q 367 564 399 617 q 294 476 336 511 q 207 431 253 440 q 67 442 158 419 q 80 490 75 472 q 86 514 85 508 q 97 535 88 524 q 132 568 107 544 q 185 631 157 592 q 187 636 185 631 q 189 646 189 642 q 187 654 189 650 q 185 661 185 658 q 46 700 113 651 q -12 828 -12 750 q 149 832 72 825 q 302 848 226 839 q 455 864 378 857 q 617 868 532 871 l 664 868 l 815 868 l 864 868 q 890 858 875 864 q 922 842 904 853 q 960 790 960 818 q 930 742 960 761 q 859 711 900 722 q 775 696 818 700 q 706 692 732 692 l 679 692 l 679 43 q 662 12 679 24 q 622 -8 644 0 q 576 -18 599 -15 q 540 -21 553 -21 q 521 -20 532 -21 q 494 -17 510 -19 q 463 13 463 -14 l 463 661 "},"U":{"ha":953,"x_min":28,"x_max":931,"o":"m 578 258 q 597 226 588 247 q 613 180 606 206 q 626 124 619 154 q 636 65 632 94 q 713 26 647 8 q 781 114 778 44 q 783 186 782 150 q 782 258 783 222 q 782 408 782 335 q 788 543 782 482 q 812 649 794 604 q 864 710 829 693 q 906 715 883 710 q 914 850 931 722 l 464 850 q 451 753 442 797 q 489 689 461 708 q 515 672 503 679 q 539 657 528 664 q 617 640 561 647 q 622 614 621 633 q 624 590 624 594 q 608 546 624 576 q 569 478 593 515 q 515 401 544 440 q 458 328 486 361 q 408 274 431 294 q 374 253 385 253 q 322 264 350 253 q 269 294 293 275 q 228 340 244 314 q 213 396 213 365 q 223 438 213 421 q 245 472 233 456 q 267 506 257 488 q 278 553 278 525 q 269 610 278 588 q 249 652 261 633 q 222 688 236 671 q 196 730 208 706 q 175 789 183 754 q 167 876 167 824 q 98 854 125 876 q 56 799 71 832 q 34 724 40 765 q 28 646 28 683 q 28 563 28 607 q 33 475 29 519 q 44 386 38 431 q 64 301 51 342 q 96 228 78 264 q 140 162 114 193 q 202 105 165 131 q 292 61 239 79 q 461 94 408 36 q 540 186 521 144 q 578 258 558 225 "},"V":{"ha":958,"x_min":25,"x_max":925,"o":"m 140 599 l 150 372 q 171 294 167 354 q 198 274 186 282 q 217 260 210 265 q 272 218 247 236 q 318 183 297 200 q 356 150 339 167 q 390 114 374 133 l 390 101 q 413 39 390 68 q 471 10 436 10 l 475 10 l 479 10 q 482 11 481 10 q 485 12 485 11 q 486 13 486 13 q 492 21 489 15 q 526 60 517 43 q 560 101 539 78 l 560 114 q 594 150 576 133 q 632 183 611 167 q 677 217 653 199 q 733 260 701 236 q 752 274 740 265 q 779 294 764 282 q 810 321 810 317 l 810 599 q 899 654 872 624 q 925 738 925 685 q 875 822 925 799 q 774 846 817 846 l 703 846 q 653 694 654 742 q 671 629 651 649 q 672 614 671 625 q 674 591 674 603 q 676 568 675 579 q 678 553 678 557 q 672 464 678 476 q 586 386 607 407 q 560 365 574 375 q 533 343 547 354 q 503 316 518 329 q 474 289 488 303 q 444 310 460 300 q 408 331 428 321 q 360 374 386 350 q 317 428 333 397 q 272 553 272 485 q 274 568 272 557 q 276 591 275 579 q 278 614 276 603 q 279 629 279 625 q 307 726 300 649 q 247 846 313 806 l 176 846 q 75 822 133 846 q 25 738 25 799 q 92 700 67 731 q 140 599 117 669 "},"W":{"ha":1332,"x_min":13,"x_max":1300,"o":"m 401 151 l 485 144 l 485 669 q 517 742 497 715 q 578 768 538 768 q 621 754 608 768 q 640 700 633 740 q 644 677 642 696 q 648 633 646 658 q 652 576 650 607 q 657 515 654 544 q 662 456 660 486 q 666 401 664 426 q 669 358 668 376 q 671 331 671 339 q 678 286 674 313 q 687 235 682 260 q 695 194 692 211 q 701 176 699 176 l 810 176 l 810 732 q 840 761 810 756 q 886 765 869 765 q 903 764 893 765 q 918 763 914 763 q 938 756 926 760 q 965 746 950 751 q 994 732 994 735 l 994 331 q 1043 257 994 289 q 1092 226 1067 242 q 1147 194 1118 211 q 1203 158 1175 178 q 1252 113 1231 138 q 1287 57 1274 88 q 1300 -12 1300 26 l 1254 -10 l 1072 -10 l 176 21 q 147 49 151 31 q 143 86 143 68 q 159 119 143 113 q 196 128 175 126 q 222 132 213 129 q 240 146 232 135 l 243 160 q 247 193 247 176 l 247 425 q 239 444 247 438 q 221 458 231 451 q 203 474 211 465 q 194 501 194 483 q 199 526 194 510 q 211 562 204 543 q 226 596 218 581 q 239 617 233 611 q 211 667 233 638 q 153 711 190 693 q 83 750 115 729 q 33 798 53 771 q 13 861 13 825 q 260 797 146 861 q 360 628 318 767 q 400 374 400 492 l 400 292 q 400 215 400 251 q 401 151 400 181 "},"X":{"ha":1150,"x_min":28,"x_max":1114,"o":"m 713 661 l 707 506 l 611 506 q 606 620 608 578 q 600 675 603 663 q 531 849 615 804 l 33 847 q 54 767 36 800 q 94 707 72 733 q 197 650 138 656 q 228 655 206 651 q 286 665 250 658 q 432 679 351 679 l 432 518 q 368 481 432 501 q 303 457 338 469 q 229 428 268 444 q 153 391 189 411 q 90 351 118 371 q 28 244 28 307 q 52 143 28 190 q 115 60 76 96 q 202 5 154 25 q 296 -15 250 -15 q 356 42 328 -11 q 347 112 353 89 q 322 151 342 135 q 287 188 303 168 q 271 240 271 208 q 299 306 271 288 q 369 324 326 324 q 390 324 378 324 q 416 319 403 324 q 443 306 429 315 q 469 278 457 296 l 472 22 q 494 0 479 7 q 526 -10 510 -7 q 558 -13 543 -12 q 576 -15 572 -14 q 642 32 624 -15 q 656 84 651 57 q 661 139 660 111 q 662 196 664 167 q 657 251 660 225 q 651 295 654 276 q 647 321 647 314 q 701 363 665 360 q 771 386 742 365 q 836 442 814 419 q 868 482 858 464 q 881 515 878 500 q 889 546 883 529 q 900 579 890 563 q 931 617 910 596 q 989 662 953 638 q 1081 717 1025 686 q 1109 744 1104 732 q 1114 781 1114 756 q 1113 802 1114 790 q 1109 824 1113 814 q 1099 842 1106 835 q 1081 849 1092 849 l 806 849 q 713 661 681 781 "},"Y":{"ha":1081,"x_min":13,"x_max":1053,"o":"m 879 664 q 1006 718 960 669 q 1053 856 1053 767 l 714 856 q 708 800 710 829 q 704 739 706 771 q 715 653 704 678 q 728 583 728 629 q 702 481 728 528 q 633 401 676 435 q 583 473 603 440 q 553 536 564 506 q 510 645 542 565 q 428 856 479 725 l 46 856 q 17 828 24 856 q 13 783 13 800 q 33 738 13 754 q 85 713 54 721 q 154 702 117 704 q 225 700 192 700 q 293 694 281 700 q 319 673 301 693 q 358 622 338 653 q 401 553 379 590 q 441 481 424 515 q 470 417 458 446 q 482 376 482 389 q 463 341 482 357 q 416 310 444 325 q 355 277 388 294 q 294 236 322 260 q 247 181 265 213 q 228 106 228 150 q 242 24 228 50 q 315 -3 257 -3 q 362 18 350 -1 q 378 64 374 38 q 389 117 383 90 q 417 161 394 144 q 565 238 496 215 q 688 275 633 261 q 785 304 743 289 q 851 358 826 319 q 883 467 876 396 q 879 664 890 538 "},"Z":{"ha":713,"x_min":25,"x_max":651,"o":"m 25 426 q 68 538 25 490 q 174 619 111 586 q 308 671 238 653 q 432 692 378 689 l 432 738 l 93 738 q 64 767 86 738 q 45 790 53 779 q 31 811 38 801 q 29 817 31 811 q 28 825 28 822 q 29 835 28 829 q 31 842 31 842 q 43 855 36 847 q 60 874 50 863 q 93 903 82 894 l 126 903 l 240 903 l 278 903 q 347 906 319 903 q 397 906 375 908 q 438 892 418 904 q 485 851 458 881 l 586 738 q 583 678 586 711 q 572 612 581 644 q 544 553 563 579 q 494 514 525 526 q 624 344 624 474 q 603 278 624 303 q 557 233 582 253 q 511 193 532 214 q 490 140 490 172 q 492 131 490 138 q 494 125 494 125 q 503 112 496 121 q 522 92 511 103 q 544 71 532 82 q 567 51 556 60 q 586 36 579 38 q 598 30 589 33 q 617 22 607 26 q 637 13 628 17 q 649 4 646 8 q 650 1 649 4 q 651 -10 651 -3 q 638 -39 651 -25 q 608 -63 625 -53 q 572 -81 590 -74 q 540 -87 553 -87 q 400 -28 489 -87 q 315 34 357 0 q 229 110 272 68 q 86 276 150 186 q 25 426 25 363 m 401 347 l 336 304 q 435 268 399 240 q 454 375 474 293 l 401 347 m 371 526 q 249 489 304 526 q 192 381 192 453 q 313 420 264 381 q 401 524 363 460 q 388 525 399 524 q 371 526 376 526 z "},"[":{"ha":668,"x_min":36,"x_max":589,"o":"m 560 -33 q 542 33 560 3 q 517 41 538 39 q 465 42 496 43 q 397 40 435 42 q 318 39 358 39 q 302 45 310 39 q 289 59 294 51 q 279 73 283 67 q 272 79 275 79 q 278 101 278 89 q 276 144 278 115 q 270 205 274 174 q 265 263 267 236 q 263 300 263 290 q 265 397 263 367 q 268 433 268 426 q 267 458 268 446 q 265 476 265 469 q 267 481 265 481 q 272 483 267 483 q 279 492 279 483 q 271 521 279 503 q 263 543 263 539 q 264 581 263 553 q 267 642 265 610 q 272 702 269 674 q 274 740 274 731 q 269 777 274 754 q 250 842 264 800 q 378 840 335 840 q 436 838 421 839 q 445 837 451 838 q 426 835 439 836 q 400 835 414 835 q 389 835 388 835 l 390 835 q 449 839 417 835 q 490 858 469 847 q 528 881 510 869 q 561 903 546 893 q 586 918 576 913 q 589 925 589 921 q 576 952 589 935 q 540 999 564 969 l 156 996 q 108 983 146 996 q 81 972 92 976 q 63 965 71 968 q 61 959 63 965 q 60 949 60 953 q 108 900 60 907 q 115 899 115 900 q 109 896 115 897 q 94 893 103 894 q 80 890 86 892 q 74 889 74 889 l 83 889 q 94 888 99 889 q 79 885 89 886 q 63 881 69 883 q 68 875 56 879 q 117 794 117 858 q 117 742 117 778 q 113 669 117 707 q 103 597 110 631 q 85 549 97 563 q 65 540 79 550 q 43 510 50 529 q 42 465 36 490 q 85 410 49 439 q 88 346 86 392 q 93 243 89 300 q 106 124 97 186 q 133 12 115 63 q 176 -72 150 -39 q 240 -106 201 -106 q 328 -104 274 -106 q 433 -96 382 -103 q 522 -74 485 -89 q 560 -33 560 -60 "},"\\":{"ha":994,"x_min":51,"x_max":951,"o":"m 222 482 q 281 418 256 426 q 331 401 303 410 q 372 375 357 393 q 431 303 407 336 q 474 242 454 271 q 510 188 493 214 q 551 133 528 161 q 608 76 575 106 q 689 13 640 47 l 717 13 q 769 25 731 13 q 848 56 807 38 q 920 94 889 74 q 951 133 951 115 q 924 160 951 144 q 853 199 897 176 q 757 249 810 221 q 652 310 704 276 q 556 384 600 344 q 488 469 513 424 l 488 482 q 394 604 410 561 q 381 644 388 624 q 369 685 375 665 q 292 801 360 724 l 290 801 q 282 808 286 801 q 274 824 278 815 q 265 842 269 833 q 257 851 261 850 l 229 851 l 53 803 l 53 756 q 61 697 51 715 q 86 670 71 679 q 118 656 101 661 q 149 638 135 651 q 178 597 167 622 q 189 563 189 571 q 194 545 189 554 q 205 527 199 536 q 217 507 211 518 q 222 482 222 496 "},"]":{"ha":668,"x_min":39,"x_max":592,"o":"m 68 -33 q 86 33 68 3 q 111 41 90 39 q 163 42 132 43 q 231 40 193 42 q 310 39 269 39 q 326 45 318 39 q 339 59 333 51 q 349 73 344 67 q 356 79 353 79 q 350 101 350 89 q 352 144 350 115 q 358 205 354 174 q 363 263 361 236 q 365 300 365 290 q 363 397 365 367 q 360 433 360 426 q 361 458 360 446 q 363 476 363 469 q 361 481 363 481 q 356 483 361 483 q 349 492 349 483 q 357 521 349 503 q 365 543 365 539 q 363 581 365 553 q 359 642 361 610 q 356 702 357 674 q 354 740 354 731 q 359 777 354 754 q 378 842 364 800 q 250 840 293 840 q 192 838 207 839 q 183 837 176 838 q 201 835 189 836 q 226 835 214 835 q 239 835 240 835 l 238 835 q 179 839 210 835 q 138 858 158 847 q 100 881 118 869 q 67 903 82 893 q 42 918 51 913 q 39 925 39 921 q 51 952 39 935 q 88 999 64 969 l 472 996 q 519 983 482 996 q 547 972 536 976 q 565 965 557 968 q 567 959 565 965 q 568 949 568 953 q 519 900 568 907 q 513 899 513 900 q 519 896 513 897 q 533 893 525 894 q 548 890 542 892 q 554 889 554 889 l 544 889 q 534 888 529 889 q 549 885 539 886 q 565 881 558 883 q 560 875 572 879 q 511 794 511 858 q 511 742 511 778 q 515 669 511 707 q 524 597 518 631 q 543 549 531 563 q 563 540 549 550 q 585 510 578 529 q 585 465 592 490 q 543 410 579 439 q 540 346 542 392 q 535 243 539 300 q 522 124 531 186 q 495 12 513 63 q 452 -72 478 -39 q 388 -106 426 -106 q 300 -104 354 -106 q 194 -96 246 -103 q 106 -74 143 -89 q 68 -33 68 -60 "},"^":{"ha":958,"x_min":25,"x_max":925,"o":"m 810 257 q 858 156 833 186 q 925 118 883 125 q 875 33 925 57 q 774 10 819 10 l 703 10 q 643 129 638 49 q 671 226 650 207 q 672 242 671 231 q 674 265 674 253 q 676 288 675 276 q 678 303 678 299 q 633 428 678 371 q 590 482 617 458 q 542 525 564 506 q 476 567 503 544 q 447 540 463 553 q 417 513 432 526 q 390 491 403 501 q 364 469 376 481 q 278 392 342 447 q 272 303 272 376 q 274 288 272 299 q 276 265 275 276 q 278 242 276 253 q 279 226 279 231 q 297 161 299 208 q 247 10 296 114 l 176 10 q 75 33 131 10 q 25 118 25 56 q 51 201 25 171 q 140 257 78 232 l 140 535 q 171 561 140 539 q 198 582 186 574 q 217 596 210 590 q 272 638 247 619 q 318 673 297 657 q 356 706 339 689 q 390 742 374 722 l 390 754 q 424 796 411 776 q 458 835 433 813 q 464 843 460 839 q 465 844 464 843 q 468 844 465 844 q 471 846 469 846 l 475 846 l 479 846 q 537 817 514 846 q 560 754 560 788 l 560 742 q 594 706 576 722 q 632 672 611 689 q 677 638 653 656 q 733 596 701 619 q 752 582 740 590 q 779 561 764 574 q 800 483 783 503 l 810 257 "},"_":{"ha":768,"x_min":-4,"x_max":768,"o":"m 742 -232 q 750 -215 746 -226 q 761 -186 754 -204 q 765 -174 764 -176 q 767 -171 767 -171 l 768 -171 l 768 -169 q 765 -156 768 -165 q 756 -137 761 -147 q 746 -119 751 -128 q 738 -108 740 -111 l 667 -108 q 560 -107 617 -108 q 450 -106 503 -106 l 381 -106 q 281 -99 325 -106 q 194 -87 238 -92 q 105 -86 151 -83 q -1 -108 58 -89 q -3 -131 -1 -114 q -4 -154 -4 -149 q 22 -218 -4 -204 q 86 -232 47 -232 l 140 -232 q 179 -233 158 -232 q 221 -235 200 -233 q 222 -243 221 -239 q 224 -250 224 -247 l 742 -232 "},"`":{"ha":369,"x_min":24,"x_max":317,"o":"m 24 1032 l 206 1032 q 210 1020 206 1028 q 220 1003 215 1013 q 230 985 225 994 q 235 971 235 976 q 233 968 235 969 l 218 933 l 282 850 q 288 805 282 831 q 299 756 293 779 q 311 715 306 732 q 317 693 317 697 l 317 692 q 299 703 313 692 q 266 733 285 715 q 228 770 247 750 q 192 807 208 790 q 165 833 175 824 q 157 840 156 843 l 214 706 l 57 847 l 24 1032 "},"a":{"ha":1142,"x_min":25,"x_max":1106,"o":"m 1106 68 q 1086 47 1099 58 q 1060 27 1074 36 q 1034 12 1047 18 q 1013 6 1021 6 l 25 6 q 46 72 36 43 q 67 123 56 100 q 94 165 79 146 q 133 200 110 183 l 175 200 q 234 207 207 200 q 272 232 261 214 q 309 290 290 261 q 347 347 328 318 q 385 399 367 375 q 419 442 403 422 q 340 483 392 456 q 221 554 288 510 q 123 651 163 594 q 83 783 83 708 q 91 823 83 808 q 113 844 99 838 q 145 853 126 851 q 185 856 164 856 q 217 851 197 856 q 240 846 238 846 q 260 831 246 844 q 288 800 274 817 q 316 769 303 783 q 333 750 329 754 q 396 703 353 733 q 484 641 439 672 q 566 585 529 610 q 611 556 603 561 q 648 552 614 556 q 722 538 682 549 q 795 509 763 528 q 828 460 828 490 l 828 232 q 864 209 828 225 q 947 171 900 193 q 1040 122 994 149 q 1106 68 1086 96 m 667 358 q 644 372 661 363 q 606 391 626 381 q 565 410 585 401 q 533 419 544 418 q 450 228 517 408 q 460 211 447 222 q 482 197 472 200 q 508 194 486 197 q 543 192 529 192 q 667 339 667 192 l 667 358 "},"b":{"ha":904,"x_min":17,"x_max":860,"o":"m 406 106 l 413 -28 l 371 -24 q 334 -18 350 -22 q 304 -10 318 -14 q 272 19 286 1 q 243 53 249 42 q 244 92 243 67 q 244 150 244 117 q 245 220 244 182 q 246 296 246 258 q 245 375 246 336 q 244 447 244 414 q 244 507 244 482 q 243 546 243 532 q 226 660 239 611 q 168 711 214 710 q 72 719 122 715 q 17 814 22 726 l 51 856 q 133 857 89 856 q 218 858 178 858 l 274 858 l 399 858 q 582 853 490 858 q 767 824 674 847 q 774 801 771 818 q 776 778 776 783 q 748 717 776 733 q 677 698 719 700 q 585 702 635 696 q 494 708 536 708 q 423 693 451 707 q 394 639 394 679 q 396 622 394 633 q 397 608 397 611 q 494 636 453 631 q 585 642 535 642 q 781 558 703 642 q 860 361 860 475 q 845 261 860 306 q 803 176 831 217 q 721 97 776 138 q 592 53 669 60 l 511 56 q 406 106 463 69 m 743 400 q 658 388 685 414 q 588 322 617 356 q 541 259 558 289 q 517 205 524 229 q 517 167 511 181 q 713 296 618 214 q 743 400 747 356 m 639 532 q 490 482 558 532 q 422 347 422 435 q 483 367 446 347 q 554 414 519 386 q 614 474 589 442 q 639 532 639 507 "},"c":{"ha":936,"x_min":47,"x_max":903,"o":"m 47 478 q 72 406 47 436 q 128 347 97 375 q 183 288 158 318 q 208 219 208 258 q 213 168 208 211 q 249 69 217 128 q 389 0 282 15 q 497 -11 442 -7 q 607 -15 551 -15 l 640 -15 l 754 -15 l 792 -15 q 870 53 838 10 q 903 149 903 96 l 483 149 q 408 184 438 150 q 359 264 378 218 q 333 358 340 310 q 325 439 325 407 q 327 461 325 447 q 329 475 329 475 l 638 778 l 814 765 q 869 804 875 778 q 862 828 865 817 q 853 849 858 839 q 824 867 844 857 q 792 876 804 876 l 453 876 l 51 503 q 49 492 51 503 q 47 478 47 482 "},"d":{"ha":988,"x_min":28,"x_max":933,"o":"m 842 692 l 842 410 q 819 382 842 403 q 782 357 796 363 q 672 288 715 322 q 590 217 629 254 q 506 138 551 179 q 392 46 461 96 q 317 -1 349 14 q 246 -17 285 -17 l 186 -17 q 162 -17 176 -17 q 132 -17 147 -18 q 101 -13 117 -17 q 75 -1 86 -10 q 60 21 60 10 q 61 39 60 35 q 85 47 63 43 q 128 68 110 54 q 153 153 151 85 q 159 252 154 189 q 172 415 164 315 q 167 639 189 608 q 113 703 143 672 q 32 765 78 738 q 28 779 29 769 q 28 796 28 789 l 28 806 q 36 858 28 831 q 93 879 44 879 l 132 879 l 249 879 l 288 879 q 443 874 368 879 q 594 858 518 869 q 745 844 669 847 q 901 847 821 842 q 930 823 926 839 q 933 790 933 807 q 928 757 933 769 q 913 735 924 744 q 884 715 901 725 q 842 692 867 706 m 328 356 l 317 214 l 319 186 q 482 329 421 263 q 544 388 514 364 q 607 431 575 413 q 663 483 661 467 q 663 493 663 485 q 665 515 664 501 q 667 528 665 522 q 668 542 668 535 l 668 561 q 639 682 672 667 q 518 696 610 696 q 495 697 514 696 q 454 697 476 697 q 414 690 433 697 q 356 682 394 682 q 349 608 353 649 q 342 515 346 567 l 328 356 z "},"e":{"ha":988,"x_min":28,"x_max":957,"o":"m 28 575 q 54 692 28 642 q 124 776 81 742 q 223 827 167 810 q 339 844 279 844 q 465 827 403 844 q 576 774 528 810 q 655 687 625 739 q 685 564 685 635 q 683 508 685 539 q 673 450 682 476 q 644 406 664 424 q 586 388 624 388 l 278 388 q 306 303 292 303 q 321 303 311 303 q 342 306 331 304 q 397 310 367 310 q 424 308 408 310 q 460 303 440 306 q 511 284 490 297 q 547 258 532 271 q 570 235 561 244 q 586 225 579 225 q 651 207 603 218 q 755 185 700 196 q 859 167 810 175 q 926 158 908 158 q 933 142 929 154 q 944 114 936 131 q 957 64 957 74 q 953 51 957 60 q 945 32 950 42 q 935 14 940 22 q 926 3 929 6 l 856 3 q 749 1 806 3 q 639 -1 692 -1 l 571 -1 q 448 -3 517 -1 q 304 -4 379 -6 q 149 47 231 -1 q 78 139 67 97 q 114 185 88 181 q 167 190 136 190 q 206 191 186 190 q 247 193 226 192 q 249 201 247 197 q 250 208 250 206 q 206 232 225 222 q 171 249 186 242 q 111 297 144 260 q 65 376 79 332 q 34 496 40 447 q 28 575 28 544 m 204 519 l 568 519 q 565 613 569 579 q 546 664 561 647 q 501 685 531 681 q 422 690 472 689 q 350 681 389 690 q 279 650 311 671 q 226 597 247 629 q 204 519 204 565 "},"f":{"ha":1142,"x_min":32,"x_max":1113,"o":"m 631 101 q 613 168 631 138 q 529 179 590 199 l 529 392 q 608 377 572 392 q 677 346 643 363 q 746 315 711 329 q 822 300 781 300 q 882 324 858 300 q 921 385 906 347 q 889 463 936 424 q 781 489 840 503 q 667 486 721 478 q 571 522 613 494 q 504 594 529 549 q 479 704 479 640 l 775 704 q 903 700 875 700 q 961 704 929 700 q 1002 724 982 713 q 1040 747 1022 735 q 1074 768 1058 758 q 1099 783 1089 778 q 1053 858 1113 796 l 128 858 q 81 846 118 858 q 53 835 64 839 q 35 828 43 831 q 33 822 35 828 q 32 811 32 815 q 81 763 32 769 q 189 754 128 756 q 297 738 249 751 q 346 657 346 721 q 342 601 346 624 q 313 550 338 578 q 278 547 304 550 q 220 538 251 543 q 163 528 189 533 q 128 518 136 522 q 110 505 121 515 q 96 488 100 494 q 88 442 89 471 q 85 419 86 426 q 85 411 85 411 l 313 411 q 317 355 314 393 q 328 270 321 317 q 349 175 336 224 q 383 86 363 126 q 431 20 403 46 q 497 -6 458 -6 q 631 101 631 -6 "},"g":{"ha":974,"x_min":28,"x_max":936,"o":"m 121 160 l 121 456 q 143 483 121 463 q 179 510 164 504 q 289 582 246 546 q 372 657 332 618 q 456 740 411 696 q 571 835 501 783 q 647 885 614 869 q 718 900 679 900 l 779 900 q 811 901 790 900 q 853 898 832 901 q 889 884 874 894 q 904 850 904 874 q 903 842 904 844 q 892 805 901 839 q 860 700 882 771 q 781 686 793 624 q 757 756 765 746 q 738 758 747 764 q 721 742 731 754 q 697 713 711 731 q 660 672 682 696 q 604 621 638 649 q 540 574 574 599 q 474 526 507 550 q 411 478 442 503 q 356 432 381 454 q 300 376 303 396 q 296 343 297 374 q 294 331 294 342 l 294 317 l 294 296 q 326 188 294 221 q 444 156 357 156 q 468 153 449 156 q 509 153 488 151 q 549 163 531 156 q 571 190 568 171 q 562 224 567 197 q 551 281 557 251 q 547 307 549 296 q 544 324 546 318 q 476 332 542 335 l 471 376 l 540 431 q 645 391 606 414 q 711 340 685 368 q 756 279 738 311 q 797 215 775 247 q 849 148 818 182 q 932 83 881 114 q 935 68 935 79 q 936 51 936 57 l 936 42 q 934 15 936 29 q 929 -14 932 1 q 871 -35 918 -39 l 833 -35 q 774 -36 806 -35 q 715 -37 742 -37 l 676 -37 q 519 -31 593 -37 q 368 -14 444 -25 q 217 0 293 -3 q 60 -3 140 3 q 32 23 36 6 q 28 56 28 40 q 33 92 28 78 q 49 117 38 107 q 78 138 60 128 q 121 160 96 147 "},"h":{"ha":1031,"x_min":31,"x_max":1000,"o":"m 472 533 q 540 589 508 565 q 597 628 571 613 q 739 661 651 661 q 813 656 803 661 q 839 656 822 650 q 861 850 811 856 q 915 842 886 847 q 975 828 943 836 q 988 393 981 446 q 998 288 996 340 q 1000 189 1000 235 q 994 120 1000 156 q 972 54 988 85 q 930 4 957 24 q 861 -15 903 -15 q 853 63 861 32 q 832 115 844 93 q 806 151 819 136 q 779 183 792 167 q 758 220 767 200 q 750 272 750 240 q 760 313 750 297 q 783 344 771 329 q 805 374 794 358 q 815 411 815 389 q 815 440 815 425 q 813 471 814 454 q 769 521 811 506 q 703 537 728 536 q 654 538 678 538 q 620 519 643 538 q 569 471 597 500 q 513 406 542 442 q 459 338 483 371 q 419 278 435 304 q 404 239 404 251 q 405 217 404 235 q 411 194 406 200 q 509 182 465 189 q 585 157 553 175 q 634 104 617 139 q 651 10 651 69 l 31 11 q 99 129 56 128 q 164 133 142 133 q 206 168 190 143 q 231 229 222 193 q 243 309 240 265 q 246 401 246 353 q 244 565 246 482 q 251 717 242 649 q 285 830 260 786 q 364 874 310 874 l 378 874 q 379 800 378 847 q 389 702 381 753 q 417 605 397 651 q 472 533 436 558 "},"i":{"ha":486,"x_min":28,"x_max":433,"o":"m 363 356 q 349 260 363 296 q 321 190 336 225 q 292 106 306 154 q 279 -28 279 57 q 181 0 218 -28 q 125 72 144 28 q 99 170 106 115 q 93 278 93 225 q 98 312 93 300 q 109 336 103 324 q 120 367 115 349 q 125 422 125 386 q 110 513 125 471 q 76 594 94 554 q 43 674 58 633 q 28 760 28 714 q 47 831 28 806 q 95 867 65 856 q 161 881 125 879 q 232 883 197 883 l 282 883 q 338 880 308 883 q 392 868 367 876 q 424 847 417 860 q 433 803 431 833 q 417 757 431 778 q 375 710 404 736 q 322 654 346 685 q 297 583 297 624 q 308 524 297 551 q 330 469 318 496 q 352 414 342 442 q 363 356 363 386 "},"j":{"ha":772,"x_min":28,"x_max":740,"o":"m 740 435 q 724 488 740 457 q 687 548 708 518 q 644 602 665 578 q 614 636 624 626 q 644 665 624 657 q 687 682 665 674 q 724 706 708 690 q 740 756 740 721 q 739 781 740 764 q 734 813 738 797 q 724 840 731 828 q 707 851 717 851 l 58 851 l 58 697 q 129 693 88 696 q 215 683 171 690 q 303 663 260 676 q 382 626 347 650 q 438 567 417 603 q 460 482 460 532 q 392 363 460 418 q 323 311 360 336 q 244 264 286 286 q 96 193 167 221 q 28 158 28 167 q 42 86 28 114 q 79 42 56 58 q 133 19 103 25 q 197 13 164 13 l 290 13 l 310 13 q 344 15 322 13 q 379 17 365 17 l 399 17 q 465 87 439 47 q 513 168 492 126 q 558 251 535 210 q 614 325 581 292 q 649 344 628 336 q 691 364 671 353 q 726 391 711 375 q 740 435 740 407 "},"k":{"ha":782,"x_min":10,"x_max":726,"o":"m 400 575 q 404 528 394 557 q 431 499 375 494 l 726 499 q 722 480 726 499 q 708 453 718 461 q 663 421 689 433 q 611 397 638 408 q 585 385 597 392 q 561 371 572 378 q 472 333 538 356 q 497 197 494 224 l 508 167 q 544 126 528 144 q 572 92 560 107 q 558 40 597 61 q 367 -3 522 21 q 324 285 356 215 q 246 390 293 354 l 246 143 q 244 42 283 76 q 107 4 204 8 q 13 63 10 0 q 29 175 14 125 q 35 192 31 175 q 44 234 39 210 q 53 285 49 258 q 60 329 57 311 q 61 356 60 338 q 65 400 63 375 q 69 455 67 425 q 74 514 71 485 q 78 574 76 543 q 83 631 81 606 q 87 676 85 657 q 90 699 89 694 q 94 778 96 738 q 144 822 93 817 q 235 769 236 825 q 235 701 233 742 q 242 606 238 660 q 301 685 272 653 q 357 732 329 717 q 413 765 385 749 q 471 796 442 781 q 718 860 585 860 q 698 796 718 822 q 647 749 678 769 q 578 710 615 728 q 505 674 540 693 q 441 631 469 654 q 400 575 413 607 "},"l":{"ha":914,"x_min":22,"x_max":853,"o":"m 100 381 q 122 314 100 342 q 193 253 143 286 q 148 217 175 228 q 92 203 121 207 q 22 28 61 199 l 107 13 l 119 13 l 135 13 q 147 18 139 14 q 163 26 154 22 q 181 33 172 31 q 193 36 189 36 q 211 33 194 36 q 248 24 228 29 q 286 16 268 19 q 307 13 304 13 l 338 13 l 489 13 l 551 13 l 600 13 l 749 13 l 797 13 q 811 22 803 15 q 828 35 819 28 q 844 50 838 43 q 853 61 851 57 l 853 74 q 824 145 853 118 q 751 187 796 172 q 654 206 707 201 q 554 210 601 210 q 496 208 522 210 q 453 203 469 206 q 389 287 413 238 q 365 381 365 336 l 365 394 q 444 517 403 463 q 519 615 485 572 q 576 688 553 658 q 599 732 599 717 q 573 770 599 750 q 514 808 547 790 q 449 837 481 825 q 403 849 417 849 l 375 849 q 308 785 326 814 q 288 729 290 756 q 292 676 285 703 q 301 622 299 650 q 293 562 303 594 q 249 490 283 529 q 207 463 232 471 q 158 446 182 454 q 117 424 133 438 q 100 381 100 410 "},"m":{"ha":1321,"x_min":35,"x_max":1286,"o":"m 897 690 q 899 596 899 649 q 899 479 900 543 q 939 213 897 358 q 1039 44 981 76 q 1286 -19 1153 -19 q 1266 44 1286 17 q 1214 92 1246 71 q 1146 131 1183 113 q 1088 175 1108 149 q 1060 225 1067 201 q 1051 283 1053 249 q 1064 343 1050 318 l 1217 340 q 1217 399 1232 378 q 1176 436 1201 419 q 1128 458 1154 454 q 1061 501 1100 463 q 1056 682 1039 619 l 1058 696 q 1076 710 1067 707 q 1103 714 1086 713 q 1140 722 1124 715 q 1156 756 1156 729 q 1151 792 1156 774 q 1122 821 1147 811 q 1020 823 1088 821 q 869 828 953 825 q 693 835 785 832 q 517 842 601 839 q 365 848 433 846 q 263 850 297 850 l 219 850 q 149 851 186 850 q 81 853 111 853 l 35 853 q 48 783 35 814 q 83 728 61 753 q 132 683 104 703 q 188 646 160 663 q 209 630 201 638 q 223 615 217 622 q 236 600 229 607 q 256 585 243 593 q 304 511 304 553 l 304 110 q 333 96 304 106 q 360 86 349 90 q 381 79 372 82 q 395 78 385 79 q 413 76 406 76 q 458 81 429 76 q 489 110 489 86 l 489 665 l 597 665 q 603 648 599 665 q 612 606 607 631 q 621 556 617 582 q 628 511 625 529 q 629 484 628 503 q 633 440 631 465 q 637 385 635 415 q 642 326 639 356 q 647 266 644 297 q 651 209 649 235 q 655 165 653 183 q 658 142 657 146 q 678 88 665 101 q 721 74 690 74 q 781 100 761 74 q 814 172 801 126 l 814 450 l 814 697 l 897 690 "},"n":{"ha":981,"x_min":25,"x_max":939,"o":"m 319 697 q 446 846 378 817 q 539 872 511 875 q 612 866 572 871 q 697 853 651 861 q 814 713 797 800 q 858 585 831 625 q 903 496 886 544 q 933 344 928 425 q 939 192 939 263 q 933 123 939 158 q 911 57 926 88 q 869 7 896 26 q 800 -12 842 -12 q 792 65 800 35 q 771 117 783 96 q 744 154 758 139 q 718 186 731 169 q 697 223 706 203 q 689 275 689 243 q 699 316 689 300 q 722 347 710 332 q 744 376 733 361 q 754 414 754 392 q 738 463 754 439 q 710 567 722 489 q 663 640 697 646 q 638 637 649 638 q 615 638 628 636 q 586 647 603 640 q 543 668 569 654 q 503 685 524 685 q 438 651 471 685 q 375 560 404 617 q 338 417 336 483 q 339 354 339 383 q 340 301 339 325 q 342 263 342 278 q 343 242 343 249 q 344 220 343 238 q 350 197 346 203 q 369 192 356 194 q 403 186 382 189 q 454 153 444 179 q 453 14 464 131 l 25 14 q 125 139 64 115 q 155 189 138 150 q 179 282 172 228 q 185 402 186 338 q 183 533 185 467 q 185 662 183 600 q 199 772 188 724 q 235 848 211 819 q 303 876 258 876 l 318 876 q 319 802 318 849 q 319 697 321 756 "},"o":{"ha":753,"x_min":28,"x_max":739,"o":"m 28 521 q 70 686 28 628 q 181 778 113 744 q 288 820 231 797 q 401 851 344 843 q 474 853 440 858 q 536 826 508 849 q 557 804 550 815 q 567 781 564 793 q 572 753 571 768 q 576 719 574 738 q 586 609 582 665 q 586 485 590 553 q 586 385 592 431 q 608 347 596 367 q 631 303 619 326 q 682 256 658 278 q 715 221 706 235 q 733 154 728 204 q 708 61 739 104 q 676 26 690 40 q 647 4 661 11 l 590 4 l 457 4 q 278 15 365 4 q 125 50 192 25 q 58 125 58 72 q 69 167 58 151 q 94 195 81 183 q 118 219 107 207 q 129 253 129 232 q 113 324 129 293 q 78 383 97 354 q 44 444 60 413 q 28 521 28 476 m 224 533 q 269 332 224 446 q 319 276 300 278 q 342 276 328 274 q 375 282 356 279 l 411 296 q 434 361 429 343 q 439 389 439 379 l 439 406 q 441 422 442 414 q 439 438 440 429 q 436 457 438 446 q 435 485 435 468 q 433 542 435 515 q 425 590 431 568 q 368 646 415 646 q 328 633 353 646 q 281 601 304 619 q 241 563 258 582 q 224 533 224 544 z "},"p":{"ha":1238,"x_min":22,"x_max":1210,"o":"m 707 89 q 706 80 707 86 q 704 74 704 74 q 679 44 694 60 q 645 16 664 29 q 606 -6 626 3 q 565 -15 585 -15 l 550 -15 q 531 -10 542 -14 q 510 -1 519 -6 q 494 7 501 3 q 488 13 488 11 l 419 346 l 242 347 q 379 525 299 499 q 429 606 429 542 q 427 639 429 619 q 418 677 425 658 q 398 709 411 696 q 364 722 385 722 l 56 722 q 42 753 54 722 q 32 780 36 768 q 25 800 28 792 q 24 809 25 803 q 22 818 22 815 q 24 826 22 821 q 25 831 25 831 l 149 858 l 1167 858 q 1183 847 1172 858 q 1197 831 1194 836 q 1203 801 1200 818 q 1207 764 1206 783 q 1209 732 1208 742 q 1210 722 1210 722 l 1043 722 q 1040 677 1043 710 q 1031 608 1036 644 q 1020 539 1025 571 q 1013 497 1015 507 q 1003 442 1010 482 q 985 361 997 403 q 953 288 972 319 q 904 256 933 256 q 761 282 835 256 q 611 308 688 308 l 611 126 q 640 128 624 126 q 672 129 657 129 q 696 122 685 129 q 707 89 707 114 m 831 710 l 815 710 q 785 711 803 710 q 756 713 768 713 l 738 713 q 665 710 692 713 q 626 693 639 707 q 611 651 614 679 q 608 574 608 624 q 626 497 608 526 q 676 451 644 468 q 747 428 707 435 q 831 422 786 422 l 831 710 z "},"q":{"ha":1142,"x_min":32,"x_max":1114,"o":"m 515 101 q 533 168 515 138 q 617 179 556 199 l 617 392 q 538 377 574 392 q 469 346 503 363 q 400 315 435 329 q 324 300 365 300 q 264 324 288 300 q 225 385 240 347 q 202 468 210 422 q 191 559 194 514 q 187 643 188 604 q 185 704 186 682 q 144 724 164 713 q 106 747 124 735 q 72 768 88 758 q 47 783 57 778 q 93 858 32 796 l 1018 858 q 1065 846 1028 858 q 1092 835 1082 839 q 1111 828 1103 831 q 1113 822 1111 828 q 1114 811 1114 815 q 1065 763 1114 769 q 957 754 1017 756 q 849 738 896 751 q 800 657 800 721 q 804 601 800 624 q 833 550 808 578 q 848 545 842 547 q 860 540 854 543 q 903 411 869 536 l 833 411 q 828 355 832 393 q 817 270 825 317 q 797 175 810 224 q 763 86 783 126 q 715 20 743 46 q 649 -6 688 -6 q 515 101 515 -6 m 371 704 l 371 475 q 480 486 426 475 q 575 524 533 497 q 642 594 617 550 q 667 704 667 638 l 371 704 "},"r":{"ha":1057,"x_min":31,"x_max":1025,"o":"m 1025 31 q 1004 4 1025 22 q 983 -17 992 -8 q 969 -26 975 -25 l 958 -26 q 807 4 872 -26 q 685 80 742 35 q 578 177 629 125 q 474 271 528 229 q 458 273 465 275 q 446 267 451 271 q 436 259 440 263 q 432 256 432 256 l 432 99 q 429 92 432 99 q 419 72 426 86 q 367 57 407 49 q 330 126 344 96 q 306 181 315 157 q 288 227 296 204 q 275 272 281 250 q 263 372 264 319 q 253 486 261 424 q 204 608 243 564 q 166 643 185 626 q 129 671 147 660 q 94 694 111 683 q 61 718 76 706 q 31 801 31 739 q 58 863 31 844 q 126 885 86 881 q 208 887 165 889 q 279 889 250 885 l 308 889 q 351 880 324 885 q 416 869 379 875 q 496 858 453 864 q 583 844 539 851 q 668 833 625 839 q 750 820 711 826 q 817 809 789 814 q 858 801 846 804 q 867 767 858 793 q 888 709 876 740 q 908 649 899 678 q 917 606 917 619 q 915 596 917 600 q 914 592 914 592 l 897 574 q 885 561 892 567 q 871 549 878 556 q 792 493 858 536 q 755 472 776 485 q 704 440 733 458 q 659 415 676 425 q 635 403 642 406 q 613 382 618 399 q 608 350 608 365 q 674 244 608 285 q 742 206 704 224 q 817 173 779 189 q 892 142 856 157 q 958 113 929 128 q 1025 31 1025 81 m 633 683 l 397 714 l 442 486 q 597 567 563 519 q 633 683 633 615 "},"s":{"ha":994,"x_min":28,"x_max":972,"o":"m 121 117 q 122 108 121 114 q 124 101 124 101 q 139 83 126 97 q 167 54 151 69 q 197 26 183 39 q 217 10 211 13 q 238 8 221 10 q 276 6 256 7 q 316 4 297 6 q 339 3 335 3 q 445 16 390 3 q 546 57 500 29 q 622 129 592 85 q 651 235 651 174 q 638 315 651 285 q 602 360 625 344 q 549 381 579 376 q 485 386 518 386 q 421 389 453 388 q 360 397 389 390 q 310 422 332 404 q 278 472 289 439 q 290 490 278 478 q 308 503 303 503 l 343 503 l 401 503 l 460 503 l 494 503 q 524 538 526 506 q 543 603 522 567 q 639 672 563 638 q 739 702 675 690 q 894 719 803 714 q 972 843 972 760 l 247 843 q 224 849 242 844 q 185 859 206 854 q 146 868 164 864 q 124 874 128 872 l 106 874 q 49 844 71 874 q 28 781 28 815 q 48 724 28 747 q 97 685 68 700 q 159 664 126 671 q 217 657 192 657 q 138 574 151 611 q 121 475 121 536 q 146 369 121 407 q 209 310 171 331 q 292 278 247 289 q 374 256 336 268 q 438 224 413 244 q 463 164 463 204 q 451 145 463 157 q 432 133 439 133 l 419 133 q 394 131 411 133 q 363 129 376 129 l 339 129 q 285 135 304 129 q 251 148 265 140 q 224 161 238 156 q 185 167 210 167 q 141 156 161 167 q 121 117 121 144 "},"t":{"ha":994,"x_min":28,"x_max":950,"o":"m 197 482 q 219 550 197 522 q 290 611 240 578 q 245 645 272 635 q 189 660 218 656 q 131 667 160 664 q 79 677 101 669 q 42 702 57 685 q 28 756 28 719 l 28 803 l 204 851 l 217 851 l 232 851 q 243 846 235 850 q 260 838 251 842 q 278 831 269 833 q 290 828 288 828 q 308 831 292 828 q 345 840 325 835 q 383 848 365 844 q 404 851 401 851 l 435 851 l 586 851 l 649 851 l 697 851 l 846 851 l 894 851 q 908 842 900 849 q 926 828 917 836 q 942 814 935 821 q 950 803 949 807 l 950 790 q 922 717 950 744 q 849 676 893 690 q 751 658 804 663 q 651 654 699 654 q 593 656 619 654 q 550 661 567 658 q 486 577 510 626 q 463 482 463 528 l 463 469 q 531 383 488 424 q 626 310 575 343 q 731 249 678 276 q 828 199 785 221 q 899 160 871 176 q 926 133 926 144 q 894 94 926 115 q 822 56 863 74 q 744 25 782 38 q 692 13 706 13 l 664 13 q 583 76 615 47 q 526 133 550 106 q 485 186 503 160 q 448 241 467 213 q 405 302 429 269 q 346 374 381 335 q 304 401 329 393 q 255 418 279 410 q 214 440 231 426 q 197 482 197 453 "},"u":{"ha":953,"x_min":28,"x_max":931,"o":"m 578 258 q 597 226 588 247 q 613 180 606 206 q 626 124 619 154 q 636 65 632 94 q 713 26 647 8 q 781 114 778 44 q 783 186 782 150 q 782 258 783 222 q 782 408 782 335 q 788 543 782 482 q 812 649 794 604 q 864 710 829 693 q 906 715 883 710 q 914 850 931 722 l 464 850 q 451 753 442 797 q 489 689 461 708 q 515 672 503 679 q 539 657 528 664 q 617 640 561 647 q 622 614 621 633 q 624 590 624 594 q 608 546 624 576 q 569 478 593 515 q 515 401 544 440 q 458 328 486 361 q 408 274 431 294 q 374 253 385 253 q 322 264 350 253 q 269 294 293 275 q 228 340 244 314 q 213 396 213 365 q 223 438 213 421 q 245 472 233 456 q 267 506 257 488 q 278 553 278 525 q 269 610 278 588 q 249 652 261 633 q 222 688 236 671 q 196 730 208 706 q 175 789 183 754 q 167 876 167 824 q 98 854 125 876 q 56 799 71 832 q 34 724 40 765 q 28 646 28 683 q 28 563 28 607 q 33 475 29 519 q 44 386 38 431 q 64 301 51 342 q 96 228 78 264 q 140 162 114 193 q 202 105 165 131 q 292 61 239 79 q 461 94 408 36 q 540 186 521 144 q 578 258 558 225 "},"v":{"ha":958,"x_min":25,"x_max":925,"o":"m 810 599 l 800 372 q 779 294 783 354 q 752 274 764 282 q 733 260 740 265 q 676 218 701 236 q 631 183 651 200 q 594 150 611 167 q 560 114 576 133 l 560 101 q 537 39 560 68 q 479 10 514 10 l 475 10 l 471 10 q 468 11 469 10 q 465 12 465 11 q 464 13 464 13 q 458 21 461 15 q 424 60 433 43 q 390 101 411 78 l 390 114 q 356 150 374 133 q 318 183 339 167 q 272 218 297 200 q 217 260 247 236 q 198 274 210 265 q 171 294 186 282 q 140 321 140 317 l 140 599 q 51 654 78 624 q 25 738 25 685 q 75 822 25 799 q 176 846 129 846 l 247 846 q 297 694 296 742 q 279 629 300 647 q 278 614 279 625 q 276 591 276 603 q 274 568 275 579 q 272 553 272 557 q 278 464 272 481 q 331 417 310 436 q 364 386 353 397 q 390 365 376 375 q 417 343 403 354 q 447 316 432 329 q 476 289 463 303 q 542 331 504 311 q 590 374 564 350 q 633 428 617 397 q 678 553 678 485 q 676 568 678 557 q 674 591 675 579 q 672 614 674 603 q 671 629 671 625 q 643 726 650 649 q 703 846 636 807 l 774 846 q 875 822 821 846 q 925 738 925 799 q 858 700 883 731 q 810 599 833 669 "},"w":{"ha":1275,"x_min":13,"x_max":1247,"o":"m 401 151 q 399 246 400 193 q 400 363 399 299 q 360 628 401 483 q 260 797 318 765 q 13 861 146 861 q 33 798 13 825 q 83 750 53 771 q 153 711 115 729 q 211 667 190 693 q 239 617 232 640 q 247 558 246 593 q 235 499 249 524 l 82 501 q 82 443 67 464 q 122 406 97 422 q 171 383 144 388 q 238 340 199 379 q 243 160 260 222 l 240 146 q 222 132 232 135 q 196 128 213 129 q 159 119 175 126 q 143 86 143 113 q 147 49 143 68 q 176 21 151 31 q 277 19 211 21 q 425 13 343 17 q 597 6 507 10 q 769 -1 688 3 q 918 -6 851 -4 q 1019 -8 985 -8 l 1063 -8 q 1133 -10 1096 -8 q 1201 -11 1171 -11 l 1247 -11 q 1232 53 1247 28 q 1192 98 1217 79 q 1138 132 1168 117 q 1081 164 1108 147 q 1062 181 1065 172 q 1057 199 1058 189 q 1053 217 1056 208 q 1038 235 1050 226 q 1005 277 1015 250 q 994 325 994 304 l 994 732 q 965 746 994 735 q 938 756 950 751 q 918 763 926 760 q 903 764 914 763 q 886 765 893 765 q 840 761 869 765 q 810 732 810 756 l 810 176 l 701 176 q 695 194 699 176 q 687 235 692 211 q 678 286 682 260 q 671 331 674 313 q 669 358 671 339 q 666 401 668 376 q 662 456 664 426 q 657 515 660 486 q 652 576 654 544 q 648 633 650 607 q 644 677 646 658 q 640 700 642 696 q 621 754 633 740 q 578 768 608 768 q 517 742 538 768 q 485 669 497 715 l 485 392 l 485 144 l 401 151 "},"x":{"ha":1150,"x_min":28,"x_max":1114,"o":"m 429 172 q 336 -15 461 53 l 61 -15 q 43 -8 50 -15 q 33 9 36 -1 q 28 31 29 19 q 28 53 28 43 q 33 90 28 78 q 61 117 38 101 q 153 172 117 147 q 211 217 189 196 q 242 254 233 238 q 253 288 251 271 q 261 319 258 304 q 274 351 264 333 q 305 392 283 369 q 371 447 326 414 q 440 471 401 469 q 494 513 475 472 q 491 538 494 519 q 485 583 488 557 q 480 638 482 608 q 481 694 478 667 q 486 749 482 722 q 500 801 490 776 q 565 849 518 849 q 584 847 569 847 q 615 843 599 846 q 647 833 632 840 q 669 811 663 825 l 672 556 q 725 514 696 518 q 772 510 754 510 q 843 528 815 510 q 871 593 871 546 q 855 645 871 625 q 819 682 839 665 q 794 722 800 699 q 786 792 789 744 q 846 849 814 844 q 940 828 892 849 q 1026 773 988 808 q 1090 690 1065 738 q 1114 589 1114 643 q 1051 482 1114 525 q 988 442 1024 463 q 913 406 953 422 q 839 376 874 389 q 774 353 804 364 q 710 315 710 332 l 710 154 q 856 168 786 154 q 914 178 892 175 q 944 183 936 182 q 1047 126 1004 178 q 1088 67 1069 100 q 1108 -14 1106 33 l 611 -15 q 542 158 528 29 q 536 213 539 171 q 531 328 533 256 l 435 328 l 429 172 "},"y":{"ha":1081,"x_min":13,"x_max":1053,"o":"m 879 664 q 1006 718 960 669 q 1053 856 1053 767 l 714 856 q 708 800 710 829 q 704 739 706 771 q 715 653 704 678 q 728 583 728 629 q 702 481 728 528 q 633 401 676 435 q 583 473 603 440 q 553 536 564 506 q 510 645 542 565 q 428 856 479 725 l 46 856 q 17 828 24 856 q 13 783 13 800 q 33 738 13 754 q 85 713 54 721 q 154 702 117 704 q 225 700 192 700 q 293 694 281 700 q 319 673 301 693 q 358 622 338 653 q 401 553 379 590 q 441 481 424 515 q 470 417 458 446 q 482 376 482 389 q 463 341 482 357 q 416 310 444 325 q 355 277 388 294 q 294 236 322 260 q 247 181 265 213 q 228 106 228 150 q 242 24 228 50 q 315 -3 257 -3 q 362 18 350 -1 q 378 64 374 38 q 389 117 383 90 q 417 161 394 144 q 565 238 496 215 q 688 275 633 261 q 785 304 743 289 q 851 358 826 319 q 883 467 876 396 q 879 664 890 538 "},"z":{"ha":994,"x_min":28,"x_max":972,"o":"m 121 749 q 141 710 121 721 q 185 699 161 699 q 224 704 210 699 q 251 717 238 710 q 285 731 265 725 q 339 736 304 736 l 363 736 q 394 734 376 736 q 419 732 411 732 l 432 732 q 475 736 439 732 q 522 731 510 742 q 467 629 522 639 q 374 608 414 621 q 334 597 354 603 q 292 586 314 592 q 228 566 260 579 q 174 531 197 553 q 135 474 150 508 q 121 390 121 440 q 138 292 121 329 q 217 208 151 254 q 159 201 192 208 q 97 180 126 194 q 48 142 68 165 q 28 85 28 118 q 49 21 28 50 q 106 -8 71 -8 l 124 -8 q 146 -3 128 -7 q 185 7 164 1 q 224 17 206 13 q 247 22 242 21 l 972 22 q 894 146 972 106 q 739 163 803 151 q 639 193 675 175 q 543 263 561 229 q 524 328 522 299 q 494 363 526 360 l 460 363 l 401 363 l 343 363 l 308 363 q 290 375 303 363 q 278 393 278 388 q 310 444 289 426 q 360 468 332 461 q 421 476 389 475 q 485 479 453 478 q 549 484 518 479 q 602 505 579 489 q 638 551 625 521 q 651 631 651 581 q 654 696 651 661 q 663 769 657 731 q 588 842 675 849 q 444 849 503 836 q 339 863 393 863 q 316 861 335 863 q 276 859 297 860 q 238 857 256 858 q 217 856 221 856 q 197 840 211 853 q 167 811 183 826 q 139 782 151 796 q 124 764 126 768 q 122 758 124 764 q 121 749 121 751 "},"{":{"ha":775,"x_min":47,"x_max":646,"o":"m 47 436 q 49 451 47 440 q 51 461 51 461 l 461 915 l 568 925 q 601 915 581 925 q 629 897 621 906 q 638 876 635 888 q 646 853 642 865 l 646 849 q 590 814 646 825 l 526 751 l 329 433 q 327 419 329 433 q 325 397 325 406 q 330 344 325 376 q 344 274 335 311 q 369 198 354 236 q 403 129 383 160 q 447 79 422 99 q 503 58 472 60 l 581 11 q 593 -38 581 -21 q 606 -69 606 -56 q 595 -87 606 -79 q 554 -106 585 -94 q 510 -105 526 -106 q 481 -102 494 -104 q 451 -97 467 -100 q 408 -90 435 -94 q 268 -21 301 -75 q 232 78 236 39 q 227 105 231 89 q 219 137 224 121 q 212 164 215 153 q 208 178 208 175 q 183 247 208 217 q 128 305 158 276 q 72 364 97 333 q 47 436 47 394 "},"|":{"ha":458,"x_min":22,"x_max":413,"o":"m 126 250 q 140 155 126 190 q 169 83 153 119 q 199 -1 186 47 q 213 -133 213 -50 q 306 -106 276 -133 q 347 -34 336 -78 q 357 64 358 10 q 356 171 356 118 q 350 205 356 193 q 338 229 344 217 q 326 260 332 242 q 321 315 321 279 q 335 437 321 364 q 367 587 350 510 q 398 735 383 664 q 413 853 413 807 q 400 924 413 899 q 366 960 388 949 q 315 975 344 972 q 250 978 285 978 l 199 978 q 140 974 171 978 q 83 963 110 971 q 40 938 57 954 q 22 897 22 922 q 47 852 22 874 q 103 805 72 831 q 158 749 133 779 q 183 678 183 718 q 174 587 183 646 q 155 463 165 528 q 135 340 144 399 q 126 250 126 281 "},"}":{"ha":775,"x_min":46,"x_max":644,"o":"m 644 436 q 642 451 644 440 q 640 461 640 461 l 231 915 l 124 925 q 91 915 111 925 q 63 897 71 906 q 53 876 57 888 q 46 853 50 865 l 46 849 q 101 814 46 825 l 165 751 l 363 433 q 365 419 363 433 q 367 397 367 406 q 362 344 367 376 q 347 274 357 311 q 323 198 338 236 q 289 129 308 160 q 244 79 269 99 q 189 58 219 60 l 111 11 q 99 -38 111 -21 q 86 -69 86 -56 q 97 -87 86 -79 q 138 -106 107 -94 q 181 -105 165 -106 q 211 -102 197 -104 q 241 -97 225 -100 q 283 -90 257 -94 q 424 -21 390 -75 q 460 78 456 39 q 465 105 461 89 q 472 137 468 121 q 480 164 476 153 q 483 178 483 175 q 508 247 483 217 q 564 305 533 276 q 619 364 594 333 q 644 436 644 394 "},"~":{"ha":818,"x_min":28,"x_max":775,"o":"m 606 361 l 450 342 q 331 463 342 454 q 301 478 321 471 q 242 433 282 486 l 167 356 q 114 360 139 356 q 70 378 89 365 q 40 412 51 390 q 28 467 28 433 q 29 489 28 472 q 31 513 31 506 q 133 565 90 532 q 211 624 175 599 q 282 655 247 649 q 358 625 317 661 l 482 517 q 517 506 501 492 q 536 521 526 513 q 557 536 546 529 q 581 553 568 544 q 604 574 593 563 q 638 602 621 589 q 669 623 654 615 q 693 631 683 631 q 711 621 704 631 l 775 572 q 742 482 774 510 q 714 457 726 468 q 690 436 701 446 q 672 419 679 426 q 658 406 664 411 q 606 361 647 394 "},"":{"ha":951,"x_min":25,"x_max":921,"o":"m 118 158 l 118 436 q 140 461 118 443 q 161 477 153 471 q 176 488 169 483 q 286 554 243 521 q 367 625 329 588 q 449 704 406 663 q 560 796 492 746 q 635 842 603 828 q 706 856 667 856 l 765 856 q 783 856 772 856 q 806 857 794 857 q 779 781 790 794 q 750 754 771 769 q 699 676 714 710 q 685 618 685 643 q 699 539 685 564 q 731 496 714 514 q 762 456 747 478 q 776 383 776 433 q 788 304 776 343 q 819 228 800 265 q 864 155 839 190 q 917 85 889 119 q 920 72 919 81 q 921 51 921 63 l 921 46 q 919 20 921 33 q 915 -7 918 7 q 875 -28 907 -28 q 857 -26 861 -28 l 703 -26 l 665 -29 q 511 -23 585 -29 q 361 -6 438 -17 q 265 5 314 1 q 167 8 217 8 q 58 4 113 8 q 31 27 36 11 q 25 60 25 43 q 31 93 25 81 q 47 116 36 106 q 76 135 58 126 q 118 158 93 144 "},"":{"ha":281,"x_min":0,"x_max":228,"o":"m 18 192 l 15 15 l 0 -219 l 107 -15 l 133 6 l 135 6 l 135 3 q 131 -35 135 -7 q 128 -85 128 -62 q 129 -103 128 -96 q 135 -110 131 -110 q 147 -98 136 -110 q 168 -67 157 -86 q 189 -27 179 -49 q 199 15 199 -6 l 213 93 l 228 128 l 228 131 q 214 163 228 144 q 200 192 200 182 l 18 192 "},"":{"ha":871,"x_min":38,"x_max":807,"o":"m 567 381 l 567 221 l 336 222 l 325 169 l 346 10 l 138 -8 l 144 161 l 167 210 l 46 211 l 38 363 l 253 397 l 429 819 l 653 858 l 807 461 l 593 456 l 558 614 l 443 374 l 567 381 "},"":{"ha":607,"x_min":25,"x_max":528,"o":"m 29 203 l 25 26 l 90 -108 l 108 17 l 114 17 l 125 17 l 144 17 q 155 -6 150 17 q 165 -56 160 -29 q 176 -106 171 -83 q 189 -128 182 -128 q 194 -111 190 -128 q 201 -71 197 -94 q 207 -21 204 -47 q 210 26 210 6 l 224 104 l 239 139 q 240 142 240 140 q 235 156 240 147 q 226 174 231 165 q 216 191 221 183 q 211 203 211 199 l 29 203 m 317 203 l 313 26 l 378 -108 l 396 17 l 401 17 l 413 17 l 432 17 q 442 -6 438 17 q 453 -56 447 -29 q 464 -106 458 -83 q 476 -128 469 -128 q 481 -111 478 -128 q 488 -71 485 -94 q 494 -21 492 -47 q 497 26 497 6 l 511 104 l 526 139 q 528 142 528 140 q 523 156 528 147 q 513 174 518 165 q 503 191 508 183 q 499 203 499 199 l 317 203 "},"":{"ha":882,"x_min":21,"x_max":790,"o":"m 25 193 l 207 193 q 211 180 207 188 q 221 164 215 172 q 231 147 226 156 q 235 132 235 139 l 235 129 l 219 94 l 206 29 q 190 3 193 7 q 188 1 188 0 q 186 6 188 6 l 99 6 q 94 1 94 6 l 21 15 l 25 193 m 296 199 l 478 199 q 482 185 478 193 q 492 169 486 178 q 501 153 497 161 q 506 138 506 144 l 506 135 l 490 100 l 476 35 q 461 9 464 13 q 458 7 458 6 q 457 11 458 11 l 369 11 q 365 7 365 11 l 292 21 l 296 199 m 581 193 l 763 193 q 767 180 763 188 q 776 164 771 172 q 786 147 782 156 q 790 132 790 139 l 790 129 l 775 94 l 761 29 q 746 3 749 7 q 743 1 743 0 q 742 6 743 6 l 654 6 q 650 1 650 6 l 576 15 l 581 193 "},"":{"ha":664,"x_min":43,"x_max":625,"o":"m 618 457 l 625 588 l 425 610 l 408 865 l 253 846 l 249 607 l 43 603 l 43 453 l 235 442 l 258 -64 l 424 -107 l 417 469 l 618 457 "},"":{"ha":664,"x_min":38,"x_max":632,"o":"m 622 139 l 632 279 l 418 285 l 407 474 l 618 478 l 625 615 l 413 601 l 413 857 l 243 865 l 254 599 l 49 614 l 38 482 l 253 460 l 251 290 l 47 286 l 47 136 l 249 139 l 256 -106 l 426 -108 l 419 153 l 622 139 "},"":{"ha":776,"x_min":46,"x_max":714,"o":"m 597 513 l 714 654 q 697 685 706 664 q 686 736 689 707 q 659 757 671 749 q 640 771 647 765 q 584 813 608 794 q 539 847 560 831 q 501 881 518 864 q 467 917 483 897 l 467 929 q 444 992 467 963 q 386 1021 421 1021 l 382 1021 l 378 1021 q 375 1019 376 1021 q 372 1019 372 1019 q 371 1018 371 1018 q 365 1010 368 1015 q 331 971 340 988 q 297 929 318 951 l 297 917 q 263 881 281 897 q 225 848 246 864 q 179 813 204 832 q 124 771 154 794 q 105 757 117 765 q 78 736 93 749 q 47 710 46 713 l 154 533 q 169 519 164 518 q 177 531 174 521 q 182 551 181 540 q 185 567 183 563 q 271 644 249 622 q 297 666 283 656 q 324 688 310 676 q 354 715 339 701 q 383 742 369 728 q 413 720 397 731 q 449 700 429 710 q 497 657 471 681 q 540 603 524 633 q 562 579 551 589 q 580 560 572 569 q 592 540 588 551 q 597 513 597 529 "},"":{"ha":1826,"x_min":35,"x_max":1733,"o":"m 781 482 q 722 418 747 426 q 672 401 699 410 q 631 375 646 393 q 572 303 596 336 q 529 242 549 271 q 492 188 510 214 q 451 133 475 161 q 395 76 428 106 q 314 13 363 47 l 286 13 q 234 25 272 13 q 155 56 196 38 q 83 94 114 74 q 51 133 51 115 q 78 160 51 144 q 149 199 106 176 q 246 249 193 221 q 351 310 299 276 q 447 384 403 344 q 515 469 490 424 l 515 482 q 608 604 594 564 q 622 644 615 624 q 633 685 628 665 q 711 801 644 726 l 713 801 q 721 808 717 801 q 729 824 725 815 q 738 842 733 833 q 746 851 742 850 l 774 851 l 950 803 l 950 756 q 942 697 951 715 q 917 671 932 679 q 885 657 903 663 q 854 638 868 651 q 825 597 836 622 q 814 563 814 571 q 808 545 814 554 q 797 527 803 536 q 785 507 790 518 q 781 482 781 496 m 513 669 l 513 667 q 503 635 513 650 q 484 608 494 621 q 465 583 474 596 q 457 558 457 571 q 458 543 457 551 q 454 517 458 535 q 449 510 449 513 q 453 499 449 506 q 457 474 457 493 l 457 465 q 450 448 454 458 q 444 435 446 438 l 439 435 q 402 433 419 435 q 367 428 385 431 q 331 424 350 426 q 289 422 313 422 l 257 422 l 247 422 l 215 422 q 213 424 214 424 l 211 425 q 160 431 183 428 q 108 435 136 435 l 103 435 q 97 448 100 438 q 90 465 93 458 l 90 474 q 94 499 90 493 q 99 510 99 506 q 93 517 99 511 q 89 543 89 535 l 89 558 q 81 583 89 571 q 62 608 72 596 q 43 635 51 621 q 35 667 35 650 l 35 669 l 35 682 l 196 868 l 214 868 l 215 868 l 350 868 l 511 682 q 512 677 511 682 q 513 669 513 672 m 279 524 l 279 522 l 335 522 q 363 538 351 524 q 381 572 374 553 q 390 610 388 590 q 393 644 393 631 q 392 654 393 649 q 392 660 392 660 l 278 788 l 271 788 l 157 660 l 157 644 q 160 610 157 631 q 169 572 163 590 q 187 538 175 553 q 215 522 199 524 l 279 524 m 1175 257 l 1175 254 q 1166 223 1175 238 q 1147 196 1157 208 q 1128 171 1136 183 q 1119 146 1119 158 q 1120 131 1119 139 q 1117 104 1121 122 q 1111 97 1111 100 q 1115 87 1111 93 q 1119 61 1119 81 l 1119 53 q 1113 35 1117 46 q 1107 22 1108 25 l 1101 22 q 1065 20 1082 22 q 1030 16 1047 18 q 994 12 1013 14 q 951 10 975 10 l 919 10 l 910 10 l 878 10 q 875 11 876 11 l 874 13 q 822 19 846 15 q 771 22 799 22 l 765 22 q 759 35 763 25 q 753 53 756 46 l 753 61 q 757 87 753 81 q 761 97 761 93 q 756 104 761 99 q 751 131 751 122 l 751 146 q 743 171 751 158 q 724 196 735 183 q 706 223 714 208 q 697 254 697 238 l 697 257 l 697 269 l 858 456 l 876 456 l 878 456 l 1013 456 l 1174 269 q 1174 265 1174 269 q 1175 257 1175 260 m 942 111 l 942 110 l 997 110 q 1025 126 1014 111 q 1043 159 1036 140 q 1053 198 1050 178 q 1056 232 1056 218 q 1055 242 1056 236 q 1054 247 1054 247 l 940 375 l 933 375 l 819 247 l 819 232 q 822 198 819 218 q 831 159 825 178 q 849 126 838 140 q 878 110 861 111 l 942 111 m 1733 68 l 1733 56 l 1733 68 m 1731 256 l 1731 253 q 1722 222 1731 236 q 1702 194 1713 207 q 1683 169 1692 182 q 1675 144 1675 157 q 1676 129 1675 138 q 1672 103 1676 121 q 1667 96 1667 99 q 1671 85 1667 92 q 1675 60 1675 79 l 1675 51 q 1668 34 1672 44 q 1663 21 1664 24 l 1657 21 q 1620 19 1638 21 q 1585 15 1603 17 q 1549 10 1568 13 q 1507 8 1531 8 l 1475 8 l 1465 8 l 1433 8 q 1431 10 1432 10 l 1429 11 q 1378 17 1401 14 q 1326 21 1354 21 l 1321 21 q 1315 34 1318 24 q 1308 51 1311 44 l 1308 60 q 1313 85 1308 79 q 1317 96 1317 92 q 1311 103 1317 97 q 1307 129 1307 121 l 1307 144 q 1299 169 1307 157 q 1280 194 1290 182 q 1261 222 1269 207 q 1253 253 1253 236 l 1253 256 l 1253 268 l 1414 454 l 1432 454 l 1433 454 l 1568 454 l 1729 268 q 1730 263 1729 268 q 1731 256 1731 258 m 1497 110 l 1497 108 l 1553 108 q 1581 124 1569 110 q 1599 158 1592 139 q 1608 197 1606 176 q 1611 231 1611 217 q 1610 240 1611 235 q 1610 246 1610 246 l 1496 374 l 1489 374 l 1375 246 l 1375 231 q 1378 197 1375 217 q 1387 158 1381 176 q 1405 124 1393 139 q 1433 108 1417 110 l 1497 110 "},"":{"ha":688,"x_min":18,"x_max":644,"o":"m 299 525 q 282 524 283 525 q 251 515 268 522 q 223 512 242 513 q 175 514 204 511 q 125 549 143 525 q 97 604 107 574 q 88 650 93 626 q 86 701 82 674 q 110 760 90 728 q 175 836 129 793 q 231 866 211 854 q 272 878 251 878 q 322 878 294 879 q 392 876 350 876 l 429 876 l 543 876 l 576 876 q 610 847 586 868 q 626 830 619 838 q 639 818 633 822 q 640 813 639 818 q 642 803 642 807 q 640 794 642 800 q 639 789 639 789 q 624 770 632 781 q 606 747 617 760 q 564 736 575 736 l 258 742 l 238 679 q 362 660 292 676 q 495 612 432 643 q 601 535 558 581 q 644 431 644 490 q 583 292 644 374 q 440 136 519 208 q 355 67 397 99 q 269 10 313 35 q 129 -49 179 -49 q 98 -42 117 -49 q 62 -24 79 -35 q 31 -1 44 -14 q 18 25 18 13 q 19 35 18 32 q 21 39 21 39 q 33 47 24 43 q 52 56 42 51 q 72 63 63 60 q 83 69 81 67 q 103 83 89 69 q 125 100 113 90 q 148 119 138 110 q 166 138 158 129 q 175 151 174 147 q 177 157 175 151 q 179 165 179 163 q 249 222 210 192 q 328 283 288 253 q 407 340 368 313 q 478 389 446 368 q 421 489 478 456 q 299 525 364 525 m 533 1310 l 607 1221 q 596 1199 601 1214 q 588 1164 590 1183 q 570 1149 578 1156 q 558 1139 563 1143 q 492 1087 518 1108 q 446 1039 465 1065 l 446 1029 q 431 987 446 1007 q 393 967 415 967 l 390 967 l 388 967 l 386 967 l 383 967 l 383 968 q 381 971 382 969 q 379 974 381 972 q 365 988 371 981 q 357 1000 360 994 q 335 1029 346 1018 l 335 1039 q 288 1085 313 1064 q 222 1139 263 1107 q 209 1149 217 1143 q 192 1164 201 1156 q 172 1182 171 1181 l 242 1304 q 251 1313 247 1314 q 258 1306 256 1313 q 260 1292 260 1300 q 261 1281 261 1285 q 297 1248 282 1261 q 318 1228 311 1235 q 335 1213 326 1219 q 351 1197 343 1206 q 390 1160 369 1182 q 410 1175 400 1168 q 433 1186 421 1182 q 465 1219 447 1203 q 493 1256 482 1235 q 508 1271 500 1265 q 521 1281 515 1276 q 530 1292 526 1286 q 533 1310 533 1299 "},"":{"ha":693,"x_min":83,"x_max":592,"o":"m 592 232 q 564 237 575 232 q 544 249 553 242 q 525 267 535 257 q 501 289 515 278 q 447 332 471 306 q 404 381 424 358 q 384 416 394 400 q 363 446 374 432 q 390 475 376 460 q 417 506 403 490 q 438 533 428 519 q 460 558 449 546 q 538 644 481 579 q 553 647 542 646 q 573 652 564 649 q 584 660 582 656 q 571 675 586 665 l 394 782 q 368 751 392 785 q 347 724 356 736 q 333 706 339 713 q 292 649 310 674 q 257 603 274 624 q 224 566 240 583 q 188 532 207 549 l 175 532 q 133 499 151 511 q 94 464 117 489 q 86 458 90 463 q 85 458 86 458 q 85 454 85 457 q 83 451 83 453 l 83 447 l 83 443 q 113 385 83 408 q 175 363 142 363 l 188 363 q 224 328 207 346 q 256 290 240 311 q 291 244 272 269 q 333 189 310 219 q 347 170 339 182 q 368 143 356 158 q 419 132 397 140 q 450 115 440 124 l 592 232 "},"":{"ha":1782,"x_min":39,"x_max":1728,"o":"m 1589 783 q 1571 717 1589 747 q 1546 708 1568 713 q 1490 698 1524 703 q 1416 688 1457 693 q 1333 680 1375 683 q 1253 674 1292 676 q 1189 672 1215 672 q 1160 673 1171 672 q 1144 675 1150 674 l 1144 463 q 1226 471 1188 463 q 1303 489 1265 479 q 1381 507 1342 499 q 1461 515 1419 515 q 1521 492 1497 515 q 1560 431 1544 468 q 1560 417 1564 421 q 1549 411 1557 414 q 1528 405 1540 408 q 1504 392 1517 401 q 1396 365 1456 351 q 1282 368 1336 376 q 1186 333 1228 360 q 1119 260 1144 306 q 1094 150 1094 214 l 1390 150 q 1518 154 1490 154 q 1576 150 1544 154 q 1617 131 1597 142 q 1656 108 1638 119 q 1689 86 1674 96 q 1714 71 1704 76 q 1668 -4 1728 58 l 876 -7 q 833 4 869 -7 q 808 -9 822 -3 q 783 -15 793 -15 l 444 -15 l 43 358 q 41 369 43 358 q 39 383 39 379 l 39 389 q 60 451 39 424 q 108 505 82 479 q 156 555 135 531 q 178 606 178 579 q 176 635 178 618 q 186 688 175 653 q 200 703 200 696 q 197 711 200 707 q 190 723 194 715 q 183 743 186 731 q 181 775 181 756 l 181 790 q 188 806 183 796 q 198 826 193 817 q 206 843 203 836 q 211 851 210 850 l 224 851 q 316 856 274 851 q 401 864 358 860 q 492 872 444 868 q 599 876 539 876 l 783 876 q 862 808 829 851 q 894 713 894 765 l 475 713 q 399 677 429 711 q 351 597 369 643 q 324 502 332 551 q 317 422 317 453 q 319 400 317 414 q 321 386 321 386 l 629 83 l 806 96 q 819 92 813 93 q 832 89 825 92 q 831 92 840 90 q 812 96 822 94 q 795 99 801 97 q 804 100 789 100 q 913 117 864 101 q 961 197 961 133 q 957 253 961 231 q 928 304 953 276 q 902 315 913 304 q 876 333 892 325 q 859 347 869 336 q 844 364 849 357 q 836 410 838 381 q 834 433 835 425 q 833 440 833 440 l 928 443 q 933 499 929 461 q 944 584 936 538 q 965 679 951 631 q 998 768 978 728 q 1046 834 1018 808 q 1113 860 1074 860 q 1178 859 1135 860 q 1275 856 1222 858 q 1384 848 1328 853 q 1485 835 1440 843 q 1560 814 1531 826 q 1589 783 1589 801 "},"":{"ha":713,"x_min":25,"x_max":651,"o":"m 25 426 q 86 276 25 363 q 229 110 154 182 q 315 34 272 68 q 400 -28 357 0 q 540 -87 489 -87 q 572 -81 553 -87 q 608 -63 590 -74 q 638 -39 625 -53 q 651 -10 651 -25 q 650 1 651 -3 q 649 4 649 4 q 637 13 646 8 q 617 21 628 17 q 598 29 607 25 q 586 36 589 33 q 567 51 578 39 q 544 71 556 60 q 522 92 532 82 q 503 112 511 103 q 494 125 496 121 q 492 131 494 125 q 490 140 490 138 q 511 192 490 172 q 557 233 532 213 q 603 278 582 253 q 624 344 624 303 q 494 514 624 474 q 544 553 525 526 q 572 612 563 579 q 583 678 581 644 q 586 738 586 711 l 485 851 q 438 892 458 881 q 397 906 418 904 q 347 906 375 908 q 278 903 319 903 l 240 903 l 126 903 l 93 903 q 60 874 82 894 q 43 855 50 863 q 31 842 36 847 q 29 835 31 842 q 28 825 28 829 q 29 817 28 822 q 31 811 31 811 q 45 790 38 801 q 64 767 53 779 q 93 738 86 738 l 432 738 l 432 692 q 308 671 378 689 q 174 619 238 653 q 68 538 111 586 q 25 426 25 490 m 401 347 l 454 375 q 435 268 474 293 q 336 304 399 240 l 401 347 m 371 526 q 388 525 376 526 q 401 524 399 524 q 313 420 363 460 q 192 381 264 381 q 249 489 192 453 q 371 526 304 526 m 456 1343 q 452 1324 456 1332 q 444 1310 449 1317 q 432 1297 439 1304 q 418 1281 425 1290 q 390 1244 407 1260 q 358 1211 372 1228 q 335 1200 346 1207 q 315 1185 325 1193 q 276 1222 294 1207 q 260 1238 268 1231 q 243 1253 251 1244 q 222 1273 236 1260 q 186 1306 207 1286 q 185 1317 186 1310 q 183 1331 185 1325 q 176 1338 181 1338 q 167 1329 172 1339 l 97 1207 q 117 1189 96 1206 q 134 1174 126 1181 q 147 1164 142 1168 q 213 1110 188 1132 q 260 1064 238 1089 l 260 1054 q 282 1025 271 1043 q 290 1013 285 1019 q 304 999 296 1006 q 306 996 306 997 q 308 993 307 994 l 308 992 l 311 992 l 313 992 l 315 992 l 318 992 q 356 1012 340 992 q 371 1054 371 1032 l 371 1064 q 417 1112 390 1090 q 483 1164 443 1133 q 495 1174 488 1168 q 513 1189 503 1181 q 521 1224 515 1208 q 532 1246 526 1239 l 456 1343 "},"":{"ha":281,"x_min":19,"x_max":235,"o":"m 24 914 l 19 738 l 85 603 l 103 728 l 108 728 l 119 728 l 139 728 q 149 705 144 728 q 160 655 154 682 q 171 606 165 628 q 183 583 176 583 q 188 600 185 583 q 195 640 192 617 q 201 690 199 664 q 204 738 204 717 l 218 815 l 233 850 q 235 853 235 851 q 230 868 235 860 q 220 885 225 876 q 210 902 215 894 q 206 914 206 910 l 24 914 "},"":{"ha":281,"x_min":18,"x_max":233,"o":"m 229 583 l 47 583 q 42 595 47 588 q 33 612 38 603 q 23 629 28 621 q 18 644 18 638 q 19 647 18 646 l 35 682 l 49 760 q 51 807 49 781 q 58 857 54 833 q 65 897 61 881 q 69 914 68 914 q 82 891 76 914 q 93 841 88 868 q 103 792 99 814 q 114 769 108 769 l 133 769 l 144 769 l 150 769 l 168 894 l 233 760 l 229 583 "},"":{"ha":607,"x_min":19,"x_max":522,"o":"m 24 914 l 206 914 q 210 902 206 910 q 220 885 215 894 q 230 867 225 876 q 235 853 235 858 q 233 850 235 851 l 218 815 l 204 738 q 201 690 204 717 q 195 640 199 664 q 188 600 192 617 q 183 583 185 583 q 171 606 176 583 q 160 655 165 628 q 149 705 154 682 q 139 728 144 728 l 119 728 l 108 728 l 103 728 l 85 603 l 19 738 l 24 914 m 311 914 l 493 914 q 498 902 493 910 q 508 885 503 894 q 517 867 513 876 q 522 853 522 858 q 521 850 522 851 l 506 815 l 492 738 q 489 690 492 717 q 483 640 486 664 q 476 600 479 617 q 471 583 472 583 q 458 606 464 583 q 447 655 453 628 q 437 705 442 682 q 426 728 432 728 l 407 728 l 396 728 l 390 728 l 372 603 l 307 738 l 311 914 "},"":{"ha":607,"x_min":19,"x_max":522,"o":"m 518 583 l 522 760 l 457 894 l 439 769 l 433 769 l 422 769 l 403 769 q 392 792 397 769 q 382 841 388 814 q 371 891 376 868 q 358 914 365 914 q 353 897 357 914 q 347 857 350 881 q 340 807 343 833 q 338 760 338 781 l 324 682 l 308 647 q 307 644 307 646 q 312 630 307 639 q 322 612 317 621 q 331 595 326 603 q 336 583 336 588 l 518 583 m 231 583 l 235 760 l 169 894 l 151 769 l 146 769 l 135 769 l 115 769 q 105 792 110 769 q 94 841 100 814 q 83 891 89 868 q 71 914 78 914 q 66 897 69 914 q 59 857 63 881 q 53 807 56 833 q 50 760 50 781 l 36 682 l 21 647 q 19 644 19 646 q 24 630 19 639 q 34 612 29 621 q 44 595 39 603 q 49 583 49 588 l 231 583 "},"":{"ha":606,"x_min":65,"x_max":539,"o":"m 310 192 l 310 190 l 421 190 q 477 220 454 192 q 514 288 500 249 q 533 367 528 326 q 539 435 539 408 q 538 453 539 442 q 536 465 536 465 l 342 703 l 239 696 l 67 465 q 66 453 67 465 q 65 435 65 442 q 71 367 65 408 q 90 288 76 326 q 125 220 103 249 q 182 190 147 192 l 310 192 "},"":{"ha":846,"x_min":28,"x_max":800,"o":"m 769 356 l 250 338 q 249 344 250 339 q 247 353 247 349 q 206 354 226 353 q 167 356 186 356 q 114 360 139 356 q 70 378 89 365 q 40 412 51 390 q 28 467 28 433 q 29 489 28 472 q 31 513 31 506 q 136 535 89 532 q 226 535 183 539 q 315 524 269 531 q 414 517 360 517 l 482 517 q 591 515 533 517 q 699 513 649 513 l 769 513 q 778 500 774 508 q 788 483 783 492 q 797 465 793 474 q 800 450 800 456 q 788 401 800 440 q 776 372 781 383 q 769 356 772 361 "},"":{"ha":942,"x_min":28,"x_max":881,"o":"m 850 361 q 857 378 853 367 q 868 407 861 389 q 881 456 881 446 q 877 470 881 461 q 869 488 874 479 q 859 506 864 497 q 850 518 854 514 l 779 518 q 672 520 729 518 q 563 522 614 522 l 414 517 q 315 524 360 517 q 226 535 269 531 q 136 535 183 539 q 31 513 89 532 q 29 489 31 506 q 28 467 28 472 q 40 412 28 433 q 70 378 51 390 q 114 360 89 365 q 167 356 139 356 q 206 354 186 356 q 247 353 226 353 q 249 344 247 349 q 250 338 250 339 l 850 361 "},"":{"ha":725,"x_min":28,"x_max":671,"o":"m 525 878 l 392 861 q 289 964 296 960 q 264 978 283 968 q 213 939 246 983 l 147 872 q 64 892 100 872 q 28 968 28 911 q 29 986 28 972 q 31 1007 31 1000 q 119 1053 82 1024 q 187 1104 156 1082 q 247 1131 218 1126 q 313 1104 276 1136 l 418 1011 q 449 1001 435 990 q 465 1015 457 1008 q 483 1028 472 1021 q 503 1043 493 1035 q 524 1060 514 1051 q 578 1102 553 1086 q 615 1100 604 1118 l 671 1058 q 642 981 669 1006 q 617 960 628 969 q 597 942 607 950 l 571 915 q 554 901 565 911 q 525 878 543 892 "},"":{"ha":1307,"x_min":19,"x_max":1261,"o":"m 113 678 q 124 715 113 700 q 164 749 136 729 q 124 772 149 768 q 76 779 100 776 q 36 790 53 782 q 19 828 19 799 l 19 854 l 117 881 l 132 881 q 147 873 135 878 q 164 868 160 868 q 174 870 164 868 q 194 874 183 872 q 215 878 206 876 q 226 881 225 881 l 496 881 q 514 868 503 878 q 526 854 525 858 l 526 847 q 510 808 526 822 q 471 785 494 793 q 418 774 447 776 q 363 772 389 772 q 307 776 325 772 q 271 730 283 757 q 258 678 258 703 l 258 671 q 322 603 279 633 q 407 549 364 572 q 482 510 450 526 q 514 486 514 494 q 497 465 514 476 q 457 443 479 453 q 413 426 435 433 q 385 419 392 419 l 369 419 q 308 471 329 449 q 271 515 286 493 q 240 562 256 538 q 194 618 224 586 q 171 633 185 628 q 144 642 157 638 q 122 655 131 647 q 113 678 113 663 m 1047 783 l 1001 788 l 1001 499 q 984 459 994 474 q 950 444 974 444 q 927 452 933 444 q 917 482 921 460 q 915 494 915 483 q 913 519 914 504 q 910 550 911 533 q 907 583 908 567 q 902 647 904 617 q 900 685 900 676 q 896 709 899 694 q 891 738 893 724 q 887 760 889 751 q 883 769 885 769 l 824 769 l 824 464 q 807 449 824 453 q 792 447 799 447 q 781 446 786 446 q 772 447 776 446 q 764 447 767 447 l 738 457 q 721 464 721 463 l 721 685 q 694 726 721 708 q 677 742 682 735 q 657 760 672 750 q 600 805 626 779 q 574 874 574 831 l 599 874 l 675 874 l 699 872 l 1171 856 q 1188 840 1186 850 q 1190 819 1190 831 q 1181 801 1190 804 q 1161 797 1172 797 l 1158 797 l 1157 797 l 1156 797 l 1154 797 q 1145 794 1149 796 q 1136 788 1142 793 l 1135 779 q 1131 743 1131 764 q 1133 716 1131 732 q 1138 681 1135 700 l 1139 592 q 1132 563 1132 575 q 1138 528 1132 540 q 1153 500 1140 517 q 1185 476 1164 486 q 1222 454 1206 465 q 1251 428 1240 443 q 1261 393 1261 414 q 1125 429 1190 393 q 1071 521 1093 446 q 1049 658 1049 592 l 1049 668 l 1049 731 q 1049 758 1049 746 q 1047 783 1049 772 "},"":{"ha":994,"x_min":28,"x_max":972,"o":"m 121 117 q 141 156 121 144 q 185 167 161 167 q 224 161 210 167 q 251 148 238 156 q 285 135 265 140 q 339 129 304 129 l 363 129 q 394 131 376 129 q 419 133 411 133 l 432 133 q 451 145 439 133 q 463 164 463 157 q 438 224 463 204 q 374 256 413 244 q 292 278 336 268 q 209 310 247 289 q 146 369 171 331 q 121 475 121 407 q 138 574 121 536 q 217 657 151 611 q 159 664 192 657 q 97 685 126 671 q 48 724 68 700 q 28 781 28 747 q 49 844 28 815 q 106 874 71 874 l 124 874 q 146 868 128 872 q 185 858 164 864 q 224 849 206 853 q 247 843 242 844 l 972 843 q 894 719 972 760 q 739 702 803 714 q 639 672 675 690 q 543 603 561 636 q 524 538 522 567 q 494 503 526 506 l 460 503 l 401 503 l 343 503 l 308 503 q 290 490 303 503 q 278 472 278 478 q 310 422 289 439 q 360 397 332 404 q 421 389 389 390 q 485 386 453 388 q 549 381 518 386 q 602 360 579 376 q 638 315 625 344 q 651 235 651 285 q 622 129 651 174 q 546 57 592 85 q 445 16 500 29 q 339 3 390 3 q 316 4 335 3 q 276 6 297 6 q 238 8 256 7 q 217 10 221 10 q 197 26 211 13 q 167 54 183 39 q 139 83 151 69 q 124 101 126 97 q 122 108 124 101 q 121 117 121 114 m 583 1264 l 657 1175 q 646 1153 651 1168 q 638 1118 640 1138 q 620 1103 628 1110 q 608 1093 613 1097 q 542 1041 568 1063 q 496 993 515 1019 l 496 983 q 481 941 496 961 q 443 921 465 921 l 440 921 l 438 921 l 436 921 l 433 921 l 433 922 q 431 925 432 924 q 429 928 431 926 q 415 942 421 935 q 407 954 410 949 q 385 983 396 972 l 385 993 q 338 1040 363 1018 q 272 1093 313 1061 q 259 1103 267 1097 q 242 1118 251 1110 q 222 1136 221 1135 l 292 1258 q 301 1267 297 1268 q 308 1260 306 1267 q 310 1247 310 1254 q 311 1235 311 1239 q 347 1202 332 1215 q 368 1182 361 1189 q 385 1167 376 1174 q 401 1151 393 1160 q 440 1114 419 1136 q 460 1129 450 1122 q 483 1140 471 1136 q 515 1173 497 1157 q 543 1210 532 1189 q 558 1225 550 1219 q 571 1235 565 1231 q 580 1247 576 1240 q 583 1264 583 1253 "},"":{"ha":701,"x_min":83,"x_max":592,"o":"m 83 232 l 225 115 q 256 132 235 124 q 307 143 278 140 q 328 170 319 158 q 342 189 336 182 q 383 244 365 219 q 418 290 401 269 q 451 328 435 311 q 488 363 468 346 l 500 363 q 563 385 533 363 q 592 443 592 408 l 592 447 l 592 451 q 590 454 592 453 q 590 458 590 457 q 589 458 589 458 q 581 464 586 461 q 542 499 558 489 q 500 532 522 511 l 488 532 q 451 566 468 549 q 419 604 435 583 q 384 649 403 625 q 342 706 365 674 q 328 724 336 713 q 307 751 319 736 q 281 782 283 783 l 104 675 q 90 660 89 665 q 101 652 92 656 q 122 647 111 649 q 138 644 133 646 q 215 558 193 579 q 237 533 226 546 q 258 506 247 519 q 285 475 272 490 q 313 446 299 460 q 291 416 301 432 q 271 381 281 400 q 228 332 251 358 q 174 289 204 306 q 150 267 160 278 q 131 249 140 257 q 111 237 122 242 q 83 232 100 232 "},"":{"ha":936,"x_min":47,"x_max":1824,"o":"m 47 478 q 49 492 47 482 q 51 503 51 503 l 453 876 l 792 876 q 824 867 804 876 q 853 849 844 857 q 862 828 858 839 q 869 804 865 817 q 814 765 875 778 l 638 778 l 329 475 q 327 461 329 475 q 325 439 325 447 q 333 358 325 407 q 359 264 340 310 q 408 184 378 218 q 483 149 438 150 l 903 149 q 870 53 903 96 q 792 -15 838 10 l 754 -15 l 640 -15 l 607 -15 q 497 -11 551 -15 q 389 0 442 -7 q 249 69 282 15 q 213 168 217 132 q 208 219 208 211 q 183 288 208 258 q 128 347 158 318 q 72 406 97 375 q 47 478 47 436 m 894 611 q 921 728 894 678 q 990 812 947 778 q 1090 863 1033 846 q 1206 881 1146 881 q 1332 863 1269 881 q 1443 810 1394 846 q 1522 723 1492 775 q 1551 600 1551 671 q 1550 544 1551 575 q 1540 486 1549 513 q 1510 442 1531 460 q 1453 424 1490 424 l 1144 424 q 1172 339 1158 339 q 1188 340 1178 339 q 1208 342 1197 340 q 1264 346 1233 346 q 1291 344 1275 346 q 1326 339 1307 342 q 1378 320 1357 333 q 1413 294 1399 307 q 1437 271 1428 281 q 1453 261 1446 261 q 1518 243 1469 254 q 1622 222 1567 232 q 1726 203 1676 211 q 1793 194 1775 194 q 1799 178 1796 190 q 1811 150 1803 167 q 1824 100 1824 110 q 1820 87 1824 96 q 1812 68 1817 78 q 1801 50 1807 58 q 1793 39 1796 42 l 1722 39 q 1615 37 1672 39 q 1506 35 1558 35 l 1438 35 q 1315 33 1383 35 q 1171 32 1246 31 q 1015 83 1097 35 q 944 175 933 133 q 981 221 954 217 q 1033 226 999 226 q 1073 227 1053 226 q 1114 229 1093 228 q 1115 238 1114 233 q 1117 244 1117 242 q 1072 268 1092 258 q 1038 285 1053 278 q 978 333 1011 296 q 932 413 946 368 q 901 532 907 483 q 894 611 894 581 m 1071 556 l 1435 556 q 1432 649 1436 615 q 1413 700 1428 683 q 1368 721 1397 717 q 1289 726 1339 725 q 1217 717 1256 726 q 1146 686 1178 707 q 1092 633 1114 665 q 1071 556 1071 601 "},"":{"ha":994,"x_min":28,"x_max":972,"o":"m 121 749 q 122 758 121 751 q 124 764 124 764 q 139 782 126 768 q 167 811 151 796 q 197 840 183 826 q 217 856 211 853 q 238 857 221 856 q 276 859 256 858 q 316 861 297 860 q 339 863 335 863 q 444 849 394 863 q 588 842 506 836 q 663 769 675 847 q 654 696 657 731 q 651 631 651 661 q 638 551 651 581 q 602 505 625 521 q 549 484 579 489 q 485 479 518 479 q 421 476 453 478 q 360 468 389 475 q 310 444 332 461 q 278 393 289 426 q 290 375 278 388 q 308 363 303 363 l 343 363 l 401 363 l 460 363 l 494 363 q 524 328 526 360 q 543 263 522 299 q 639 193 563 228 q 739 163 675 175 q 894 146 803 151 q 972 22 972 106 l 247 22 q 224 17 242 21 q 185 8 206 13 q 146 -2 164 3 q 124 -8 128 -7 l 106 -8 q 49 21 71 -8 q 28 85 28 50 q 48 142 28 118 q 97 180 68 165 q 159 201 126 194 q 217 208 192 208 q 138 292 151 254 q 121 390 121 329 q 135 474 121 440 q 174 531 150 508 q 228 566 197 553 q 292 586 260 579 q 334 597 314 592 q 374 608 354 603 q 467 629 411 621 q 522 731 522 639 q 475 736 508 742 q 432 732 439 732 l 419 732 q 394 734 411 732 q 363 736 376 736 l 339 736 q 285 731 304 736 q 251 717 265 725 q 224 704 238 710 q 185 699 210 699 q 141 710 161 699 q 121 749 121 721 m 557 1304 l 633 1207 q 622 1185 628 1200 q 614 1150 617 1169 q 597 1135 604 1142 q 585 1125 589 1129 q 518 1073 544 1094 q 472 1025 492 1051 l 472 1015 q 457 973 472 993 q 419 953 442 953 l 417 953 l 414 953 l 413 953 l 410 953 l 410 954 q 408 957 408 956 q 406 960 407 958 q 392 974 397 967 q 383 986 386 981 q 372 1003 378 996 q 361 1015 367 1010 l 361 1025 q 314 1072 339 1050 q 249 1125 289 1093 q 235 1135 243 1129 q 218 1150 228 1142 q 199 1168 197 1167 l 268 1290 q 278 1299 274 1300 q 284 1292 282 1299 q 287 1278 286 1286 q 288 1267 288 1271 q 323 1234 308 1247 q 344 1214 338 1221 q 361 1199 353 1206 q 378 1183 369 1192 q 417 1146 394 1171 q 437 1161 426 1154 q 460 1172 447 1168 q 491 1205 474 1189 q 519 1242 508 1221 q 533 1258 526 1251 q 545 1272 540 1265 q 553 1285 550 1278 q 557 1304 557 1293 "},"":{"ha":1081,"x_min":13,"x_max":1053,"o":"m 879 664 q 883 467 890 538 q 851 358 876 396 q 785 304 826 319 q 688 275 743 289 q 565 238 633 261 q 417 161 496 215 q 389 117 394 144 q 378 64 383 90 q 362 18 374 38 q 315 -3 350 -1 q 242 24 257 -3 q 228 106 228 50 q 247 181 228 150 q 294 236 265 213 q 355 277 322 260 q 416 310 388 294 q 463 341 444 325 q 482 376 482 357 q 470 417 482 389 q 441 481 458 446 q 401 553 424 515 q 358 622 379 590 q 319 673 338 653 q 293 694 301 693 q 225 700 282 700 q 154 702 192 700 q 85 713 117 704 q 33 738 54 721 q 13 783 13 754 q 17 828 13 800 q 46 856 24 856 l 428 856 q 510 645 479 725 q 553 536 542 565 q 583 473 564 506 q 633 401 603 440 q 702 481 676 435 q 728 583 728 528 q 715 653 728 629 q 704 739 704 679 q 708 800 706 771 q 714 856 710 829 l 1053 856 q 1006 718 1053 767 q 879 664 960 669 m 317 1140 l 499 1140 q 503 1127 499 1135 q 513 1111 507 1119 q 522 1094 518 1103 q 526 1079 526 1086 l 526 1076 l 511 1042 l 497 976 q 482 951 485 954 q 479 949 479 947 q 478 953 479 953 l 390 953 q 386 949 386 953 l 313 963 l 317 1140 m 607 1144 l 789 1144 q 793 1131 789 1139 q 803 1115 797 1124 q 813 1099 808 1107 q 817 1083 817 1090 l 817 1081 l 801 1046 l 788 981 q 772 955 775 958 q 769 953 769 951 q 768 957 769 957 l 681 957 q 676 953 676 957 l 603 967 l 607 1144 "},"":{"ha":458,"x_min":0,"x_max":0,"o":""},"":{"ha":458,"x_min":21,"x_max":411,"o":"m 293 429 q 286 387 293 400 q 272 364 279 374 q 257 340 264 354 q 250 296 250 326 q 275 227 250 257 q 331 172 300 197 q 386 125 361 147 q 411 81 411 103 q 394 40 411 56 q 350 17 376 25 q 292 6 324 8 q 235 3 261 3 l 183 3 q 119 5 149 3 q 67 19 89 7 q 33 55 46 31 q 21 125 21 79 q 33 194 21 169 q 59 242 44 219 q 86 291 74 264 q 99 365 99 318 q 93 419 99 401 q 81 450 88 438 q 69 474 75 463 q 64 507 64 485 q 63 581 64 554 q 76 626 63 608 q 124 661 89 644 q 214 667 160 678 q 236 618 231 649 q 247 569 240 586 q 263 543 254 551 q 274 527 268 535 q 283 508 279 519 q 290 477 288 496 q 293 429 293 458 m 247 792 l 82 793 q 68 821 82 804 q 54 851 54 838 l 54 854 l 69 886 l 83 949 q 99 973 96 969 q 101 975 101 976 q 103 971 101 971 l 190 971 q 194 975 194 971 l 268 961 l 247 792 "},"":{"ha":939,"x_min":39,"x_max":894,"o":"m 39 383 l 39 389 q 60 451 39 424 q 108 505 82 479 q 156 555 135 531 q 178 606 178 579 q 176 635 178 618 q 186 688 175 653 q 200 703 200 696 q 197 711 200 707 q 190 723 194 715 q 183 743 186 731 q 181 775 181 756 l 181 790 q 188 806 183 796 q 198 826 193 817 q 206 843 203 836 q 211 851 210 850 l 224 851 q 344 857 290 851 q 457 869 397 863 q 446 913 446 892 q 463 953 446 938 q 507 978 481 969 q 564 990 533 986 q 622 993 594 993 l 596 997 q 651 996 631 997 q 683 983 672 994 q 698 948 694 972 q 701 878 701 924 l 701 876 l 783 876 q 862 808 829 851 q 894 713 894 765 l 682 713 q 661 596 672 657 q 640 478 650 535 q 624 371 631 421 q 617 288 617 321 q 622 233 617 251 q 634 201 628 214 q 646 177 640 189 q 651 143 651 165 q 652 114 651 128 q 654 85 653 100 l 806 96 q 861 61 861 86 l 861 57 q 853 33 857 44 q 844 13 850 22 q 816 -6 836 4 q 783 -15 796 -15 l 668 -15 q 672 -74 672 -47 q 660 -122 671 -101 q 627 -155 650 -143 q 565 -167 604 -167 q 560 -79 565 -115 q 546 -15 554 -43 l 444 -15 l 43 358 q 41 369 43 358 q 39 383 39 379 m 317 422 q 319 400 317 414 q 321 386 321 386 l 479 231 q 489 334 481 268 q 506 471 497 400 q 522 604 515 542 q 529 697 529 667 q 528 713 529 707 l 475 713 q 399 677 429 711 q 351 597 369 643 q 324 502 332 551 q 317 422 317 453 "},"":{"ha":871,"x_min":38,"x_max":807,"o":"m 567 469 l 567 629 l 336 628 l 325 681 l 346 840 l 138 858 l 144 689 l 167 640 l 46 639 l 38 488 l 253 453 l 429 31 l 653 -8 l 807 389 l 593 394 l 558 236 l 443 476 l 567 469 "},"":{"ha":960,"x_min":26,"x_max":886,"o":"m 886 244 l 678 306 q 704 353 693 336 q 718 385 715 369 q 725 423 722 403 q 724 471 728 443 q 722 517 725 496 q 714 550 718 539 q 703 589 713 568 q 676 640 693 610 l 850 679 l 688 871 l 588 724 q 549 747 564 740 q 514 760 533 753 q 475 767 496 761 q 425 775 454 772 q 257 728 328 767 l 168 885 l 26 679 l 211 614 q 191 583 204 599 q 164 550 178 568 q 138 512 150 532 q 122 467 126 492 q 142 391 126 428 q 178 318 157 354 l 40 172 l 218 -4 l 263 219 q 320 198 288 207 q 385 183 353 189 q 447 174 418 178 q 494 167 476 171 q 526 176 515 171 q 545 188 538 182 q 560 202 553 194 q 581 218 567 210 l 726 78 l 886 244 m 531 472 l 572 464 q 559 412 575 433 q 518 376 543 390 q 464 358 493 363 q 410 358 435 354 q 351 361 374 356 q 315 379 328 367 q 294 412 301 392 q 282 458 286 432 q 322 579 285 542 q 439 624 360 617 q 484 611 467 624 q 511 577 501 599 q 524 528 521 556 q 531 472 528 501 "},"":{"ha":1081,"x_min":13,"x_max":1053,"o":"m 851 161 l 404 149 q 385 103 389 129 q 376 55 382 78 q 359 15 371 32 q 315 -3 347 -1 q 242 24 257 -3 q 228 106 228 50 q 239 160 228 133 q 204 162 221 161 q 172 163 188 163 l 118 163 q 81 159 99 163 q 51 156 64 156 q 31 165 39 156 q 24 199 24 174 q 25 222 24 204 q 26 244 26 239 q 110 265 72 260 q 183 268 149 269 q 251 262 218 267 q 319 253 283 257 q 417 310 365 286 q 500 358 468 335 l 408 356 q 407 363 408 358 q 406 371 406 367 q 364 373 385 372 q 325 374 343 374 l 271 374 q 234 370 251 374 q 204 367 217 367 q 184 376 192 367 q 176 410 176 385 q 178 433 176 415 q 179 456 179 450 q 272 476 231 472 q 351 478 314 481 q 425 470 389 476 q 503 461 461 464 q 451 534 482 494 q 388 609 419 574 q 329 669 356 644 q 293 694 303 693 q 225 700 282 700 q 154 702 192 700 q 85 713 117 704 q 33 738 54 721 q 13 783 13 754 q 17 828 13 800 q 46 856 24 856 l 428 856 q 510 645 479 725 q 553 536 542 565 q 567 517 558 521 q 588 511 576 514 q 614 503 600 508 q 643 478 628 497 q 680 503 664 494 q 706 519 696 511 q 722 542 717 528 q 728 583 728 556 q 715 653 728 629 q 704 739 704 679 q 708 800 706 771 q 714 856 710 829 l 1053 856 q 1006 718 1053 767 q 879 664 960 669 q 882 618 881 644 q 883 567 883 592 q 877 520 882 542 q 861 490 872 499 q 838 472 849 481 q 817 456 828 463 q 872 454 844 454 q 925 454 900 454 l 996 454 q 1008 437 1000 450 q 1021 411 1015 424 q 1010 386 1014 396 q 1004 372 1007 376 l 704 364 q 673 339 689 351 q 638 313 657 326 q 595 283 618 299 q 542 246 572 267 l 556 246 q 665 244 608 246 q 772 243 722 243 l 843 243 q 855 226 847 239 q 868 200 863 213 q 858 175 861 185 q 851 161 854 165 m 1025 399 q 1024 405 1025 401 q 1021 411 1022 408 q 1024 418 1021 413 q 1026 415 1026 425 q 1025 399 1026 406 m 872 188 q 871 194 872 190 q 868 200 869 197 q 871 207 868 201 q 874 204 874 214 q 872 188 874 194 m 872 181 l 872 188 q 874 182 874 185 l 874 181 l 872 181 m 1025 392 l 1025 399 q 1026 393 1026 396 l 1026 392 l 1025 392 "},"":{"ha":458,"x_min":22,"x_max":413,"o":"m 238 415 q 229 479 238 446 q 210 546 221 513 q 192 613 200 579 q 183 678 183 646 q 158 749 183 718 q 103 805 133 779 q 47 852 72 831 q 22 897 22 874 q 40 938 22 922 q 83 963 57 954 q 140 974 110 971 q 199 978 171 978 l 250 978 q 315 975 285 978 q 366 960 344 972 q 400 924 388 949 q 413 853 413 899 q 396 753 413 807 q 360 644 379 700 q 324 534 340 589 q 307 431 307 479 q 315 358 307 394 q 331 287 322 321 q 348 223 340 253 q 356 171 356 193 q 357 64 356 118 q 347 -34 358 10 q 306 -106 336 -78 q 213 -133 276 -133 q 203 -22 213 -78 q 185 88 194 35 q 167 190 175 140 q 163 281 160 239 q 182 358 165 324 q 238 415 199 392 "},"":{"ha":713,"x_min":26,"x_max":653,"o":"m 653 426 q 592 276 653 363 q 449 110 528 186 q 363 34 406 68 q 278 -28 321 0 q 138 -87 189 -87 q 106 -81 125 -87 q 70 -63 88 -74 q 40 -39 53 -53 q 26 -10 26 -25 q 28 1 26 -3 q 29 4 29 4 q 41 13 32 8 q 60 22 50 17 q 80 30 71 26 q 92 36 89 33 q 111 51 97 38 q 133 71 121 60 q 156 92 146 82 q 174 112 167 103 q 183 125 182 121 q 185 131 183 125 q 188 140 188 138 q 167 193 188 172 q 121 233 146 214 q 75 278 96 253 q 54 344 54 303 q 183 514 54 474 q 133 553 151 526 q 106 612 115 579 q 94 678 97 644 q 92 738 92 711 l 193 851 q 240 892 219 881 q 281 906 260 904 q 331 906 303 908 q 400 903 358 903 l 438 903 l 551 903 l 585 903 q 618 874 594 894 q 635 855 628 863 q 647 842 642 847 q 649 835 647 842 q 650 825 650 829 q 649 817 650 822 q 647 811 647 811 q 633 790 640 801 q 614 767 625 779 q 585 738 590 738 l 246 738 l 246 692 q 370 671 300 689 q 503 619 440 653 q 610 538 567 586 q 653 426 653 490 m 276 347 l 224 375 q 243 268 204 293 q 342 304 278 240 l 276 347 m 307 526 q 290 525 301 526 q 276 524 279 524 q 365 420 315 460 q 486 381 414 381 q 429 489 486 453 q 307 526 372 526 "},"":{"ha":588,"x_min":31,"x_max":542,"o":"m 35 1028 l 217 1028 q 221 1015 217 1022 q 231 999 225 1007 q 240 982 236 990 q 244 967 244 974 l 244 964 l 229 929 l 215 864 q 200 838 203 842 q 197 836 197 835 q 196 840 197 840 l 108 840 q 104 836 104 840 l 31 850 l 35 1028 m 332 1028 l 514 1028 q 518 1015 514 1022 q 528 999 522 1007 q 538 982 533 990 q 542 967 542 974 l 542 964 l 526 929 l 513 864 q 497 838 500 842 q 494 836 494 835 q 493 840 494 840 l 406 840 q 401 836 401 840 l 328 850 l 332 1028 "},"":{"ha":1031,"x_min":28,"x_max":985,"o":"m 985 478 l 985 472 q 967 410 985 438 q 929 356 950 382 q 891 306 908 331 q 874 256 874 282 q 874 226 874 243 q 867 174 875 208 q 856 158 856 165 q 864 138 856 151 q 872 86 872 125 l 872 71 q 866 54 869 64 q 859 35 863 44 q 852 18 856 25 q 847 10 849 11 l 838 10 q 763 6 797 10 q 694 -3 729 1 q 622 -11 660 -7 q 538 -15 585 -15 l 474 -15 l 454 -15 l 389 -15 q 381 -10 383 -12 q 278 3 325 -4 q 175 10 231 10 l 164 10 q 159 18 163 11 q 152 35 156 25 q 145 54 149 44 q 139 71 142 64 l 139 86 q 147 138 139 125 q 156 158 156 151 q 144 174 156 165 q 137 226 136 208 q 138 256 138 243 q 120 306 138 282 q 83 356 103 331 q 45 410 63 382 q 28 472 28 438 l 28 478 q 28 492 28 482 q 29 503 29 503 l 351 876 l 386 876 l 389 876 l 660 876 l 982 503 q 983 492 982 503 q 985 478 985 482 m 517 186 l 517 185 l 628 185 q 684 215 661 186 q 721 282 707 243 q 740 362 735 321 q 746 429 746 403 q 753 444 746 433 q 767 464 761 456 q 775 474 774 472 l 515 714 l 500 714 l 236 496 q 238 474 236 493 q 242 432 240 456 q 244 404 244 408 q 254 341 244 378 q 283 269 264 304 q 328 210 301 235 q 389 185 354 186 l 517 186 m 278 433 q 279 440 278 436 q 281 444 281 444 l 449 601 l 590 601 q 605 597 596 601 q 617 590 614 593 q 620 581 619 586 q 624 571 621 576 q 600 554 625 561 l 526 560 l 397 433 q 396 427 397 433 q 394 418 394 421 q 398 385 394 406 q 409 344 401 364 q 429 310 417 325 q 461 296 442 296 l 638 296 q 624 256 638 274 q 590 226 610 238 l 575 226 l 528 226 l 514 226 q 467 228 490 226 q 422 233 444 231 q 363 263 378 239 q 347 304 349 289 q 346 318 346 314 q 346 325 346 324 q 335 354 346 342 q 312 378 325 367 q 288 403 299 390 q 278 433 278 417 "},"":{"ha":625,"x_min":22,"x_max":563,"o":"m 563 501 q 540 481 556 492 q 515 471 524 471 l 22 471 q 43 528 33 507 q 76 568 53 550 l 97 568 q 126 572 113 568 q 146 583 139 575 q 183 642 163 613 q 202 667 193 656 q 219 689 211 678 q 178 709 204 696 q 119 744 153 722 q 71 794 90 765 q 51 860 51 822 q 66 890 51 885 q 101 896 81 896 q 118 893 108 896 q 129 890 128 890 q 139 883 132 890 q 153 868 146 876 q 167 852 161 860 q 176 843 174 844 q 208 819 186 835 q 251 789 229 804 q 292 761 274 774 q 315 746 311 749 q 333 744 317 746 q 370 737 350 742 q 407 722 390 732 q 424 697 424 713 l 424 583 q 442 572 424 581 q 483 553 460 564 q 530 528 507 542 q 563 501 553 515 m 343 647 q 331 653 340 649 q 312 663 322 658 q 292 672 301 668 q 276 678 282 676 q 235 582 268 671 q 239 574 232 579 q 250 567 246 568 q 263 565 253 567 q 281 564 274 564 q 343 638 343 564 l 343 647 "},"":{"ha":1163,"x_min":83,"x_max":1022,"o":"m 592 232 l 450 115 q 419 132 440 124 q 368 143 397 140 q 347 170 356 158 q 333 189 339 182 q 292 244 310 219 q 257 290 274 269 q 224 328 240 311 q 188 363 207 346 l 175 363 q 113 385 142 363 q 83 443 83 408 l 83 447 l 83 451 q 85 454 83 453 q 85 458 85 457 q 86 458 86 458 q 94 464 89 461 q 133 499 117 489 q 175 532 151 511 l 188 532 q 224 566 207 549 q 256 604 240 583 q 291 649 272 625 q 333 706 310 674 q 347 724 339 713 q 368 751 356 736 q 394 782 392 783 l 571 675 q 585 660 586 665 q 574 652 583 656 q 553 647 564 649 q 538 644 542 646 q 460 558 481 579 q 438 533 449 546 q 417 506 428 519 q 390 475 403 490 q 363 446 376 460 q 384 416 374 432 q 404 381 394 400 q 447 332 424 358 q 501 289 471 306 q 525 267 515 278 q 544 249 535 257 q 564 237 553 242 q 592 232 575 232 m 1022 228 l 881 111 q 849 128 871 119 q 799 139 828 136 q 778 166 786 154 q 764 185 769 178 q 722 240 740 215 q 688 286 704 265 q 654 324 671 307 q 618 358 638 342 l 606 358 q 543 381 572 358 q 514 439 514 404 l 514 443 l 514 447 q 515 450 514 449 q 516 453 515 453 q 517 454 517 454 q 525 460 519 457 q 564 494 547 485 q 606 528 582 507 l 618 528 q 654 562 638 544 q 687 600 671 579 q 722 645 703 621 q 764 701 740 669 q 778 720 769 708 q 799 747 786 732 q 825 778 822 779 l 1001 671 q 1015 656 1017 661 q 1004 648 1014 651 q 983 643 994 644 q 968 640 972 642 q 890 554 911 575 q 869 528 879 542 q 847 501 858 515 q 820 471 833 486 q 793 442 807 456 q 815 412 804 428 q 835 376 825 396 q 878 328 854 354 q 932 285 901 301 q 956 263 946 274 q 974 245 965 253 q 994 233 983 238 q 1022 228 1006 228 "},"":{"ha":846,"x_min":28,"x_max":800,"o":"m 771 164 l 779 351 q 781 370 782 357 q 788 401 781 383 q 800 450 800 440 q 797 465 800 456 q 788 483 793 474 q 778 500 783 492 q 769 513 774 508 l 699 513 q 591 515 649 513 q 482 517 533 517 l 414 517 q 315 524 360 517 q 226 535 269 531 q 136 535 183 539 q 31 513 89 532 q 29 489 31 506 q 28 467 28 472 q 40 412 28 433 q 70 378 51 390 q 114 360 89 365 q 167 356 139 356 q 206 354 186 356 q 247 353 226 353 q 249 344 247 349 q 250 338 250 339 l 604 340 l 615 164 l 771 164 "},"":{"ha":583,"x_min":28,"x_max":526,"o":"m 496 360 q 503 376 499 365 q 514 406 507 388 q 526 454 526 444 q 523 469 526 460 q 515 487 519 478 q 505 504 510 496 q 496 517 500 513 l 425 517 q 401 517 400 517 q 410 519 403 518 q 417 520 417 519 q 393 521 418 521 l 325 521 q 240 527 271 521 q 182 537 208 533 q 122 536 156 540 q 31 513 89 532 q 29 489 31 506 q 28 467 28 472 q 40 412 28 433 q 70 378 51 390 q 114 360 89 365 q 167 356 139 356 q 206 354 186 356 q 247 353 226 353 q 249 344 247 349 q 250 338 250 339 l 496 360 "},"":{"ha":1031,"x_min":28,"x_max":985,"o":"m 985 478 l 985 472 q 967 410 985 438 q 929 356 950 382 q 891 306 908 331 q 874 256 874 282 q 874 226 874 243 q 867 174 875 208 q 856 158 856 165 q 864 138 856 151 q 872 86 872 125 l 872 71 q 866 54 869 64 q 859 35 863 44 q 852 18 856 25 q 847 10 849 11 l 838 10 q 763 6 797 10 q 694 -3 729 1 q 622 -11 660 -7 q 538 -15 585 -15 l 474 -15 l 454 -15 l 389 -15 q 381 -10 385 -14 q 278 3 325 -4 q 175 10 231 10 l 164 10 q 159 18 163 11 q 152 35 156 25 q 145 54 149 44 q 139 71 142 64 l 139 86 q 147 138 139 125 q 156 158 156 151 q 144 174 156 165 q 137 226 136 208 q 138 256 138 243 q 120 306 138 282 q 83 356 103 331 q 45 410 63 382 q 28 472 28 438 l 28 478 q 28 492 28 482 q 29 503 29 503 l 351 876 l 386 876 l 389 876 l 660 876 l 982 503 q 983 492 982 503 q 985 478 985 482 m 517 186 l 517 185 l 628 185 q 698 200 661 186 q 751 254 735 214 q 757 349 769 293 q 749 396 751 376 q 746 429 746 415 q 753 444 746 433 q 771 469 761 456 q 778 533 781 482 l 515 714 l 364 689 l 236 496 q 238 474 236 493 q 242 432 240 456 q 244 404 244 408 q 254 341 244 378 q 283 270 264 304 q 328 211 301 236 q 389 185 354 186 l 517 186 m 718 242 q 710 231 718 239 q 694 218 697 218 l 690 218 q 626 231 654 218 q 574 263 599 244 q 529 303 550 282 q 486 343 508 325 q 474 341 479 346 q 469 336 469 336 l 469 271 q 468 268 469 271 q 464 260 467 265 q 442 253 458 250 q 415 305 422 286 q 403 343 408 324 q 398 385 399 363 q 393 433 397 407 q 374 485 389 467 q 341 510 356 500 q 313 531 326 519 q 300 565 300 539 q 312 591 300 583 q 340 600 324 599 q 374 601 357 601 q 404 603 392 600 l 417 603 q 462 594 429 599 q 532 583 494 590 q 603 574 568 579 q 649 565 638 568 q 652 551 649 563 q 660 527 656 540 q 669 501 665 514 q 672 483 672 489 q 672 479 672 481 q 671 478 671 478 l 664 469 q 658 465 661 467 q 653 460 656 463 q 619 436 650 454 q 604 427 613 433 q 583 414 596 421 q 563 403 569 407 q 554 399 556 400 q 545 390 547 396 q 543 376 543 383 q 571 332 543 349 q 631 301 596 314 q 690 276 665 289 q 718 242 718 264 m 554 517 l 454 529 l 474 433 q 539 467 522 449 q 554 517 554 490 "},"":{"ha":833,"x_min":25,"x_max":797,"o":"m 767 797 q 783 843 772 807 q 793 860 790 858 q 796 863 796 861 q 797 865 797 863 q 785 898 797 879 q 767 928 772 917 l 696 928 q 588 930 644 928 q 478 932 531 932 l 411 932 q 313 938 357 932 q 224 949 268 944 q 134 950 181 953 q 28 928 88 947 q 26 904 28 921 q 25 881 25 888 q 36 830 25 847 q 67 806 47 813 q 111 798 86 799 q 164 797 136 797 q 203 796 183 797 q 244 794 224 794 q 246 785 244 790 q 247 779 247 781 l 767 797 "},"":{"ha":544,"x_min":13,"x_max":490,"o":"m 490 635 l 490 638 q 481 669 490 654 q 462 696 472 683 q 443 720 451 708 q 435 746 435 732 q 435 761 435 753 q 432 786 436 769 q 426 794 426 790 q 431 804 426 797 q 435 831 435 811 l 435 838 q 428 856 432 844 q 422 868 424 867 l 417 868 q 380 870 397 868 q 345 874 363 872 q 309 878 328 876 q 267 881 290 881 l 235 881 l 225 881 l 193 881 q 189 878 192 881 q 138 872 161 875 q 86 868 114 868 l 81 868 q 74 856 78 867 q 68 838 71 844 l 68 831 q 72 804 68 811 q 76 794 76 797 q 71 786 76 792 q 67 761 67 769 q 67 746 67 753 q 58 720 67 732 q 40 696 50 708 q 21 669 29 683 q 13 638 13 654 l 13 635 l 13 622 l 174 435 l 192 435 l 193 435 l 328 435 l 489 622 q 490 627 489 622 q 490 635 490 632 m 257 781 l 313 781 q 340 766 329 781 q 358 732 351 751 q 368 692 365 713 q 371 658 371 672 q 370 649 371 656 q 369 643 369 643 l 256 517 l 249 517 l 135 643 l 135 658 q 138 692 135 672 q 147 732 140 713 q 165 766 153 751 q 193 781 176 781 l 257 781 "},"":{"ha":846,"x_min":24,"x_max":796,"o":"m 763 468 q 769 485 765 474 q 781 514 774 496 q 793 563 793 553 q 790 577 793 568 q 781 595 786 586 q 772 613 776 604 q 763 625 767 621 l 692 625 q 664 623 679 625 q 635 617 649 621 q 609 612 621 614 q 592 610 597 610 q 569 614 583 610 q 504 632 554 618 l 508 828 q 336 808 431 878 l 329 649 q 249 649 281 650 q 197 646 218 649 q 165 640 176 643 q 144 633 153 636 q 106 623 125 628 q 68 611 88 618 q 67 588 68 604 q 65 565 65 571 q 77 510 65 532 q 108 476 89 489 q 151 459 126 464 q 204 454 176 454 q 217 456 214 454 q 222 459 219 457 q 226 463 224 461 q 240 465 229 465 q 310 451 283 442 l 329 293 q 485 299 392 268 l 513 454 l 763 468 m 765 32 q 772 49 768 38 q 783 78 776 60 q 796 126 796 117 q 792 141 796 132 q 784 159 789 150 q 774 176 779 168 q 765 189 769 185 l 694 189 q 587 191 644 189 q 478 193 529 193 l 410 193 q 310 200 356 193 q 222 211 265 207 q 132 212 179 215 q 26 189 85 208 q 25 165 26 182 q 24 143 24 149 q 35 88 24 110 q 66 54 47 67 q 110 37 85 42 q 163 32 135 32 q 202 31 182 32 q 243 29 222 29 q 244 20 243 25 q 246 14 246 15 l 765 32 "},"":{"ha":456,"x_min":7,"x_max":396,"o":"m 53 813 q 63 793 53 799 q 85 788 74 788 q 104 790 97 788 q 118 797 111 793 q 135 804 125 801 q 163 807 144 807 l 174 807 q 190 806 181 807 q 203 804 199 804 l 208 804 q 216 805 211 804 q 231 807 221 806 q 257 782 242 800 q 226 753 253 758 q 179 743 194 749 q 160 738 169 740 q 139 732 150 735 q 80 704 107 725 q 53 633 53 683 q 61 585 53 603 q 101 543 69 565 q 72 540 89 543 q 41 528 56 536 q 17 509 26 521 q 7 481 7 497 q 17 449 7 464 q 46 435 28 435 l 54 435 q 66 437 57 435 q 85 442 75 439 q 105 447 96 444 q 117 450 114 449 l 396 451 q 369 511 386 501 q 354 517 361 514 q 342 522 347 519 q 322 526 336 524 q 283 533 307 529 q 274 552 278 543 q 264 569 269 561 l 210 593 l 164 619 l 147 619 q 138 626 144 619 q 132 635 132 632 q 148 660 138 651 q 173 672 158 668 q 203 677 188 676 q 235 678 219 678 q 294 691 269 678 q 318 754 318 704 q 319 769 318 761 q 319 786 319 778 q 282 831 321 804 q 215 863 240 857 q 190 868 203 867 q 163 869 176 869 q 151 869 160 869 q 131 868 142 868 q 112 867 121 868 q 101 867 103 867 q 92 858 99 865 q 77 844 85 851 q 63 829 69 836 q 54 821 56 822 q 53 818 54 821 q 53 813 53 815 "},"":{"ha":544,"x_min":8,"x_max":482,"o":"m 78 486 q 88 519 78 506 q 112 526 89 522 q 165 534 135 531 q 226 540 194 538 q 278 542 257 542 q 300 540 297 542 l 300 647 q 221 634 257 647 q 142 621 185 621 q 112 632 124 621 q 93 663 100 643 q 99 672 89 672 q 121 682 108 672 q 175 696 143 703 q 231 694 204 690 q 279 712 258 699 q 313 748 300 725 q 325 803 325 771 l 178 803 q 136 801 153 801 q 114 801 121 801 q 99 801 107 801 q 85 803 92 801 q 45 824 64 811 q 15 843 26 836 q 39 881 8 850 l 435 882 q 458 875 438 882 q 472 870 467 872 q 481 867 476 868 q 481 864 481 867 q 482 858 482 861 q 458 833 482 838 q 456 832 451 833 q 465 830 460 831 q 474 828 471 829 q 471 828 478 828 q 417 819 439 828 q 392 779 392 811 q 394 751 392 763 q 408 726 396 740 q 422 721 417 726 q 435 711 426 715 q 442 705 438 710 q 450 696 447 700 q 454 674 454 688 q 456 661 456 665 q 456 658 456 658 l 408 657 q 403 608 407 643 q 390 538 400 574 q 363 476 381 503 q 317 449 346 449 q 260 449 300 449 q 181 454 221 450 q 109 466 140 458 q 78 486 78 474 "},"":{"ha":361,"x_min":25,"x_max":318,"o":"m 318 1032 l 136 1032 q 131 1020 136 1028 q 122 1003 126 1013 q 112 985 117 994 q 107 971 107 976 q 108 968 107 969 l 124 933 l 60 850 q 54 805 60 831 q 42 756 49 779 q 31 715 36 732 q 25 693 25 697 l 25 692 q 58 717 32 692 q 114 771 85 742 q 165 822 143 800 q 185 840 186 844 l 128 706 l 285 847 l 318 1032 "},"":{"ha":953,"x_min":28,"x_max":979,"o":"m 578 258 q 559 224 568 242 q 540 186 550 206 q 461 94 521 144 q 434 62 449 79 q 402 31 419 44 q 363 10 385 18 q 311 10 340 3 l 228 60 l 203 -228 q 147 -179 168 -217 q 113 -92 125 -142 q 94 17 100 -42 q 85 130 89 75 q 78 231 82 185 q 64 301 74 276 q 33 475 39 383 q 28 646 28 567 q 34 724 28 683 q 56 799 40 765 q 98 854 71 832 q 167 876 125 876 q 175 789 167 824 q 196 730 183 754 q 222 688 208 706 q 249 652 236 671 q 269 610 261 633 q 278 553 278 588 q 267 506 278 525 q 245 472 257 488 q 223 438 233 456 q 213 396 213 421 q 228 340 213 365 q 269 294 244 314 q 322 264 293 275 q 374 253 350 253 q 408 274 385 253 q 458 328 431 294 q 515 401 486 361 q 569 478 544 440 q 608 546 593 515 q 624 590 624 576 q 622 614 624 594 q 617 640 621 633 q 539 657 563 646 q 515 672 528 664 q 489 689 503 679 q 451 753 461 708 q 464 850 442 797 l 914 850 q 906 715 931 722 q 864 710 885 710 q 822 669 838 697 q 797 600 806 640 q 785 511 788 560 q 782 408 782 463 l 782 258 q 794 199 781 217 q 831 177 808 181 q 879 181 853 174 q 928 194 906 188 q 965 203 950 201 q 979 193 979 206 q 963 149 979 176 q 923 94 946 121 q 876 45 900 67 q 836 19 853 24 q 788 16 819 15 q 723 23 756 17 q 665 40 690 29 q 636 65 639 51 q 626 124 632 94 q 613 179 619 153 q 597 226 606 206 q 578 258 588 247 "},"":{"ha":896,"x_min":35,"x_max":814,"o":"m 796 846 l 263 850 l 219 850 q 149 851 186 850 q 81 853 111 853 l 35 853 q 39 778 35 814 q 53 710 43 742 q 82 653 64 679 q 128 611 100 628 q 159 601 142 603 q 194 597 176 599 q 227 594 211 596 q 256 585 243 593 q 304 511 304 553 l 296 -44 q 325 -58 296 -49 q 352 -68 340 -64 q 372 -75 364 -72 q 387 -76 376 -75 q 404 -78 397 -78 q 450 -74 421 -78 q 481 -44 481 -68 l 489 665 l 597 665 q 603 648 599 665 q 612 606 607 631 q 621 556 617 582 q 628 511 625 529 q 628 483 628 506 q 628 431 628 463 q 628 363 628 400 q 628 290 628 326 q 631 223 629 254 q 633 172 632 192 q 638 112 636 143 q 642 55 640 81 q 647 10 644 29 q 650 -12 649 -8 q 669 -67 657 -53 q 713 -81 682 -81 q 773 -54 753 -81 q 806 18 793 -28 l 814 450 l 796 846 "},"":{"ha":292,"x_min":19,"x_max":233,"o":"m 24 531 l 206 531 q 210 517 206 525 q 219 501 214 510 q 229 485 225 493 q 233 469 233 476 l 233 467 l 218 432 l 204 367 q 189 341 192 344 q 186 339 186 338 q 185 343 186 343 l 97 343 q 93 339 93 343 l 19 353 l 24 531 "},"":{"ha":432,"x_min":-7,"x_max":361,"o":"m 218 -94 l -7 -187 l 222 -187 l 326 -124 l 361 0 l 219 1 l 218 -94 "},"":{"ha":272,"x_min":-31,"x_max":263,"o":"m 49 610 q 53 638 49 625 q 65 665 58 651 q 76 693 71 679 q 82 724 82 707 q 70 758 82 743 q 43 786 58 774 q 14 833 15 811 q 19 855 15 849 q 35 865 22 861 q 62 872 47 869 q 89 874 76 874 l 114 874 q 150 872 132 874 q 179 867 168 871 q 194 851 190 863 q 200 815 197 839 l 200 796 l 200 774 q 192 728 201 749 q 176 688 183 708 q 168 643 168 667 q 170 615 168 625 q 176 599 172 606 q 181 588 179 593 q 183 571 183 582 q 183 544 183 557 q 181 517 182 531 q 219 457 176 492 q 192 422 263 426 q 90 418 121 418 q 24 469 -31 431 q 69 526 78 508 q 55 563 61 544 q 49 610 49 581 "},"":{"ha":544,"x_min":13,"x_max":490,"o":"m 490 635 l 490 638 q 481 669 490 654 q 462 696 472 683 q 443 720 451 708 q 435 746 435 732 q 435 761 435 753 q 432 786 436 769 q 426 794 426 790 q 431 804 426 797 q 435 831 435 811 l 435 838 q 428 856 432 844 q 422 868 424 867 l 417 868 q 380 870 397 868 q 345 874 363 872 q 309 878 328 876 q 267 881 290 881 l 235 881 l 225 881 l 193 881 q 189 878 192 881 q 138 872 161 875 q 86 868 114 868 l 81 868 q 74 856 78 867 q 68 838 71 844 l 68 831 q 72 804 68 811 q 76 794 76 797 q 71 786 76 792 q 67 761 67 769 q 67 746 67 753 q 58 720 67 732 q 40 696 50 708 q 21 669 29 683 q 13 638 13 654 l 13 635 l 13 622 l 174 435 l 192 435 l 193 435 l 328 435 l 489 622 q 490 627 489 622 q 490 635 490 632 m 257 781 l 313 781 q 340 766 329 781 q 358 732 351 751 q 368 692 365 713 q 371 658 371 672 q 370 649 371 656 q 369 643 369 643 l 256 517 l 249 517 l 135 643 l 135 658 q 138 692 135 672 q 147 732 140 713 q 165 766 153 751 q 193 781 176 781 l 257 781 "},"":{"ha":1163,"x_min":83,"x_max":1022,"o":"m 514 232 l 656 115 q 687 132 665 124 q 738 143 708 140 q 758 170 750 158 q 772 189 767 182 q 814 244 796 219 q 849 290 832 269 q 882 328 865 311 q 918 363 899 346 l 931 363 q 993 385 964 363 q 1022 443 1022 408 l 1022 447 l 1022 451 q 1021 454 1022 453 q 1020 458 1021 457 q 1019 458 1019 458 q 1011 464 1017 461 q 972 499 989 489 q 931 532 953 511 l 918 532 q 882 566 899 549 q 849 604 865 583 q 815 649 833 625 q 772 706 796 674 q 758 724 767 713 q 738 751 750 736 q 711 782 714 783 l 535 675 q 521 660 519 665 q 532 652 522 656 q 553 647 542 649 q 568 644 564 646 q 646 558 624 579 q 667 533 657 546 q 689 506 678 519 q 716 475 703 490 q 743 446 729 460 q 722 416 732 432 q 701 381 711 400 q 658 332 682 358 q 604 289 635 306 q 581 267 590 278 q 562 249 571 257 q 542 237 553 242 q 514 232 531 232 m 83 228 l 225 111 q 256 128 235 119 q 307 139 278 136 q 328 166 319 154 q 342 185 336 178 q 383 240 365 215 q 418 286 401 265 q 451 324 435 307 q 488 358 468 342 l 500 358 q 563 381 533 358 q 592 439 592 404 l 592 443 l 592 447 q 590 450 592 449 q 590 453 590 453 q 589 454 589 454 q 581 460 586 457 q 542 494 558 485 q 500 528 522 507 l 488 528 q 451 562 468 544 q 419 600 435 579 q 384 645 403 621 q 342 701 365 669 q 328 720 336 708 q 307 747 319 732 q 281 778 283 779 l 104 671 q 90 656 89 661 q 101 648 92 651 q 122 643 111 644 q 138 640 133 642 q 215 554 193 575 q 237 528 226 542 q 258 501 247 515 q 285 471 272 486 q 313 442 299 456 q 291 412 301 428 q 271 376 281 396 q 228 328 251 354 q 174 285 204 301 q 150 263 160 274 q 131 245 140 253 q 111 233 122 238 q 83 228 100 228 "},"":{"ha":1156,"x_min":51,"x_max":1094,"o":"m 781 482 q 785 507 781 496 q 797 527 790 518 q 808 545 803 536 q 814 563 814 554 q 825 597 814 571 q 854 638 836 622 q 885 657 868 651 q 917 671 903 663 q 942 697 932 679 q 950 756 951 715 l 950 803 l 774 851 l 746 851 q 738 842 742 850 q 729 824 733 833 q 721 808 725 815 q 713 801 717 801 l 711 801 q 633 685 643 725 q 622 644 628 665 q 608 604 615 624 q 515 482 593 561 l 515 469 q 447 384 490 424 q 351 310 403 344 q 246 249 299 276 q 149 199 193 221 q 78 160 106 176 q 51 133 51 144 q 83 94 51 115 q 155 56 114 74 q 234 25 196 38 q 286 13 272 13 l 314 13 q 395 76 363 47 q 451 133 428 106 q 492 188 475 161 q 529 242 510 214 q 572 303 549 271 q 631 375 596 336 q 672 401 646 393 q 722 418 699 410 q 781 482 747 426 m 156 571 q 162 524 156 542 q 176 488 168 506 q 131 431 185 469 q 197 379 78 392 q 299 383 228 379 q 326 418 369 388 q 288 478 283 453 q 290 505 289 492 q 290 532 290 518 q 288 549 290 543 q 283 560 286 554 q 277 576 279 567 q 275 604 275 586 q 283 649 275 628 q 299 689 290 669 q 307 735 308 710 l 307 757 l 307 776 q 301 812 307 800 q 285 828 296 824 q 257 833 274 833 q 221 835 242 833 l 196 835 q 168 832 182 833 q 143 827 154 831 q 125 816 132 824 q 121 794 118 808 q 150 747 122 772 q 177 719 165 735 q 189 685 189 704 q 183 654 189 668 q 172 626 178 640 q 160 599 165 613 q 156 571 156 586 m 950 32 q 943 76 950 56 q 935 113 936 96 q 967 113 943 115 l 986 113 q 1015 113 999 113 q 1044 114 1031 114 l 1063 114 q 1092 122 1088 111 q 1094 144 1094 131 l 1094 146 q 1093 160 1094 158 q 1050 183 1067 172 q 1025 208 1033 193 q 992 242 1017 225 q 950 250 968 258 q 965 199 931 242 q 924 197 938 197 q 904 195 911 196 q 894 194 897 194 q 885 192 892 193 q 865 192 874 192 q 853 193 856 193 q 794 203 810 193 q 779 240 779 213 l 779 247 l 779 251 l 779 256 q 782 268 782 268 q 808 286 782 272 q 822 293 815 289 q 838 301 829 297 q 864 319 844 306 q 914 357 883 333 q 932 372 917 363 q 966 395 954 385 q 985 414 978 406 q 997 428 992 422 q 1010 439 1001 435 q 1033 448 1018 444 q 1079 456 1047 451 l 1079 461 q 1072 475 1079 471 q 1054 481 1064 479 q 1033 481 1044 482 q 1017 481 1022 481 l 988 481 q 952 474 968 481 q 915 456 936 468 q 859 417 881 435 q 818 385 838 400 q 777 356 799 369 q 722 328 756 342 q 715 323 719 325 q 704 317 711 321 q 693 307 693 310 l 693 190 q 658 173 669 179 q 647 150 647 167 q 650 136 647 143 q 664 126 653 129 q 815 122 743 131 l 847 117 l 865 60 q 869 47 868 53 q 872 35 871 40 l 950 32 "},"":{"ha":1206,"x_min":51,"x_max":1150,"o":"m 781 482 q 785 507 781 496 q 797 527 790 518 q 808 545 803 536 q 814 563 814 554 q 825 597 814 571 q 854 638 836 622 q 885 657 868 651 q 917 671 903 663 q 942 697 932 679 q 950 756 951 715 l 950 803 l 774 851 l 746 851 q 738 842 742 850 q 729 824 733 833 q 721 808 725 815 q 713 801 717 801 l 711 801 q 633 685 643 725 q 622 644 628 665 q 617 603 615 624 q 515 482 593 561 l 515 469 q 447 384 490 424 q 351 310 403 344 q 246 249 299 276 q 149 199 193 221 q 78 160 106 176 q 51 133 51 144 q 83 94 51 115 q 155 56 114 74 q 234 25 196 38 q 286 13 272 13 l 314 13 q 395 76 363 47 q 451 133 428 106 q 492 188 475 161 q 529 242 510 214 q 572 303 549 271 q 631 375 596 336 q 672 401 646 393 q 722 418 699 410 q 781 482 747 426 m 179 575 q 185 528 179 546 q 200 492 192 510 q 154 435 208 474 q 221 383 101 396 q 322 388 251 383 q 350 422 393 392 q 311 482 307 457 q 313 509 313 496 q 314 536 314 522 q 312 553 314 547 q 306 565 310 558 q 301 581 303 571 q 299 608 299 590 q 306 653 299 632 q 322 693 314 674 q 331 739 332 714 l 331 761 l 331 781 q 325 816 331 804 q 308 833 319 828 q 281 838 297 838 q 244 839 265 838 l 219 839 q 192 836 206 838 q 167 831 178 835 q 149 820 156 828 q 144 799 142 813 q 174 751 146 776 q 201 724 189 739 q 213 689 213 708 q 207 658 213 672 q 195 631 201 644 q 184 603 189 617 q 179 575 179 590 m 807 403 q 817 383 807 389 q 839 378 828 378 q 858 381 851 378 q 872 388 865 383 q 889 394 879 392 q 917 397 899 397 l 928 397 q 944 396 935 397 q 957 394 953 394 l 963 394 q 970 395 965 394 q 985 397 975 396 q 1011 372 996 390 q 981 343 1007 349 q 953 338 965 340 q 933 333 940 336 q 914 328 924 331 q 893 322 904 325 q 834 294 861 315 q 807 224 807 274 q 815 175 807 193 q 856 133 824 157 q 826 130 843 133 q 795 119 810 126 q 771 99 781 111 q 761 71 761 88 q 772 40 761 54 q 800 25 782 25 l 808 25 q 820 27 811 25 q 840 32 829 29 q 859 37 850 35 q 871 40 868 39 l 1150 42 q 1124 101 1140 92 q 1108 107 1115 104 q 1096 113 1101 110 q 1076 117 1090 114 q 1038 124 1061 119 q 1028 142 1032 133 q 1018 160 1024 151 l 964 183 l 918 210 l 901 210 q 892 216 899 210 q 886 225 886 222 q 927 263 897 257 q 989 268 957 268 q 1048 281 1024 268 q 1072 344 1072 294 q 1073 360 1072 351 q 1074 376 1074 368 q 1036 421 1075 394 q 969 453 994 447 q 944 458 957 457 q 917 460 931 460 q 905 459 914 460 q 885 458 896 458 q 866 458 875 458 q 856 457 857 457 q 846 449 853 456 q 831 435 839 443 q 817 419 824 426 q 808 411 810 413 q 808 408 808 411 q 807 403 807 406 "},"":{"ha":1167,"x_min":19,"x_max":1114,"o":"m 781 482 q 785 507 781 496 q 797 527 790 518 q 808 545 803 536 q 814 563 814 554 q 825 597 814 571 q 854 638 836 622 q 885 657 868 651 q 917 671 903 663 q 942 697 932 679 q 950 756 951 715 l 950 803 l 774 851 l 746 851 q 738 842 742 850 q 729 824 733 833 q 721 808 725 815 q 713 801 717 801 l 711 801 q 633 685 643 725 q 622 644 628 665 q 608 604 615 624 q 515 482 593 561 l 515 469 q 447 384 490 424 q 351 310 403 344 q 246 249 299 276 q 149 199 193 221 q 78 160 106 176 q 51 133 51 144 q 83 94 51 115 q 155 56 114 74 q 234 25 196 38 q 286 13 272 13 l 314 13 q 395 76 363 47 q 451 133 428 106 q 492 188 475 161 q 529 242 510 214 q 572 303 549 271 q 631 375 596 336 q 672 401 646 393 q 722 418 699 410 q 781 482 747 426 m 969 38 q 963 81 969 61 q 954 118 956 101 q 986 118 963 121 l 1006 118 q 1034 119 1018 118 q 1064 119 1050 119 l 1082 119 q 1111 128 1107 117 q 1114 150 1114 136 l 1114 151 q 1113 165 1114 164 q 1069 188 1086 178 q 1044 214 1053 199 q 1011 247 1036 231 q 969 256 988 264 q 985 204 950 247 q 944 202 957 203 q 924 201 931 201 q 914 199 917 200 q 904 197 911 199 q 884 198 893 197 q 872 199 875 199 q 814 208 829 199 q 799 246 799 218 l 799 253 l 799 257 l 799 261 q 801 274 801 274 q 828 292 801 278 q 842 299 835 294 q 857 307 849 303 q 883 325 864 311 q 933 363 903 339 q 951 378 936 368 q 985 401 974 390 q 1004 419 997 411 q 1016 434 1011 428 q 1029 444 1021 440 q 1052 453 1038 450 q 1099 461 1067 457 l 1099 467 q 1091 481 1099 476 q 1074 486 1083 485 q 1053 487 1064 488 q 1036 486 1042 486 l 1007 486 q 972 480 988 486 q 935 461 956 474 q 878 423 900 440 q 838 390 857 406 q 797 361 818 375 q 742 333 775 347 q 735 328 739 331 q 724 322 731 326 q 713 313 713 315 l 713 196 q 678 178 689 185 q 667 156 667 172 q 669 142 667 149 q 683 132 672 135 q 835 128 763 136 l 867 122 l 885 65 q 889 52 888 58 q 892 40 890 46 l 969 38 m 89 444 q 120 424 89 432 q 192 413 151 417 q 272 408 232 408 q 328 407 311 407 q 374 434 357 407 q 401 497 392 461 q 415 566 411 532 q 419 615 418 600 l 467 617 l 467 619 q 465 632 467 628 q 461 654 465 646 q 453 663 458 658 q 446 669 449 668 q 433 679 438 674 q 419 685 428 685 q 405 710 407 699 q 403 738 403 721 q 428 778 403 769 q 482 786 450 786 q 485 787 489 786 q 476 789 482 788 q 467 791 471 790 q 469 792 463 792 q 493 817 493 796 q 492 822 493 819 q 492 825 492 825 q 483 828 488 826 q 469 833 478 831 q 452 838 458 836 q 446 840 446 840 l 50 839 q 26 801 19 808 q 56 782 38 794 q 96 761 75 769 q 110 760 99 760 l 125 760 l 147 760 l 165 760 q 176 760 171 760 q 189 761 182 760 l 336 761 q 324 706 336 729 q 290 670 311 683 q 242 653 269 657 q 186 654 215 649 q 132 640 154 661 q 110 631 122 631 q 104 621 100 631 q 153 579 118 579 q 232 592 196 579 q 311 606 268 606 l 311 499 q 289 500 310 500 q 237 498 268 500 q 175 492 206 496 q 122 485 144 489 q 99 478 100 481 q 89 444 89 464 "},"":{"ha":615,"x_min":17,"x_max":578,"o":"m 232 385 q 215 386 217 385 q 195 394 206 389 q 150 400 185 400 q 131 399 142 400 q 108 397 121 399 q 58 358 76 385 q 31 299 40 332 q 19 233 22 267 q 17 174 17 200 l 118 60 q 173 15 150 25 q 224 4 196 4 q 267 6 243 4 q 325 8 292 8 l 510 8 q 543 38 519 17 q 560 56 553 49 q 572 69 567 64 q 574 76 572 69 q 575 86 575 82 q 574 94 575 89 q 572 100 572 100 q 558 121 565 110 q 539 144 550 132 q 510 174 515 174 l 206 147 l 161 231 q 295 240 225 222 q 429 292 365 258 q 535 373 492 325 q 578 485 578 421 q 540 585 578 561 q 463 583 501 606 q 411 531 422 561 q 354 422 411 458 q 232 385 297 385 m 557 740 l 560 900 l 493 913 q 489 908 493 908 l 408 908 q 407 913 407 908 q 404 910 407 914 q 390 888 401 907 l 378 828 l 364 797 l 364 794 q 376 766 364 783 q 389 740 389 749 l 557 740 "},"":{"ha":951,"x_min":26,"x_max":922,"o":"m 829 158 l 829 436 q 807 461 829 443 q 786 477 794 471 q 771 488 778 483 q 661 555 704 521 q 580 626 618 589 q 498 704 542 663 q 386 794 454 746 q 313 841 344 826 q 242 856 281 856 l 182 856 q 149 856 169 856 q 108 854 128 857 q 73 841 88 851 q 58 808 58 831 l 58 794 q 150 777 121 786 q 197 754 179 768 q 220 731 211 744 q 244 697 229 717 q 283 652 258 678 q 351 593 307 626 q 389 557 383 569 q 369 493 397 546 q 307 397 342 442 q 246 326 272 353 q 201 270 218 300 q 163 210 183 240 q 112 147 142 179 q 31 85 82 115 q 27 72 28 81 q 26 51 26 63 l 26 46 q 28 20 26 33 q 32 -7 29 7 q 90 -26 42 -33 l 128 -26 q 186 -28 154 -26 q 244 -29 218 -29 l 282 -29 q 436 -23 363 -29 q 586 -7 510 -17 q 734 7 658 4 q 889 4 810 10 q 917 27 911 11 q 922 60 922 43 q 917 93 922 81 q 900 116 911 106 q 872 135 889 126 q 829 158 854 144 m 481 500 q 542 457 511 479 q 599 414 572 435 q 653 363 651 378 q 657 329 654 360 q 658 317 658 328 l 658 306 l 658 285 q 627 183 658 213 q 510 154 596 154 q 487 152 506 154 q 447 151 468 150 q 407 160 425 153 q 386 185 389 167 q 396 217 390 192 q 406 271 401 242 q 420 324 410 301 q 442 386 431 347 l 469 436 l 481 500 m 321 1251 l 354 1067 l 511 925 l 454 1060 q 463 1053 453 1063 q 489 1026 472 1043 q 525 990 506 1010 q 563 952 544 969 q 596 923 582 935 q 614 911 610 911 l 614 913 q 608 934 614 917 q 597 975 603 951 q 585 1024 590 999 q 579 1069 579 1050 l 515 1153 l 531 1188 q 532 1190 532 1189 q 527 1205 532 1196 q 517 1223 522 1214 q 508 1240 513 1232 q 503 1251 503 1247 l 321 1251 "},"":{"ha":951,"x_min":26,"x_max":922,"o":"m 829 158 l 829 436 q 807 461 829 443 q 786 477 794 471 q 771 488 778 483 q 661 555 704 521 q 580 626 618 589 q 498 704 542 663 q 386 794 454 746 q 313 841 344 826 q 242 856 281 856 l 182 856 q 149 856 169 856 q 108 854 128 857 q 73 841 88 851 q 58 808 58 831 l 58 794 q 150 777 121 786 q 197 754 179 768 q 220 731 211 744 q 244 697 229 717 q 283 652 258 678 q 351 593 307 626 q 389 557 383 569 q 369 493 397 546 q 307 397 342 442 q 246 326 272 353 q 201 270 218 300 q 163 210 183 240 q 112 147 142 179 q 31 85 82 115 q 27 72 28 81 q 26 51 26 63 l 26 46 q 28 20 26 33 q 32 -7 29 7 q 90 -26 42 -33 l 128 -26 q 186 -28 154 -26 q 244 -29 218 -29 l 282 -29 q 436 -23 363 -29 q 586 -7 510 -17 q 734 7 658 4 q 889 4 810 10 q 917 27 911 11 q 922 60 922 43 q 917 93 922 81 q 900 116 911 106 q 872 135 889 126 q 829 158 854 144 m 481 500 q 542 457 511 479 q 599 414 572 435 q 653 363 651 378 q 657 329 654 360 q 658 317 658 328 l 658 306 l 658 285 q 627 183 658 213 q 510 154 596 154 q 487 152 506 154 q 447 151 468 150 q 407 160 425 153 q 386 185 389 167 q 396 217 390 192 q 406 271 401 242 q 420 324 410 301 q 442 386 431 347 l 469 436 l 481 500 m 661 1254 l 479 1254 q 474 1242 479 1250 q 465 1226 469 1235 q 455 1208 460 1217 q 450 1193 450 1199 q 451 1190 450 1192 l 467 1156 l 403 1072 q 397 1027 403 1053 q 385 978 392 1001 q 374 937 379 954 q 368 915 368 919 l 368 914 q 401 939 375 914 q 457 992 428 964 q 508 1044 486 1021 q 528 1063 529 1067 l 471 928 l 628 1069 l 661 1254 "},"":{"ha":951,"x_min":26,"x_max":922,"o":"m 829 158 q 872 135 854 144 q 900 116 889 126 q 917 93 911 106 q 922 60 922 81 q 917 27 922 43 q 889 4 911 11 q 734 7 810 10 q 586 -7 658 4 q 436 -23 510 -17 q 282 -29 363 -29 l 244 -29 q 186 -28 218 -29 q 128 -26 154 -26 l 90 -26 q 32 -7 42 -33 q 28 20 29 7 q 26 46 26 33 l 26 51 q 27 72 26 63 q 31 85 28 81 q 112 147 82 115 q 163 210 142 179 q 201 270 183 240 q 246 326 218 300 q 307 397 272 353 q 369 493 342 442 q 389 557 397 546 q 351 593 382 571 q 283 652 307 626 q 244 697 258 678 q 221 731 231 717 q 197 754 211 744 q 150 777 179 768 q 58 794 121 786 l 58 808 q 73 841 58 831 q 108 854 88 851 q 149 856 128 857 q 182 856 169 856 l 242 856 q 313 841 281 856 q 386 794 344 826 q 498 704 454 746 q 580 626 542 663 q 661 555 618 589 q 771 488 704 521 q 786 477 778 483 q 807 461 794 471 q 829 436 829 443 l 829 158 m 481 500 l 469 436 l 442 386 q 420 324 431 347 q 406 271 410 301 q 396 217 401 242 q 386 185 390 192 q 407 160 389 167 q 447 151 425 153 q 487 152 468 150 q 510 154 506 154 q 627 183 596 154 q 658 285 658 213 l 658 306 l 658 317 q 657 329 658 328 q 653 363 654 360 q 599 414 650 379 q 542 457 572 435 q 481 500 511 479 m 643 940 q 631 973 643 963 q 606 1003 619 983 q 577 1040 594 1024 q 546 1072 560 1056 q 523 1083 533 1076 q 503 1099 513 1090 q 464 1061 476 1069 q 447 1046 456 1053 q 431 1031 439 1039 q 409 1010 424 1024 q 374 978 394 997 q 373 967 374 975 q 370 952 372 958 q 364 944 368 946 q 354 954 360 943 l 285 1076 q 304 1094 283 1078 q 322 1109 314 1103 q 335 1119 329 1115 q 400 1173 375 1151 q 447 1219 425 1194 l 447 1229 q 458 1242 453 1235 q 469 1258 464 1249 q 478 1271 472 1264 q 492 1285 483 1278 q 494 1288 493 1286 q 496 1290 494 1289 l 496 1292 l 499 1292 l 500 1292 l 503 1292 l 506 1292 q 543 1272 528 1292 q 558 1229 558 1251 l 558 1219 q 604 1172 578 1193 q 671 1119 631 1150 q 683 1109 675 1115 q 700 1094 690 1103 q 708 1060 703 1075 q 719 1038 714 1044 l 643 940 "},"":{"ha":951,"x_min":26,"x_max":922,"o":"m 829 158 q 872 135 854 144 q 900 116 889 126 q 917 93 911 106 q 922 60 922 81 q 917 27 922 43 q 889 4 911 11 q 734 7 810 10 q 586 -7 658 4 q 436 -23 510 -17 q 282 -29 363 -29 l 244 -29 q 186 -28 218 -29 q 128 -26 154 -26 l 90 -26 q 32 -7 42 -33 q 28 20 29 7 q 26 46 26 33 l 26 51 q 27 72 26 63 q 31 85 28 81 q 112 147 82 115 q 163 210 142 179 q 201 270 183 240 q 246 326 218 300 q 307 397 272 353 q 369 493 342 442 q 389 557 397 546 q 351 593 382 571 q 283 652 307 626 q 244 697 258 678 q 221 731 231 717 q 197 754 211 744 q 150 777 179 768 q 58 794 121 786 l 58 808 q 73 841 58 831 q 108 854 88 851 q 149 856 128 857 q 182 856 169 856 l 242 856 q 313 841 281 856 q 386 794 344 826 q 498 704 454 746 q 580 626 542 663 q 661 555 618 589 q 771 488 704 521 q 786 477 778 483 q 807 461 794 471 q 829 436 829 443 l 829 158 m 481 500 l 469 436 l 442 386 q 420 324 431 347 q 406 271 410 301 q 396 217 401 242 q 386 185 390 192 q 407 160 389 167 q 447 151 425 153 q 487 152 468 150 q 510 154 506 154 q 627 183 596 154 q 658 285 658 213 l 658 306 l 658 317 q 657 329 658 328 q 653 363 654 360 q 599 414 650 379 q 542 457 572 435 q 481 500 511 479 m 669 975 l 536 958 q 433 1061 440 1057 q 408 1075 428 1065 q 357 1036 390 1081 l 292 969 q 208 989 244 969 q 172 1065 172 1008 q 174 1083 172 1069 q 175 1104 175 1097 q 263 1150 226 1121 q 331 1201 300 1179 q 392 1228 363 1224 q 457 1201 421 1233 l 563 1108 q 593 1099 579 1088 q 609 1112 601 1106 q 628 1125 617 1118 q 648 1140 638 1132 q 668 1157 658 1149 q 723 1199 697 1183 q 760 1197 749 1215 l 815 1156 q 786 1078 814 1103 q 762 1057 772 1067 q 742 1039 751 1047 l 715 1013 q 699 999 710 1008 q 669 975 688 989 "},"":{"ha":951,"x_min":26,"x_max":922,"o":"m 829 158 q 872 135 854 144 q 900 116 889 126 q 917 93 911 106 q 922 60 922 81 q 917 27 922 43 q 889 4 911 11 q 734 7 810 10 q 586 -7 658 4 q 436 -23 510 -17 q 282 -29 363 -29 l 244 -29 q 186 -28 218 -29 q 128 -26 154 -26 l 90 -26 q 32 -7 42 -33 q 28 20 29 7 q 26 46 26 33 l 26 51 q 27 72 26 63 q 31 85 28 81 q 112 147 82 115 q 163 210 142 179 q 201 270 183 240 q 246 326 218 300 q 307 397 272 353 q 369 493 342 442 q 389 557 397 546 q 351 593 382 571 q 283 652 307 626 q 244 697 258 678 q 221 731 231 717 q 197 754 211 744 q 150 777 179 768 q 58 794 121 786 l 58 808 q 73 841 58 831 q 108 854 88 851 q 149 856 128 857 q 182 856 169 856 l 242 856 q 313 841 281 856 q 386 794 344 826 q 498 704 454 746 q 580 626 542 663 q 661 555 618 589 q 771 488 704 521 q 786 477 778 483 q 807 461 794 471 q 829 436 829 443 l 829 158 m 481 500 l 469 436 l 442 386 q 420 324 431 347 q 406 271 410 301 q 396 217 401 242 q 386 185 390 192 q 407 160 389 167 q 447 151 425 153 q 487 152 468 150 q 510 154 506 154 q 627 183 596 154 q 658 285 658 213 l 658 306 l 658 317 q 657 329 658 328 q 653 363 654 360 q 599 414 650 379 q 542 457 572 435 q 481 500 511 479 m 221 1111 l 403 1111 q 407 1098 403 1106 q 417 1082 411 1090 q 426 1065 422 1074 q 431 1050 431 1057 l 431 1047 l 415 1013 l 401 947 q 386 922 389 925 q 383 919 383 918 q 382 924 383 924 l 294 924 q 290 919 290 924 l 217 933 l 221 1111 m 518 1111 l 700 1111 q 704 1098 700 1106 q 714 1082 708 1090 q 724 1065 719 1074 q 728 1050 728 1057 l 728 1047 l 713 1013 l 699 947 q 683 922 686 925 q 681 919 681 918 q 679 924 681 924 l 592 924 q 588 919 588 924 l 514 933 l 518 1111 "},"":{"ha":951,"x_min":26,"x_max":922,"o":"m 829 158 q 872 135 854 144 q 900 116 889 126 q 917 93 911 106 q 922 60 922 81 q 917 27 922 43 q 889 4 911 11 q 734 7 810 10 q 586 -7 658 4 q 436 -23 510 -17 q 282 -29 363 -29 l 244 -29 q 186 -28 218 -29 q 128 -26 154 -26 l 90 -26 q 32 -7 42 -33 q 28 20 29 7 q 26 46 26 33 l 26 51 q 27 72 26 63 q 31 85 28 81 q 112 147 82 115 q 163 210 142 179 q 201 270 183 240 q 246 326 218 300 q 307 397 272 353 q 369 493 342 442 q 389 557 397 546 q 351 593 382 571 q 283 652 307 626 q 244 697 258 678 q 221 731 231 717 q 197 754 211 744 q 150 777 179 768 q 58 794 121 786 l 58 808 q 73 841 58 831 q 108 854 88 851 q 149 856 128 857 q 182 856 169 856 l 242 856 q 313 841 281 856 q 386 794 344 826 q 498 704 454 746 q 580 626 542 663 q 661 555 618 589 q 771 488 704 521 q 786 477 778 483 q 807 461 794 471 q 829 436 829 443 l 829 158 m 481 500 l 469 436 l 442 386 q 420 324 431 347 q 406 271 410 301 q 396 217 401 242 q 386 185 390 192 q 407 160 389 167 q 447 151 425 153 q 487 152 468 150 q 510 154 506 154 q 627 183 596 154 q 658 285 658 213 l 658 306 l 658 317 q 657 329 658 328 q 653 363 654 360 q 599 414 650 379 q 542 457 572 435 q 481 500 511 479 m 742 1093 q 741 1085 742 1090 q 740 1081 740 1081 l 579 893 l 444 893 l 443 893 l 425 893 l 264 1081 l 264 1093 l 264 1096 q 272 1127 264 1113 q 291 1154 281 1142 q 310 1178 301 1167 q 318 1204 318 1190 l 318 1219 q 322 1244 318 1228 q 328 1253 328 1250 q 324 1263 328 1256 q 319 1289 319 1269 l 319 1296 q 326 1314 322 1303 q 332 1326 329 1325 l 338 1326 q 389 1330 365 1326 q 440 1336 413 1333 q 444 1339 443 1339 l 476 1339 l 486 1339 l 518 1339 q 560 1337 542 1339 q 597 1333 579 1335 q 631 1328 614 1331 q 668 1326 649 1326 l 674 1326 q 679 1314 675 1325 q 686 1296 683 1303 l 686 1289 q 682 1263 686 1269 q 678 1253 678 1256 q 683 1244 678 1249 q 687 1219 688 1228 q 686 1204 686 1211 q 694 1178 686 1190 q 713 1154 703 1167 q 733 1127 724 1142 q 742 1096 742 1113 l 742 1093 m 508 1239 l 444 1239 q 416 1225 428 1239 q 398 1191 404 1211 q 389 1150 392 1171 q 386 1117 386 1129 l 386 1101 l 500 975 l 507 975 l 621 1101 q 622 1108 621 1101 q 622 1117 622 1114 q 619 1150 622 1129 q 610 1191 617 1171 q 592 1225 603 1211 q 564 1239 581 1239 l 508 1239 "},"":{"ha":1596,"x_min":26,"x_max":1553,"o":"m 1414 785 q 1396 718 1414 749 q 1347 703 1392 711 q 1241 689 1301 696 q 1117 678 1181 682 q 1014 674 1054 674 q 985 674 996 674 q 969 676 975 675 l 969 464 q 1051 472 1013 464 q 1128 490 1090 481 q 1206 508 1167 500 q 1286 517 1244 517 q 1346 493 1322 517 q 1385 432 1369 469 q 1385 419 1389 422 q 1374 413 1382 415 q 1353 406 1365 410 q 1329 393 1342 403 q 1221 367 1281 353 q 1107 369 1161 378 q 1011 334 1053 361 q 944 261 969 307 q 919 151 919 215 l 1215 151 q 1343 156 1315 156 q 1401 151 1369 156 q 1442 132 1422 143 q 1481 109 1463 121 q 1514 88 1499 97 q 1539 72 1529 78 q 1493 -3 1553 60 l 701 -6 q 665 3 692 -6 q 626 -2 646 0 q 586 -7 606 -4 q 436 -23 510 -17 q 282 -29 363 -29 l 244 -29 q 186 -28 218 -29 q 128 -26 154 -26 l 90 -26 q 32 -7 42 -33 q 28 20 29 7 q 26 46 26 33 l 26 51 q 27 72 26 63 q 31 85 28 81 q 112 147 82 115 q 163 210 142 179 q 201 270 183 240 q 246 326 218 300 q 307 397 272 353 q 369 493 342 442 q 389 557 397 546 q 351 593 383 569 q 283 652 307 626 q 244 697 258 678 q 220 731 229 717 q 197 754 211 744 q 150 777 179 768 q 58 794 121 786 l 58 808 q 73 841 58 831 q 108 854 88 851 q 149 856 128 857 q 182 856 169 856 l 242 856 q 313 841 281 856 q 386 794 344 826 q 495 706 453 746 q 575 629 538 665 q 653 560 613 593 q 757 494 694 526 q 772 602 761 539 q 803 723 782 665 q 856 821 824 781 q 938 861 889 861 q 1003 860 960 861 q 1100 857 1047 860 q 1209 849 1153 854 q 1310 836 1265 844 q 1385 815 1356 828 q 1414 785 1414 803 m 481 500 l 469 436 l 442 386 q 420 324 431 347 q 406 271 410 301 q 396 217 401 242 q 386 185 390 192 q 407 160 389 167 q 447 151 425 153 q 487 152 468 150 q 510 154 506 154 q 627 183 596 154 q 658 285 658 213 l 658 317 q 657 329 658 328 q 653 363 654 360 q 599 414 651 378 q 542 457 572 435 q 481 500 511 479 "},"":{"ha":939,"x_min":39,"x_max":894,"o":"m 511 -86 l 511 -15 l 444 -15 l 43 358 q 41 369 43 358 q 39 383 39 379 l 39 389 q 60 451 39 424 q 108 505 82 479 q 156 555 135 531 q 178 606 178 579 q 176 635 178 618 q 186 688 175 653 q 200 703 200 696 q 197 711 200 707 q 190 723 194 715 q 183 743 186 731 q 181 775 181 756 l 181 790 q 188 806 183 796 q 198 826 193 817 q 206 843 203 836 q 211 851 210 850 l 224 851 q 316 856 274 851 q 401 864 358 860 q 492 872 444 868 q 599 876 539 876 l 783 876 q 862 808 829 851 q 894 713 894 765 l 475 713 q 399 677 429 711 q 351 597 369 643 q 324 502 332 551 q 317 422 317 453 q 319 400 317 414 q 321 386 321 386 l 629 83 l 806 96 q 861 61 861 86 l 861 57 q 853 33 857 44 q 844 13 850 22 q 816 -6 836 4 q 783 -15 796 -15 l 647 -15 l 619 -115 l 515 -179 l 286 -179 l 511 -86 "},"":{"ha":1028,"x_min":29,"x_max":976,"o":"m 838 785 q 819 718 838 749 q 770 703 815 711 q 665 689 725 696 q 541 678 604 682 q 438 674 478 674 q 409 674 419 674 q 393 676 399 675 l 393 464 q 475 472 436 464 q 552 490 514 481 q 629 508 590 500 q 710 517 668 517 q 769 493 746 517 q 808 432 793 469 q 809 419 813 422 q 797 413 806 415 q 777 406 789 410 q 753 393 765 403 q 644 367 704 353 q 531 369 585 378 q 435 334 476 361 q 368 261 393 307 q 343 151 343 215 l 639 151 q 767 156 739 156 q 825 151 793 156 q 866 132 846 143 q 904 109 886 121 q 938 88 922 97 q 963 72 953 78 q 917 -3 976 60 l 125 -6 q 78 7 115 -6 q 51 18 61 14 q 32 25 40 22 q 31 31 32 25 q 29 42 29 38 q 78 90 29 83 q 82 94 90 92 q 62 97 74 96 q 44 100 50 99 q 53 101 38 101 q 161 118 113 103 q 210 199 210 135 q 206 255 210 232 q 176 306 201 278 q 151 316 161 306 q 125 335 140 326 q 108 348 118 338 q 93 365 97 358 q 85 411 86 382 q 83 434 83 426 q 82 442 82 442 l 176 444 q 181 501 178 463 q 192 585 185 539 q 213 681 200 632 q 247 769 226 729 q 294 835 267 810 q 361 861 322 861 q 427 860 383 861 q 524 857 471 860 q 633 849 576 854 q 734 836 689 844 q 808 815 779 828 q 838 785 838 803 m 372 1251 l 554 1251 q 559 1240 554 1247 q 569 1223 564 1232 q 578 1205 574 1214 q 583 1190 583 1196 q 582 1188 583 1189 l 567 1153 l 631 1069 q 636 1024 631 1050 q 648 975 642 999 q 660 934 654 951 q 665 913 665 917 l 665 911 q 647 923 661 911 q 615 952 633 935 q 576 990 596 969 q 540 1026 557 1010 q 514 1053 524 1043 q 506 1060 504 1063 l 563 925 l 406 1067 l 372 1251 "},"":{"ha":1028,"x_min":29,"x_max":976,"o":"m 838 785 q 819 718 838 749 q 770 703 815 711 q 665 689 725 696 q 541 678 604 682 q 438 674 478 674 q 409 674 419 674 q 393 676 399 675 l 393 464 q 475 472 436 464 q 552 490 514 481 q 629 508 590 500 q 710 517 668 517 q 769 493 746 517 q 808 432 793 469 q 809 419 813 422 q 797 413 806 415 q 777 406 789 410 q 753 393 765 403 q 644 367 704 353 q 531 369 585 378 q 435 334 476 361 q 368 261 393 307 q 343 151 343 215 l 639 151 q 767 156 739 156 q 825 151 793 156 q 866 132 846 143 q 904 109 886 121 q 938 88 922 97 q 963 72 953 78 q 917 -3 976 60 l 125 -6 q 78 7 115 -6 q 51 18 61 14 q 32 25 40 22 q 31 31 32 25 q 29 42 29 38 q 78 90 29 83 q 82 94 90 92 q 62 97 74 96 q 44 100 50 99 q 53 101 38 101 q 161 118 113 103 q 210 199 210 135 q 206 255 210 232 q 176 306 201 278 q 151 316 161 306 q 125 335 140 326 q 108 348 118 338 q 93 365 97 358 q 85 411 86 382 q 83 434 83 426 q 82 442 82 442 l 176 444 q 181 501 178 463 q 192 585 185 539 q 213 681 200 632 q 247 769 226 729 q 294 835 267 810 q 361 861 322 861 q 427 860 383 861 q 524 857 471 860 q 633 849 576 854 q 734 836 689 844 q 808 815 779 828 q 838 785 838 803 m 696 1260 l 663 1075 l 506 933 l 563 1068 q 542 1049 564 1072 q 492 998 521 1026 q 436 944 463 969 q 403 919 410 919 l 403 921 q 408 942 403 925 q 420 983 414 960 q 432 1033 426 1007 q 438 1078 438 1058 l 501 1161 l 486 1196 q 485 1199 485 1197 q 490 1213 485 1204 q 499 1231 494 1222 q 509 1248 504 1240 q 514 1260 514 1256 l 696 1260 "},"":{"ha":1028,"x_min":29,"x_max":976,"o":"m 838 785 q 819 718 838 749 q 770 703 815 711 q 665 689 725 696 q 541 678 604 682 q 438 674 478 674 q 409 674 419 674 q 393 676 399 675 l 393 464 q 475 472 436 464 q 552 490 514 481 q 629 508 590 500 q 710 517 668 517 q 769 493 746 517 q 808 432 793 469 q 809 419 813 422 q 797 413 806 415 q 777 406 789 410 q 753 393 765 403 q 644 367 704 353 q 531 369 585 378 q 435 334 476 361 q 368 261 393 307 q 343 151 343 215 l 639 151 q 767 156 739 156 q 825 151 793 156 q 866 132 846 143 q 904 109 886 121 q 938 88 922 97 q 963 72 953 78 q 917 -3 976 60 l 125 -6 q 78 7 115 -6 q 51 18 61 14 q 32 25 40 22 q 31 31 32 25 q 29 42 29 38 q 78 90 29 83 q 82 94 90 92 q 62 97 74 96 q 44 100 50 99 q 53 101 38 101 q 161 118 113 103 q 210 199 210 135 q 206 255 210 232 q 176 306 201 278 q 151 316 161 306 q 125 335 140 326 q 108 348 118 338 q 93 365 97 358 q 85 411 86 382 q 83 434 83 426 q 82 442 82 442 l 176 444 q 181 501 178 463 q 192 585 185 539 q 213 681 200 632 q 247 769 226 729 q 294 835 267 810 q 361 861 322 861 q 427 860 383 861 q 524 857 471 860 q 633 849 576 854 q 734 836 689 844 q 808 815 779 828 q 838 785 838 803 m 681 953 q 669 985 681 975 q 643 1015 657 996 q 615 1052 632 1036 q 583 1085 597 1068 q 560 1096 571 1089 q 540 1111 550 1103 q 501 1074 513 1081 q 485 1058 493 1065 q 468 1043 476 1051 q 447 1023 461 1036 q 411 990 432 1010 q 410 979 411 988 q 408 965 410 971 q 401 957 406 958 q 392 967 397 956 l 322 1089 q 342 1107 321 1090 q 359 1122 351 1115 q 372 1132 367 1128 q 438 1185 413 1164 q 485 1232 463 1207 l 485 1242 q 496 1254 490 1247 q 507 1271 501 1261 q 515 1283 510 1276 q 529 1297 521 1290 q 531 1300 531 1299 q 533 1303 532 1301 l 533 1304 l 536 1304 l 538 1304 l 540 1304 l 543 1304 q 581 1284 565 1304 q 596 1242 596 1264 l 596 1232 q 642 1184 615 1206 q 708 1132 668 1163 q 720 1122 713 1128 q 738 1107 728 1115 q 746 1072 740 1088 q 757 1050 751 1057 l 681 953 "},"":{"ha":1028,"x_min":29,"x_max":976,"o":"m 838 785 q 808 815 838 803 q 734 836 779 828 q 633 849 689 844 q 524 857 576 854 q 427 860 471 860 q 361 861 383 861 q 294 835 322 861 q 247 769 267 810 q 213 681 226 729 q 192 585 200 632 q 181 501 185 539 q 176 444 178 463 l 82 442 q 83 434 82 442 q 85 411 83 426 q 93 365 86 382 q 108 348 97 358 q 125 335 118 338 q 151 316 140 326 q 176 306 161 306 q 206 255 201 278 q 210 199 210 232 q 161 118 210 135 q 53 101 113 103 q 44 100 38 101 q 62 97 50 99 q 82 94 74 96 q 78 90 90 92 q 29 42 29 83 q 31 31 29 38 q 32 25 32 25 q 51 18 40 22 q 78 7 61 14 q 125 -6 115 -6 l 917 -3 q 963 72 976 60 q 938 88 953 78 q 904 109 922 97 q 866 132 886 121 q 825 151 846 143 q 767 156 793 156 q 639 151 739 156 l 343 151 q 368 261 343 215 q 435 334 393 307 q 531 369 476 361 q 644 367 585 378 q 753 393 704 353 q 777 406 765 403 q 797 413 789 410 q 809 419 806 415 q 808 432 813 422 q 769 493 793 469 q 710 517 746 517 q 629 508 668 517 q 552 490 590 500 q 475 472 514 481 q 393 464 436 464 l 393 676 q 409 674 399 675 q 438 674 419 674 q 541 678 478 674 q 665 690 604 683 q 770 703 725 696 q 819 718 815 711 q 838 785 838 749 m 268 1161 l 264 983 l 338 969 q 342 974 338 974 l 429 974 q 431 969 431 974 q 433 972 431 968 q 449 997 436 975 l 463 1063 l 478 1097 l 478 1100 q 474 1115 478 1107 q 464 1132 469 1124 q 454 1148 458 1140 q 450 1161 450 1156 l 268 1161 m 565 1161 l 561 983 l 635 969 q 639 974 635 974 l 726 974 q 728 969 728 974 q 731 972 728 968 q 746 997 733 975 l 760 1063 l 775 1097 l 775 1100 q 771 1115 775 1107 q 761 1132 767 1124 q 751 1148 756 1140 q 747 1161 747 1156 l 565 1161 "},"":{"ha":494,"x_min":28,"x_max":447,"o":"m 369 500 q 359 442 369 469 q 336 387 349 414 q 313 332 324 360 q 303 272 303 304 q 327 201 303 232 q 381 144 351 171 q 428 99 411 119 q 447 56 444 78 q 433 13 442 31 q 399 -12 425 -4 q 344 -25 374 -22 q 288 -28 314 -28 l 238 -28 q 165 -26 201 -28 q 97 -12 128 -24 q 47 25 67 0 q 28 96 28 50 q 43 182 28 142 q 77 262 58 222 q 112 343 96 301 q 128 433 128 385 q 122 488 128 469 q 110 519 117 507 q 99 544 104 532 q 94 578 94 556 q 101 685 94 631 q 126 784 107 740 q 184 856 146 828 q 285 883 222 883 q 298 749 285 797 q 327 666 311 701 q 356 595 343 631 q 369 500 369 560 m 81 1339 l 263 1339 q 267 1327 263 1335 q 277 1310 272 1319 q 287 1292 282 1301 q 292 1278 292 1283 q 290 1275 292 1276 l 275 1240 l 339 1157 q 344 1112 339 1138 q 356 1063 350 1086 q 368 1022 363 1039 q 374 1000 374 1004 l 374 999 q 356 1010 369 999 q 323 1040 342 1022 q 285 1077 304 1057 q 249 1114 265 1097 q 222 1140 232 1131 q 214 1147 213 1150 l 271 1013 l 114 1154 l 81 1339 "},"":{"ha":494,"x_min":28,"x_max":447,"o":"m 369 500 q 359 442 369 469 q 336 387 349 414 q 313 332 324 360 q 303 272 303 304 q 327 201 303 232 q 381 144 351 171 q 428 99 411 119 q 447 56 444 78 q 433 13 442 31 q 399 -12 425 -4 q 344 -25 374 -22 q 288 -28 314 -28 l 238 -28 q 165 -26 201 -28 q 97 -12 128 -24 q 47 25 67 0 q 28 96 28 50 q 43 182 28 142 q 77 262 58 222 q 112 343 96 301 q 128 433 128 385 q 122 488 128 469 q 110 519 117 507 q 99 544 104 532 q 94 578 94 556 q 101 685 94 631 q 126 784 107 740 q 184 856 146 828 q 285 883 222 883 q 298 749 285 797 q 327 666 311 701 q 356 595 343 631 q 369 500 369 560 m 382 1342 l 349 1157 l 192 1015 l 249 1150 q 228 1131 250 1154 q 178 1080 207 1108 q 122 1026 149 1051 q 89 1001 96 1001 l 89 1003 q 94 1024 89 1007 q 106 1065 100 1042 q 118 1115 113 1089 q 124 1160 124 1140 l 188 1243 l 172 1278 q 171 1281 171 1279 q 176 1295 171 1286 q 185 1313 181 1304 q 195 1330 190 1322 q 200 1342 200 1338 l 382 1342 "},"":{"ha":494,"x_min":4,"x_max":447,"o":"m 369 500 q 356 595 369 560 q 327 666 343 631 q 298 749 311 701 q 285 883 285 797 q 184 856 222 883 q 126 784 146 828 q 101 685 107 740 q 94 578 94 631 q 99 544 94 556 q 110 519 104 532 q 122 488 117 507 q 128 433 128 469 q 112 343 128 385 q 77 262 96 301 q 43 182 58 222 q 28 96 28 142 q 47 25 28 50 q 97 -12 67 0 q 165 -26 128 -24 q 238 -28 201 -28 l 288 -28 q 344 -25 314 -28 q 399 -12 374 -22 q 433 13 425 -4 q 447 56 442 31 q 428 99 444 78 q 381 144 411 119 q 327 201 351 171 q 303 272 303 232 q 313 332 303 304 q 336 387 324 360 q 359 442 349 414 q 369 500 369 469 m 364 972 l 440 1069 q 429 1092 435 1076 q 421 1126 424 1107 q 403 1141 411 1135 q 392 1151 396 1147 q 325 1203 351 1182 q 279 1251 299 1225 l 279 1261 q 264 1303 279 1283 q 226 1324 249 1324 l 224 1324 l 221 1324 l 219 1324 l 217 1324 l 217 1322 q 215 1319 215 1321 q 213 1317 214 1318 q 199 1303 204 1310 q 190 1290 193 1296 q 179 1274 185 1281 q 168 1261 174 1267 l 168 1251 q 121 1205 146 1226 q 56 1151 96 1183 q 42 1141 50 1147 q 25 1126 35 1135 q 6 1108 4 1110 l 75 986 q 85 976 81 975 q 91 984 89 978 q 94 999 93 990 q 94 1010 94 1007 q 130 1042 115 1029 q 151 1063 144 1056 q 168 1078 160 1071 q 185 1093 176 1085 q 224 1131 196 1100 q 244 1115 233 1122 q 267 1104 254 1108 q 298 1072 281 1088 q 326 1035 315 1056 q 352 1005 340 1015 q 364 972 364 994 "},"":{"ha":494,"x_min":-12,"x_max":499,"o":"m 369 500 q 356 595 369 560 q 327 666 343 631 q 298 749 311 701 q 285 883 285 797 q 184 856 222 883 q 126 784 146 828 q 101 685 107 740 q 94 578 94 631 q 99 544 94 556 q 110 519 104 532 q 122 488 117 507 q 128 433 128 469 q 112 343 128 385 q 77 262 96 301 q 43 182 58 222 q 28 96 28 142 q 47 25 28 50 q 97 -12 67 0 q 165 -26 128 -24 q 238 -28 201 -28 l 288 -28 q 344 -25 314 -28 q 399 -12 374 -22 q 433 13 425 -4 q 447 56 442 31 q 428 99 444 78 q 381 144 411 119 q 327 201 351 171 q 303 272 303 232 q 313 332 303 304 q 336 387 324 360 q 359 442 349 414 q 369 500 369 469 m -8 1239 l -12 1061 l 61 1047 q 65 1051 61 1051 l 153 1051 q 154 1047 154 1051 q 157 1049 154 1046 q 172 1075 160 1053 l 186 1140 l 201 1175 l 201 1178 q 197 1193 201 1185 q 188 1210 193 1201 q 178 1226 182 1218 q 174 1239 174 1233 l -8 1239 m 289 1239 l 285 1061 l 358 1047 q 363 1051 358 1051 l 450 1051 q 451 1047 451 1051 q 454 1049 451 1046 q 469 1075 457 1053 l 483 1140 l 499 1175 l 499 1178 q 494 1193 499 1185 q 485 1210 490 1201 q 475 1226 479 1218 q 471 1239 471 1233 l 289 1239 "},"":{"ha":1014,"x_min":10,"x_max":975,"o":"m 883 685 l 883 403 q 861 375 883 396 q 824 350 838 356 q 714 281 757 315 q 632 210 671 247 q 548 131 593 172 q 433 39 503 89 q 358 -8 390 7 q 288 -24 326 -24 l 228 -24 q 203 -24 218 -24 q 174 -24 189 -25 q 143 -20 158 -24 q 117 -8 128 -17 q 101 14 101 3 q 103 32 101 28 q 126 40 104 36 q 169 61 151 47 q 194 146 193 78 q 201 245 196 182 q 214 408 206 308 l 214 417 q 179 418 196 417 q 146 419 163 419 q 94 419 118 419 q 51 424 69 418 q 21 447 32 431 q 10 496 10 463 q 11 518 10 501 q 13 542 13 535 q 86 560 58 556 q 135 565 114 565 q 176 559 157 564 q 221 550 194 554 q 217 603 219 582 q 208 632 215 624 q 154 696 189 661 q 116 729 136 714 q 74 758 96 744 q 70 772 71 763 q 69 789 69 782 l 69 799 q 78 851 69 824 q 135 872 86 872 l 329 872 q 485 867 410 872 q 636 851 560 863 q 787 838 711 840 q 943 840 863 835 q 972 816 968 832 q 975 783 975 800 q 970 750 975 763 q 954 728 965 738 q 926 708 943 718 q 883 685 908 699 m 517 411 l 374 406 l 369 349 l 358 207 l 361 179 q 524 322 467 260 q 586 381 556 357 q 649 424 617 406 q 704 476 703 460 q 705 486 704 478 q 707 508 706 494 q 708 522 707 515 q 710 535 710 528 l 710 554 q 681 675 714 660 q 560 689 654 689 q 537 690 556 689 q 496 690 518 690 q 456 683 475 690 q 397 675 436 675 q 392 611 394 646 q 385 533 389 576 l 449 533 l 519 533 q 528 521 524 529 q 538 503 533 513 q 547 485 543 494 q 550 471 550 476 q 549 469 550 468 q 545 472 547 471 q 540 469 543 472 q 535 457 538 467 q 524 428 528 439 q 517 411 519 417 "},"":{"ha":981,"x_min":25,"x_max":939,"o":"m 319 697 q 446 846 378 817 q 539 872 511 875 q 612 866 572 871 q 697 853 651 861 q 814 713 797 800 q 858 585 831 625 q 903 496 886 544 q 933 344 928 425 q 939 192 939 263 q 933 123 939 158 q 911 57 926 88 q 869 7 896 26 q 800 -12 842 -12 q 792 65 800 35 q 771 117 783 96 q 744 154 758 139 q 718 186 731 169 q 697 223 706 203 q 689 275 689 243 q 699 316 689 300 q 722 347 710 332 q 744 376 733 361 q 754 414 754 392 q 738 463 754 439 q 710 567 722 489 q 663 640 697 646 q 629 635 644 638 q 600 631 614 632 q 543 668 581 633 q 503 685 524 685 q 438 651 471 685 q 375 560 404 617 q 338 417 336 483 q 339 354 339 383 q 340 301 339 325 q 342 263 342 278 q 343 242 343 249 q 344 220 343 238 q 350 197 346 203 q 369 192 356 194 q 403 186 382 189 q 454 153 444 179 q 453 14 464 131 l 25 14 q 125 139 64 115 q 155 189 138 150 q 179 282 172 228 q 185 402 186 338 q 183 533 185 467 q 185 662 183 600 q 199 772 188 724 q 235 848 211 819 q 303 876 258 876 l 318 876 q 319 802 318 849 q 319 697 321 756 m 690 1051 l 557 1035 q 454 1138 461 1133 q 445 1143 451 1140 q 429 1151 439 1146 q 378 1113 413 1158 l 313 1046 q 229 1065 265 1046 q 193 1142 193 1085 q 194 1160 193 1146 q 196 1181 196 1174 q 284 1226 247 1197 q 352 1278 321 1256 q 413 1305 383 1300 q 478 1278 442 1310 l 583 1185 q 614 1175 600 1165 q 630 1188 622 1182 q 649 1201 638 1194 q 669 1217 658 1208 q 689 1233 679 1225 q 731 1267 711 1253 q 765 1282 750 1282 q 781 1274 774 1282 l 836 1232 q 807 1154 833 1179 q 783 1133 793 1143 q 763 1115 772 1124 l 736 1089 q 719 1075 731 1085 q 690 1051 708 1065 "},"":{"ha":1031,"x_min":28,"x_max":985,"o":"m 985 478 q 983 492 985 482 q 982 503 982 503 l 660 876 l 389 876 l 386 876 l 351 876 l 29 503 q 28 492 29 503 q 28 478 28 482 l 28 472 q 45 410 28 438 q 83 356 63 382 q 120 306 103 331 q 138 256 138 282 q 137 226 138 243 q 144 174 136 208 q 156 158 156 165 q 147 138 156 151 q 139 86 139 125 l 139 71 q 145 54 142 64 q 152 35 149 44 q 159 18 156 25 q 164 10 163 11 l 175 10 q 278 3 231 10 q 381 -10 325 -4 q 389 -15 385 -14 l 454 -15 l 474 -15 l 538 -15 q 622 -11 585 -15 q 694 -3 660 -7 q 763 6 729 1 q 838 10 797 10 l 847 10 q 852 18 849 11 q 859 35 856 25 q 866 54 863 44 q 872 71 869 64 l 872 86 q 864 138 872 125 q 856 158 856 151 q 867 174 856 165 q 874 226 875 208 q 874 256 874 243 q 891 306 874 282 q 929 356 908 331 q 967 410 950 382 q 985 472 985 438 l 985 478 m 517 186 l 389 185 q 332 215 354 186 q 297 282 310 243 q 278 362 283 321 q 272 429 272 403 q 273 448 272 436 q 274 460 274 460 l 500 714 l 515 714 l 743 460 q 744 448 743 460 q 746 429 746 436 q 740 362 746 403 q 721 282 735 321 q 684 215 707 243 q 628 185 661 186 l 517 185 l 517 186 m 369 1293 l 403 1108 l 560 967 l 503 1101 q 511 1094 501 1104 q 538 1068 521 1085 q 574 1031 554 1051 q 612 994 593 1011 q 644 965 631 976 q 663 953 658 953 l 663 954 q 657 976 663 958 q 645 1017 651 993 q 633 1066 639 1040 q 628 1111 628 1092 l 564 1194 l 579 1229 q 581 1232 581 1231 q 576 1247 581 1238 q 566 1265 571 1256 q 556 1281 561 1274 q 551 1293 551 1289 l 369 1293 "},"":{"ha":1031,"x_min":28,"x_max":985,"o":"m 985 478 q 983 492 985 482 q 982 503 982 503 l 660 876 l 389 876 l 386 876 l 351 876 l 29 503 q 28 492 29 503 q 28 478 28 482 l 28 472 q 45 410 28 438 q 83 356 63 382 q 120 306 103 331 q 138 256 138 282 q 137 226 138 243 q 144 174 136 208 q 156 158 156 165 q 147 138 156 151 q 139 86 139 125 l 139 71 q 145 54 142 64 q 152 35 149 44 q 159 18 156 25 q 164 10 163 11 l 175 10 q 278 3 231 10 q 381 -10 325 -4 q 389 -15 385 -14 l 454 -15 l 474 -15 l 538 -15 q 622 -11 585 -15 q 694 -3 660 -7 q 763 6 729 1 q 838 10 797 10 l 847 10 q 852 18 849 11 q 859 35 856 25 q 866 54 863 44 q 872 71 869 64 l 872 86 q 864 138 872 125 q 856 158 856 151 q 867 174 856 165 q 874 226 875 208 q 874 256 874 243 q 891 306 874 282 q 929 356 908 331 q 967 410 950 382 q 985 472 985 438 l 985 478 m 517 186 l 389 185 q 332 215 354 186 q 297 282 310 243 q 278 362 283 321 q 272 429 272 403 q 273 448 272 436 q 274 460 274 460 l 500 714 l 515 714 l 743 460 q 744 448 743 460 q 746 429 746 436 q 740 362 746 403 q 721 282 735 321 q 684 215 707 243 q 628 185 661 186 l 517 185 l 517 186 m 679 1299 l 497 1299 q 492 1287 497 1294 q 483 1270 488 1279 q 473 1252 478 1261 q 468 1238 468 1243 q 469 1235 468 1236 l 485 1200 l 421 1117 q 415 1072 421 1097 q 403 1022 410 1046 q 392 981 397 999 q 386 960 386 964 l 386 958 q 419 983 393 958 q 475 1037 446 1008 q 526 1088 504 1065 q 546 1107 547 1111 l 489 972 l 646 1114 l 679 1299 "},"":{"ha":1031,"x_min":28,"x_max":985,"o":"m 985 478 l 985 472 q 967 410 985 438 q 929 356 950 382 q 891 306 908 331 q 874 256 874 282 q 874 226 874 243 q 867 174 875 208 q 856 158 856 165 q 864 138 856 151 q 872 86 872 125 l 872 71 q 866 54 869 64 q 859 35 863 44 q 852 18 856 25 q 847 10 849 11 l 838 10 q 763 6 797 10 q 694 -3 729 1 q 622 -11 660 -7 q 538 -15 585 -15 l 474 -15 l 454 -15 l 389 -15 q 381 -10 383 -12 q 278 3 325 -4 q 175 10 231 10 l 164 10 q 159 18 163 11 q 152 35 156 25 q 145 54 149 44 q 139 71 142 64 l 139 86 q 147 138 139 125 q 156 158 156 151 q 144 174 156 165 q 137 226 136 208 q 138 256 138 243 q 120 306 138 282 q 83 356 103 331 q 45 410 63 382 q 28 472 28 438 l 28 478 q 28 492 28 482 q 29 503 29 503 l 351 876 l 386 876 l 389 876 l 660 876 l 982 503 q 983 492 982 503 q 985 478 985 482 m 517 186 l 517 185 l 628 185 q 684 215 661 186 q 721 282 707 243 q 740 362 735 321 q 746 429 746 403 q 744 448 746 436 q 743 460 743 460 l 515 714 l 500 714 l 274 460 q 273 448 274 460 q 272 429 272 436 q 278 362 272 403 q 297 282 283 321 q 332 215 310 243 q 389 185 354 186 l 517 186 m 646 983 q 634 1016 646 1006 q 608 1046 622 1026 q 580 1083 597 1067 q 549 1115 563 1099 q 526 1126 536 1119 q 506 1142 515 1133 q 467 1104 479 1113 q 450 1089 458 1096 q 433 1074 442 1082 q 412 1053 426 1067 q 376 1021 397 1040 q 376 1010 376 1018 q 373 995 375 1001 q 367 988 371 989 q 357 997 363 986 l 288 1119 q 307 1138 286 1121 q 324 1152 317 1146 q 338 1163 332 1158 q 403 1216 378 1194 q 450 1263 428 1238 l 450 1272 q 461 1285 456 1278 q 472 1301 467 1292 q 481 1314 475 1307 q 494 1328 486 1321 q 497 1331 496 1329 q 499 1333 497 1332 l 499 1335 l 501 1335 l 503 1335 l 506 1335 l 508 1335 q 546 1315 531 1335 q 561 1272 561 1294 l 561 1263 q 607 1215 581 1236 q 674 1163 633 1193 q 685 1152 678 1158 q 703 1138 693 1146 q 711 1103 706 1118 q 722 1081 717 1088 l 646 983 "},"":{"ha":1031,"x_min":28,"x_max":985,"o":"m 985 478 q 983 492 985 482 q 982 503 982 503 l 660 876 l 389 876 l 386 876 l 351 876 l 29 503 q 28 492 29 503 q 28 478 28 482 l 28 472 q 45 410 28 438 q 83 356 63 382 q 120 306 103 331 q 138 256 138 282 q 137 226 138 243 q 144 174 136 208 q 156 158 156 165 q 147 138 156 151 q 139 86 139 125 l 139 71 q 145 54 142 64 q 152 35 149 44 q 159 18 156 25 q 164 10 163 11 l 175 10 q 278 3 231 10 q 381 -10 325 -4 q 389 -15 385 -14 l 454 -15 l 474 -15 l 538 -15 q 622 -11 585 -15 q 694 -3 660 -7 q 763 6 729 1 q 838 10 797 10 l 847 10 q 852 18 849 11 q 859 35 856 25 q 866 54 863 44 q 872 71 869 64 l 872 86 q 864 138 872 125 q 856 158 856 151 q 867 174 856 165 q 874 226 875 208 q 874 256 874 243 q 891 306 874 282 q 929 356 908 331 q 967 410 950 382 q 985 472 985 438 l 985 478 m 517 186 l 389 185 q 332 215 354 186 q 297 282 310 243 q 278 362 283 321 q 272 429 272 403 q 273 448 272 436 q 274 460 274 460 l 500 714 l 515 714 l 743 460 q 744 448 743 460 q 746 429 746 436 q 740 362 746 403 q 721 282 735 321 q 684 215 707 243 q 628 185 661 186 l 517 185 l 517 186 m 690 1001 q 719 1025 708 1015 q 736 1039 731 1035 l 763 1065 q 783 1083 772 1074 q 807 1104 793 1093 q 836 1182 833 1129 l 781 1224 q 765 1232 774 1232 q 731 1217 750 1232 q 689 1183 711 1203 q 669 1167 679 1175 q 649 1151 658 1158 q 630 1138 638 1144 q 614 1125 622 1132 q 583 1135 600 1115 l 478 1228 q 413 1255 442 1260 q 352 1228 383 1250 q 284 1176 321 1206 q 196 1131 247 1147 q 194 1110 196 1124 q 193 1092 193 1096 q 229 1015 193 1035 q 313 996 265 996 l 378 1063 q 429 1101 414 1107 q 445 1093 439 1096 q 454 1088 451 1090 q 557 985 461 1083 l 690 1001 "},"":{"ha":1031,"x_min":28,"x_max":985,"o":"m 985 478 q 983 492 985 482 q 982 503 982 503 l 660 876 l 389 876 l 386 876 l 351 876 l 29 503 q 28 492 29 503 q 28 478 28 482 l 28 472 q 45 410 28 438 q 83 356 63 382 q 120 306 103 331 q 138 256 138 282 q 137 226 138 243 q 144 174 136 208 q 156 158 156 165 q 147 138 156 151 q 139 86 139 125 l 139 71 q 145 54 142 64 q 152 35 149 44 q 159 18 156 25 q 164 10 163 11 l 175 10 q 278 3 231 10 q 381 -10 325 -4 q 389 -15 385 -14 l 454 -15 l 474 -15 l 538 -15 q 622 -11 585 -15 q 694 -3 660 -7 q 763 6 729 1 q 838 10 797 10 l 847 10 q 852 18 849 11 q 859 35 856 25 q 866 54 863 44 q 872 71 869 64 l 872 86 q 864 138 872 125 q 856 158 856 151 q 867 174 856 165 q 874 226 875 208 q 874 256 874 243 q 891 306 874 282 q 929 356 908 331 q 967 410 950 382 q 985 472 985 438 l 985 478 m 517 186 l 389 185 q 332 215 354 186 q 297 282 310 243 q 278 362 283 321 q 272 429 272 403 q 273 448 272 436 q 274 460 274 460 l 500 714 l 515 714 l 743 460 q 744 448 743 460 q 746 429 746 436 q 740 362 746 403 q 721 282 735 321 q 684 215 707 243 q 628 185 661 186 l 517 185 l 517 186 m 260 1167 l 256 989 l 329 975 q 333 979 329 979 l 421 979 q 422 975 422 979 q 425 977 422 974 q 440 1003 428 981 l 454 1068 l 469 1103 l 469 1106 q 465 1121 469 1113 q 456 1138 461 1129 q 446 1153 450 1146 q 442 1167 442 1161 l 260 1167 m 557 1167 l 553 989 l 626 975 q 631 979 626 979 l 718 979 q 719 975 719 979 q 722 977 719 974 q 738 1003 725 981 l 751 1068 l 767 1103 l 767 1106 q 763 1121 767 1113 q 753 1138 758 1129 q 743 1153 747 1146 q 739 1167 739 1161 l 557 1167 "},"":{"ha":1150,"x_min":28,"x_max":1114,"o":"m 713 172 l 707 328 l 611 328 q 606 213 608 256 q 600 158 603 171 q 531 -15 615 29 l 33 -14 q 54 67 36 33 q 94 126 72 100 q 197 183 138 178 q 228 178 206 182 q 286 168 250 175 q 432 154 351 154 l 432 315 q 368 353 432 332 q 303 376 338 364 q 229 406 268 389 q 153 442 189 422 q 90 482 118 463 q 28 589 28 525 q 52 690 28 643 q 115 773 76 738 q 202 828 154 808 q 296 849 250 849 q 356 792 328 844 q 347 722 353 744 q 322 682 342 699 q 287 645 303 665 q 271 593 271 625 q 299 528 271 546 q 369 510 326 510 q 390 510 378 510 q 416 514 403 510 q 443 527 429 518 q 469 556 457 536 l 472 811 q 494 833 479 825 q 526 843 510 840 q 558 847 543 846 q 576 849 572 847 q 642 801 624 849 q 656 749 651 776 q 661 694 660 722 q 662 638 664 667 q 657 583 660 608 q 651 538 654 557 q 647 513 647 519 q 701 471 665 472 q 771 447 742 468 q 836 392 814 414 q 868 351 858 369 q 881 319 878 333 q 889 288 883 304 q 900 254 890 271 q 931 217 910 238 q 989 172 953 196 q 1081 117 1025 147 q 1109 90 1104 101 q 1114 53 1114 78 q 1113 31 1114 43 q 1109 9 1113 19 q 1099 -8 1106 -1 q 1081 -15 1092 -15 l 806 -15 q 713 172 681 53 "},"":{"ha":1031,"x_min":28,"x_max":985,"o":"m 985 478 l 985 472 q 967 410 985 438 q 929 356 950 382 q 891 306 908 331 q 874 256 874 282 q 874 226 874 243 q 867 174 875 208 q 856 158 856 165 q 864 138 856 151 q 872 86 872 125 l 872 71 q 866 54 869 64 q 859 35 863 44 q 852 18 856 25 q 847 10 849 11 l 838 10 q 763 6 797 10 q 694 -3 729 1 q 622 -11 660 -7 q 538 -15 585 -15 l 389 -15 q 381 -10 385 -14 q 356 -7 368 -8 q 333 -4 344 -6 q 263 -85 299 -47 q 189 -150 228 -122 l 161 -150 q 125 -148 147 -150 q 81 -140 103 -146 q 44 -123 60 -133 q 29 -94 29 -112 q 61 -42 29 -83 q 143 60 93 0 q 141 65 142 63 q 139 71 140 68 l 139 86 q 147 138 139 125 q 156 158 156 151 q 144 174 156 165 q 137 226 136 208 q 138 256 138 243 q 120 306 138 282 q 83 356 103 331 q 45 410 63 382 q 28 472 28 438 l 28 478 q 28 492 28 482 q 29 503 29 503 l 351 876 l 660 876 l 690 840 q 712 869 700 854 q 739 901 724 885 l 740 901 q 749 908 744 901 q 757 924 753 915 q 765 942 761 933 q 774 951 769 950 l 801 951 l 978 903 l 978 856 q 969 797 979 815 q 945 771 960 779 q 913 757 931 763 q 882 738 896 751 q 854 699 865 722 q 842 665 843 676 l 982 503 q 983 492 982 503 q 985 478 985 482 m 589 632 l 515 714 l 500 714 l 274 460 q 273 448 274 460 q 272 429 272 436 q 274 392 272 414 q 279 347 275 371 q 290 299 283 324 q 307 254 297 275 q 378 342 343 299 q 445 427 414 386 q 502 504 476 468 q 543 569 528 540 l 543 582 q 589 632 569 608 m 517 186 l 517 185 l 628 185 q 684 215 661 186 q 721 282 707 243 q 740 362 735 321 q 746 429 746 403 q 744 448 746 436 q 743 460 743 460 l 704 503 q 678 491 690 497 q 658 475 667 485 q 562 344 610 421 q 463 185 514 268 l 517 186 "},"":{"ha":953,"x_min":28,"x_max":931,"o":"m 578 258 q 559 224 568 242 q 540 186 550 206 q 461 94 521 144 q 292 61 408 36 q 202 105 239 79 q 139 162 165 131 q 95 228 113 193 q 64 301 78 264 q 33 476 39 385 q 28 646 28 567 q 34 724 28 683 q 56 799 40 765 q 98 854 71 832 q 167 876 125 876 q 175 789 167 824 q 196 730 183 754 q 222 688 208 706 q 249 652 236 671 q 269 610 261 633 q 278 553 278 588 q 267 506 278 525 q 245 472 257 488 q 223 438 233 456 q 213 396 213 421 q 228 340 213 365 q 269 294 244 314 q 322 264 293 275 q 374 253 350 253 q 408 274 385 253 q 458 328 431 294 q 515 401 486 361 q 569 478 544 440 q 608 546 593 515 q 624 590 624 576 q 622 614 624 594 q 617 640 621 633 q 539 657 561 647 q 515 672 528 664 q 489 689 503 679 q 451 753 461 708 q 464 850 442 797 l 914 850 q 906 715 931 722 q 864 710 888 710 q 822 669 838 697 q 797 600 806 640 q 785 511 788 560 q 782 408 782 463 l 782 258 q 783 186 783 222 q 781 114 782 150 q 713 26 778 44 q 636 65 646 7 q 626 124 632 94 q 613 179 619 153 q 597 226 606 206 q 578 258 588 247 m 219 1247 l 401 1247 q 406 1235 401 1243 q 416 1219 411 1228 q 426 1201 421 1210 q 431 1186 431 1192 q 429 1183 431 1185 l 414 1149 l 478 1065 q 483 1020 478 1046 q 495 971 489 994 q 507 930 501 947 q 513 908 513 913 l 513 907 q 494 919 508 907 q 462 948 481 931 q 424 985 443 965 q 388 1022 404 1006 q 361 1049 371 1039 q 353 1056 351 1058 l 410 921 l 253 1063 l 219 1247 "},"":{"ha":953,"x_min":28,"x_max":931,"o":"m 578 258 q 559 224 568 242 q 540 186 550 206 q 461 94 521 144 q 292 61 408 36 q 202 105 239 79 q 139 162 165 131 q 95 228 113 193 q 64 301 78 264 q 33 475 39 383 q 28 646 28 567 q 34 724 28 683 q 56 799 40 765 q 98 854 71 832 q 167 876 125 876 q 175 789 167 824 q 196 730 183 754 q 222 688 208 706 q 249 652 236 671 q 269 610 261 633 q 278 553 278 588 q 267 506 278 525 q 245 472 257 488 q 223 438 233 456 q 213 396 213 421 q 228 340 213 365 q 269 294 244 314 q 322 264 293 275 q 374 253 350 253 q 408 274 385 253 q 458 328 431 294 q 515 401 486 361 q 569 478 544 440 q 608 546 593 515 q 624 590 624 576 q 622 614 624 594 q 617 640 621 633 q 539 657 563 646 q 515 672 528 664 q 489 689 503 679 q 451 753 461 708 q 464 850 442 797 l 914 850 q 906 715 931 722 q 864 710 885 710 q 822 669 838 697 q 797 600 806 640 q 785 511 788 560 q 782 408 782 463 l 782 258 q 783 186 783 222 q 781 114 782 150 q 713 26 779 46 q 636 65 647 7 q 626 124 632 94 q 613 179 619 153 q 597 226 606 206 q 578 258 588 247 m 626 1239 l 593 1054 l 436 913 l 493 1047 q 472 1029 494 1051 q 422 978 450 1007 q 367 924 393 949 q 333 899 340 899 l 333 900 q 339 922 333 904 q 351 963 344 939 q 363 1012 357 986 q 368 1057 368 1038 l 432 1140 l 417 1175 q 415 1178 415 1176 q 420 1192 415 1183 q 430 1210 425 1201 q 440 1227 435 1219 q 444 1239 444 1235 l 626 1239 "},"":{"ha":953,"x_min":28,"x_max":931,"o":"m 578 258 q 597 226 588 247 q 613 179 606 206 q 626 124 619 153 q 636 65 632 94 q 713 26 646 7 q 781 114 778 44 q 783 186 782 150 q 782 258 783 222 l 782 408 q 785 511 782 463 q 797 600 788 560 q 822 669 806 640 q 864 710 838 697 q 906 715 888 710 q 914 850 931 722 l 464 850 q 451 753 442 797 q 489 689 461 708 q 515 672 503 679 q 539 657 528 664 q 617 640 561 647 q 622 614 621 633 q 624 590 624 594 q 608 546 624 576 q 569 478 593 515 q 515 401 544 440 q 458 328 486 361 q 408 274 431 294 q 374 253 385 253 q 322 264 350 253 q 269 294 293 275 q 228 340 244 314 q 213 396 213 365 q 223 438 213 421 q 245 472 233 456 q 267 506 257 488 q 278 553 278 525 q 269 610 278 588 q 249 652 261 633 q 222 688 236 671 q 196 730 208 706 q 175 789 183 754 q 167 876 167 824 q 98 854 125 876 q 56 799 71 832 q 34 724 40 765 q 28 646 28 683 q 33 476 28 567 q 64 301 39 385 q 95 228 78 264 q 139 162 113 193 q 202 105 165 131 q 292 61 239 79 q 461 94 408 36 q 540 186 521 144 q 559 224 550 206 q 578 258 568 242 m 556 971 l 632 1068 q 621 1090 626 1075 q 613 1125 615 1106 q 595 1140 603 1133 q 583 1150 588 1146 q 517 1202 543 1181 q 471 1250 490 1224 l 471 1260 q 456 1302 471 1282 q 418 1322 440 1322 l 415 1322 l 413 1322 l 411 1322 l 408 1322 l 408 1321 q 406 1318 407 1319 q 404 1315 406 1317 q 390 1301 396 1308 q 382 1289 385 1294 q 371 1272 376 1279 q 360 1260 365 1265 l 360 1250 q 313 1203 338 1225 q 247 1150 288 1182 q 234 1140 242 1146 q 217 1125 226 1133 q 197 1107 196 1108 l 267 985 q 276 975 272 974 q 283 983 281 976 q 285 997 285 989 q 286 1008 286 1006 q 322 1041 307 1028 q 343 1061 336 1054 q 360 1076 351 1069 q 376 1092 368 1083 q 415 1129 389 1100 q 435 1114 425 1121 q 458 1103 446 1107 q 490 1070 472 1086 q 518 1033 507 1054 q 544 1003 532 1014 q 556 971 556 993 "},"":{"ha":953,"x_min":28,"x_max":931,"o":"m 578 258 q 559 224 568 242 q 540 186 550 206 q 461 94 521 144 q 292 61 408 36 q 202 105 239 79 q 139 162 165 131 q 95 228 113 193 q 64 301 78 264 q 33 475 39 383 q 28 646 28 567 q 34 724 28 683 q 56 799 40 765 q 98 854 71 832 q 167 876 125 876 q 175 789 167 824 q 196 730 183 754 q 222 688 208 706 q 249 652 236 671 q 269 610 261 633 q 278 553 278 588 q 267 506 278 525 q 245 472 257 488 q 223 438 233 456 q 213 396 213 421 q 228 340 213 365 q 269 294 244 314 q 322 264 293 275 q 374 253 350 253 q 408 274 385 253 q 458 328 431 294 q 515 401 486 361 q 569 478 544 440 q 608 546 593 515 q 624 590 624 576 q 622 614 624 594 q 617 640 621 633 q 539 657 563 646 q 515 672 528 664 q 489 689 503 679 q 451 753 461 708 q 464 850 442 797 l 914 850 q 906 715 931 722 q 864 710 885 710 q 822 669 838 697 q 797 600 806 640 q 785 511 788 560 q 782 408 782 463 l 782 258 q 783 186 783 222 q 781 114 782 150 q 713 26 779 46 q 636 65 647 7 q 626 124 632 94 q 613 179 619 153 q 597 226 606 206 q 578 258 588 247 m 199 1167 l 381 1167 q 385 1153 381 1161 q 394 1138 389 1146 q 404 1121 400 1129 q 408 1106 408 1113 l 408 1103 l 393 1068 l 379 1003 q 364 977 367 981 q 361 975 361 974 q 360 979 361 979 l 272 979 q 268 975 268 979 l 194 989 l 199 1167 m 496 1167 l 678 1167 q 682 1153 678 1161 q 692 1138 686 1146 q 701 1121 697 1129 q 706 1106 706 1113 l 706 1103 l 690 1068 l 676 1003 q 661 977 664 981 q 658 975 658 974 q 657 979 658 979 l 569 979 q 565 975 565 979 l 492 989 l 496 1167 "},"":{"ha":1081,"x_min":13,"x_max":1053,"o":"m 879 664 q 883 467 890 538 q 851 358 876 396 q 785 304 826 319 q 688 275 743 289 q 565 238 633 261 q 417 161 496 215 q 389 117 394 144 q 378 64 383 90 q 362 18 374 38 q 315 -3 350 -1 q 242 24 257 -3 q 228 106 228 50 q 247 181 228 150 q 294 236 265 213 q 355 277 322 260 q 416 310 388 294 q 463 341 444 325 q 482 376 482 357 q 470 417 482 389 q 441 481 458 446 q 401 553 424 515 q 358 622 379 590 q 319 673 338 653 q 293 694 301 693 q 225 700 282 700 q 154 702 192 700 q 85 713 117 704 q 33 738 54 721 q 13 783 13 754 q 17 828 13 800 q 46 856 24 856 l 428 856 q 510 645 479 725 q 553 536 542 565 q 583 473 564 506 q 633 401 603 440 q 702 481 676 435 q 728 583 728 528 q 715 653 728 629 q 704 739 704 679 q 708 800 706 771 q 714 856 710 829 l 1053 856 q 1006 718 1053 767 q 879 664 960 669 m 785 1221 l 751 1036 l 594 894 l 651 1029 q 631 1011 653 1033 q 580 960 608 989 q 525 906 551 931 q 492 881 499 881 l 492 882 q 497 903 492 886 q 509 944 503 921 q 521 994 515 968 q 526 1039 526 1019 l 590 1122 l 575 1157 q 574 1160 574 1158 q 578 1174 574 1165 q 588 1192 583 1183 q 598 1209 593 1201 q 603 1221 603 1217 l 785 1221 "}}}
